<svg xmlns="http://www.w3.org/2000/svg" xmlns:xlink="http://www.w3.org/1999/xlink" version="1.1" class="marks" width="349" height="162" viewBox="0 0 349 162"><rect width="349" height="162" fill="white"/><g fill="none" stroke-miterlimit="10" transform="translate(71,5)"><g class="mark-group role-frame root" role="graphics-object" aria-roledescription="group mark container"><g transform="translate(0,0)"><path class="background" aria-hidden="true" d="M0.5,0.5h270v120h-270Z" stroke="#ddd"/><g><g class="mark-group role-axis" aria-hidden="true"><g transform="translate(0.5,120.5)"><path class="background" aria-hidden="true" d="M0,0h0v0h0Z" pointer-events="none"/><g><g class="mark-rule role-axis-grid" pointer-events="none"><line transform="translate(0,0)" x2="0" y2="-120" stroke="#ddd" stroke-width="1" opacity="1"/><line transform="translate(27,0)" x2="0" y2="-120" stroke="#ddd" stroke-width="1" opacity="1"/><line transform="translate(54,0)" x2="0" y2="-120" stroke="#ddd" stroke-width="1" opacity="1"/><line transform="translate(81,0)" x2="0" y2="-120" stroke="#ddd" stroke-width="1" opacity="1"/><line transform="translate(108,0)" x2="0" y2="-120" stroke="#ddd" stroke-width="1" opacity="1"/><line transform="translate(135,0)" x2="0" y2="-120" stroke="#ddd" stroke-width="1" opacity="1"/><line transform="translate(162,0)" x2="0" y2="-120" stroke="#ddd" stroke-width="1" opacity="1"/><line transform="translate(189,0)" x2="0" y2="-120" stroke="#ddd" stroke-width="1" opacity="1"/><line transform="translate(216,0)" x2="0" y2="-120" stroke="#ddd" stroke-width="1" opacity="1"/><line transform="translate(243,0)" x2="0" y2="-120" stroke="#ddd" stroke-width="1" opacity="1"/><line transform="translate(270,0)" x2="0" y2="-120" stroke="#ddd" stroke-width="1" opacity="1"/></g></g><path class="foreground" aria-hidden="true" d="" pointer-events="none" display="none"/></g></g><g class="mark-group role-axis" role="graphics-symbol" aria-roledescription="axis" aria-label="X-axis titled 'Age' for a linear scale with values from 0 to 100"><g transform="translate(0.5,120.5)"><path class="background" aria-hidden="true" d="M0,0h0v0h0Z" pointer-events="none"/><g><g class="mark-rule role-axis-tick" pointer-events="none"><line transform="translate(0,0)" x2="0" y2="5" stroke="#888" stroke-width="1" opacity="1"/><line transform="translate(27,0)" x2="0" y2="5" stroke="#888" stroke-width="1" opacity="1"/><line transform="translate(54,0)" x2="0" y2="5" stroke="#888" stroke-width="1" opacity="1"/><line transform="translate(81,0)" x2="0" y2="5" stroke="#888" stroke-width="1" opacity="1"/><line transform="translate(108,0)" x2="0" y2="5" stroke="#888" stroke-width="1" opacity="1"/><line transform="translate(135,0)" x2="0" y2="5" stroke="#888" stroke-width="1" opacity="1"/><line transform="translate(162,0)" x2="0" y2="5" stroke="#888" stroke-width="1" opacity="1"/><line transform="translate(189,0)" x2="0" y2="5" stroke="#888" stroke-width="1" opacity="1"/><line transform="translate(216,0)" x2="0" y2="5" stroke="#888" stroke-width="1" opacity="1"/><line transform="translate(243,0)" x2="0" y2="5" stroke="#888" stroke-width="1" opacity="1"/><line transform="translate(270,0)" x2="0" y2="5" stroke="#888" stroke-width="1" opacity="1"/></g><g class="mark-text role-axis-label" pointer-events="none"><text text-anchor="start" transform="translate(0,15)" font-family="sans-serif" font-size="10px" fill="#000" opacity="1">0</text><text text-anchor="middle" transform="translate(27,15)" font-family="sans-serif" font-size="10px" fill="#000" opacity="1">10</text><text text-anchor="middle" transform="translate(54,15)" font-family="sans-serif" font-size="10px" fill="#000" opacity="1">20</text><text text-anchor="middle" transform="translate(81,15)" font-family="sans-serif" font-size="10px" fill="#000" opacity="1">30</text><text text-anchor="middle" transform="translate(108,15)" font-family="sans-serif" font-size="10px" fill="#000" opacity="1">40</text><text text-anchor="middle" transform="translate(135,15)" font-family="sans-serif" font-size="10px" fill="#000" opacity="1">50</text><text text-anchor="middle" transform="translate(162,15)" font-family="sans-serif" font-size="10px" fill="#000" opacity="1">60</text><text text-anchor="middle" transform="translate(189,15)" font-family="sans-serif" font-size="10px" fill="#000" opacity="1">70</text><text text-anchor="middle" transform="translate(216,15)" font-family="sans-serif" font-size="10px" fill="#000" opacity="1">80</text><text text-anchor="middle" transform="translate(243,15)" font-family="sans-serif" font-size="10px" fill="#000" opacity="1">90</text><text text-anchor="end" transform="translate(270,15)" font-family="sans-serif" font-size="10px" fill="#000" opacity="1">100</text></g><g class="mark-rule role-axis-domain" pointer-events="none"><line transform="translate(0,0)" x2="270" y2="0" stroke="#888" stroke-width="1" opacity="1"/></g><g class="mark-text role-axis-title" pointer-events="none"><text text-anchor="middle" transform="translate(135,30)" font-family="sans-serif" font-size="11px" font-weight="bold" fill="#000" opacity="1">Age</text></g></g><path class="foreground" aria-hidden="true" d="" pointer-events="none" display="none"/></g></g><g class="mark-group role-axis" role="graphics-symbol" aria-roledescription="axis" aria-label="Y-axis for a discrete scale with 7 values: Australia, Finland, Germany, Italy, New Zealand, Spain, United States"><g transform="translate(0.5,0.5)"><path class="background" aria-hidden="true" d="M0,0h0v0h0Z" pointer-events="none"/><g><g class="mark-text role-axis-label" pointer-events="none"><text text-anchor="end" transform="translate(-5,11.071428571428571)" font-family="sans-serif" font-size="10px" fill="#000" opacity="1">Australia</text><text text-anchor="end" transform="translate(-5,28.214285714285715)" font-family="sans-serif" font-size="10px" fill="#000" opacity="1">Finland</text><text text-anchor="end" transform="translate(-5,45.357142857142854)" font-family="sans-serif" font-size="10px" fill="#000" opacity="1">Germany</text><text text-anchor="end" transform="translate(-5,62.5)" font-family="sans-serif" font-size="10px" fill="#000" opacity="1">Italy</text><text text-anchor="end" transform="translate(-5,79.64285714285714)" font-family="sans-serif" font-size="10px" fill="#000" opacity="1">New Zealand</text><text text-anchor="end" transform="translate(-5,96.78571428571428)" font-family="sans-serif" font-size="10px" fill="#000" opacity="1">Spain</text><text text-anchor="end" transform="translate(-5,113.92857142857143)" font-family="sans-serif" font-size="10px" fill="#000" opacity="1">United States</text></g></g><path class="foreground" aria-hidden="true" d="" pointer-events="none" display="none"/></g></g><g class="mark-rule role-mark layer_0_marks" role="graphics-object" aria-roledescription="rule mark container"><line aria-label="min: 10; country: Australia; max: 100" role="graphics-symbol" aria-roledescription="rule mark" transform="translate(27,8.571428571428571)" x2="243" y2="0" stroke="#97bbf5" stroke-width="3"/><line aria-label="min: 0; country: Italy; max: 100" role="graphics-symbol" aria-roledescription="rule mark" transform="translate(0,60)" x2="270" y2="0" stroke="#97bbf5" stroke-width="3"/><line aria-label="min: 0; country: United States; max: 100" role="graphics-symbol" aria-roledescription="rule mark" transform="translate(0,111.42857142857143)" x2="270" y2="0" stroke="#97bbf5" stroke-width="3"/><line aria-label="min: 14; country: Spain; max: 100" role="graphics-symbol" aria-roledescription="rule mark" transform="translate(37.800000000000004,94.28571428571428)" x2="232.2" y2="0" stroke="#97bbf5" stroke-width="3"/><line aria-label="min: 5; country: New Zealand; max: 100" role="graphics-symbol" aria-roledescription="rule mark" transform="translate(13.5,77.14285714285714)" x2="256.5" y2="0" stroke="#97bbf5" stroke-width="3"/><line aria-label="min: 0; country: Finland; max: 100" role="graphics-symbol" aria-roledescription="rule mark" transform="translate(0,25.714285714285715)" x2="270" y2="0" stroke="#97bbf5" stroke-width="3"/><line aria-label="min: 0; country: Germany; max: 100" role="graphics-symbol" aria-roledescription="rule mark" transform="translate(0,42.857142857142854)" x2="270" y2="0" stroke="#97bbf5" stroke-width="3"/></g><g class="mark-rect role-mark layer_1_marks" role="graphics-object" aria-roledescription="rect mark container"><path aria-label="Age: 10; country: Australia" role="graphics-symbol" aria-roledescription="tick" d="M26.95,2.571428571428571h0.1v12h-0.1Z" fill="#4c78a8" stroke="#4269d0" opacity="0.7"/><path aria-label="Age: 18; country: Australia" role="graphics-symbol" aria-roledescription="tick" d="M48.550000000000004,2.571428571428571h0.1v12h-0.1Z" fill="#4c78a8" stroke="#4269d0" opacity="0.7"/><path aria-label="Age: 45; country: Australia" role="graphics-symbol" aria-roledescription="tick" d="M121.45,2.571428571428571h0.1v12h-0.1Z" fill="#4c78a8" stroke="#4269d0" opacity="0.7"/><path aria-label="Age: 0; country: Finland" role="graphics-symbol" aria-roledescription="tick" d="M-0.05,19.714285714285715h0.1v12h-0.1Z" fill="#4c78a8" stroke="#4269d0" opacity="0.7"/><path aria-label="Age: 15; country: Finland" role="graphics-symbol" aria-roledescription="tick" d="M40.45,19.714285714285715h0.1v12h-0.1Z" fill="#4c78a8" stroke="#4269d0" opacity="0.7"/><path aria-label="Age: 18; country: Finland" role="graphics-symbol" aria-roledescription="tick" d="M48.550000000000004,19.714285714285715h0.1v12h-0.1Z" fill="#4c78a8" stroke="#4269d0" opacity="0.7"/><path aria-label="Age: 30; country: Finland" role="graphics-symbol" aria-roledescription="tick" d="M80.95,19.714285714285715h0.1v12h-0.1Z" fill="#4c78a8" stroke="#4269d0" opacity="0.7"/><path aria-label="Age: 50; country: Finland" role="graphics-symbol" aria-roledescription="tick" d="M134.95,19.714285714285715h0.1v12h-0.1Z" fill="#4c78a8" stroke="#4269d0" opacity="0.7"/><path aria-label="Age: 0; country: Germany" role="graphics-symbol" aria-roledescription="tick" d="M-0.05,36.857142857142854h0.1v12h-0.1Z" fill="#4c78a8" stroke="#4269d0" opacity="0.7"/><path aria-label="Age: 6; country: Germany" role="graphics-symbol" aria-roledescription="tick" d="M16.15,36.857142857142854h0.1v12h-0.1Z" fill="#4c78a8" stroke="#4269d0" opacity="0.7"/><path aria-label="Age: 8; country: Germany" role="graphics-symbol" aria-roledescription="tick" d="M21.55,36.857142857142854h0.1v12h-0.1Z" fill="#4c78a8" stroke="#4269d0" opacity="0.7"/><path aria-label="Age: 10; country: Germany" role="graphics-symbol" aria-roledescription="tick" d="M26.95,36.857142857142854h0.1v12h-0.1Z" fill="#4c78a8" stroke="#4269d0" opacity="0.7"/><path aria-label="Age: 12; country: Germany" role="graphics-symbol" aria-roledescription="tick" d="M32.35,36.857142857142854h0.1v12h-0.1Z" fill="#4c78a8" stroke="#4269d0" opacity="0.7"/><path aria-label="Age: 14; country: Germany" role="graphics-symbol" aria-roledescription="tick" d="M37.75000000000001,36.857142857142854h0.1v12h-0.1Z" fill="#4c78a8" stroke="#4269d0" opacity="0.7"/><path aria-label="Age: 16; country: Germany" role="graphics-symbol" aria-roledescription="tick" d="M43.150000000000006,36.857142857142854h0.1v12h-0.1Z" fill="#4c78a8" stroke="#4269d0" opacity="0.7"/><path aria-label="Age: 18; country: Germany" role="graphics-symbol" aria-roledescription="tick" d="M48.550000000000004,36.857142857142854h0.1v12h-0.1Z" fill="#4c78a8" stroke="#4269d0" opacity="0.7"/><path aria-label="Age: 21; country: Germany" role="graphics-symbol" aria-roledescription="tick" d="M56.65,36.857142857142854h0.1v12h-0.1Z" fill="#4c78a8" stroke="#4269d0" opacity="0.7"/><path aria-label="Age: 23; country: Germany" role="graphics-symbol" aria-roledescription="tick" d="M62.050000000000004,36.857142857142854h0.1v12h-0.1Z" fill="#4c78a8" stroke="#4269d0" opacity="0.7"/><path aria-label="Age: 25; country: Germany" role="graphics-symbol" aria-roledescription="tick" d="M67.45,36.857142857142854h0.1v12h-0.1Z" fill="#4c78a8" stroke="#4269d0" opacity="0.7"/><path aria-label="Age: 30; country: Germany" role="graphics-symbol" aria-roledescription="tick" d="M80.95,36.857142857142854h0.1v12h-0.1Z" fill="#4c78a8" stroke="#4269d0" opacity="0.7"/><path aria-label="Age: 40; country: Germany" role="graphics-symbol" aria-roledescription="tick" d="M107.95,36.857142857142854h0.1v12h-0.1Z" fill="#4c78a8" stroke="#4269d0" opacity="0.7"/><path aria-label="Age: 50; country: Germany" role="graphics-symbol" aria-roledescription="tick" d="M134.95,36.857142857142854h0.1v12h-0.1Z" fill="#4c78a8" stroke="#4269d0" opacity="0.7"/><path aria-label="Age: 60; country: Germany" role="graphics-symbol" aria-roledescription="tick" d="M161.95,36.857142857142854h0.1v12h-0.1Z" fill="#4c78a8" stroke="#4269d0" opacity="0.7"/><path aria-label="Age: 65; country: Germany" role="graphics-symbol" aria-roledescription="tick" d="M175.45,36.857142857142854h0.1v12h-0.1Z" fill="#4c78a8" stroke="#4269d0" opacity="0.7"/><path aria-label="Age: 70; country: Germany" role="graphics-symbol" aria-roledescription="tick" d="M188.95,36.857142857142854h0.1v12h-0.1Z" fill="#4c78a8" stroke="#4269d0" opacity="0.7"/><path aria-label="Age: 75; country: Germany" role="graphics-symbol" aria-roledescription="tick" d="M202.45,36.857142857142854h0.1v12h-0.1Z" fill="#4c78a8" stroke="#4269d0" opacity="0.7"/><path aria-label="Age: 80; country: Germany" role="graphics-symbol" aria-roledescription="tick" d="M215.95,36.857142857142854h0.1v12h-0.1Z" fill="#4c78a8" stroke="#4269d0" opacity="0.7"/><path aria-label="Age: 0; country: Italy" role="graphics-symbol" aria-roledescription="tick" d="M-0.05,54h0.1v12h-0.1Z" fill="#4c78a8" stroke="#4269d0" opacity="0.7"/><path aria-label="Age: 14; country: Italy" role="graphics-symbol" aria-roledescription="tick" d="M37.75000000000001,54h0.1v12h-0.1Z" fill="#4c78a8" stroke="#4269d0" opacity="0.7"/><path aria-label="Age: 18; country: Italy" role="graphics-symbol" aria-roledescription="tick" d="M48.550000000000004,54h0.1v12h-0.1Z" fill="#4c78a8" stroke="#4269d0" opacity="0.7"/><path aria-label="Age: 25; country: Italy" role="graphics-symbol" aria-roledescription="tick" d="M67.45,54h0.1v12h-0.1Z" fill="#4c78a8" stroke="#4269d0" opacity="0.7"/><path aria-label="Age: 35; country: Italy" role="graphics-symbol" aria-roledescription="tick" d="M94.45,54h0.1v12h-0.1Z" fill="#4c78a8" stroke="#4269d0" opacity="0.7"/><path aria-label="Age: 45; country: Italy" role="graphics-symbol" aria-roledescription="tick" d="M121.45,54h0.1v12h-0.1Z" fill="#4c78a8" stroke="#4269d0" opacity="0.7"/><path aria-label="Age: 55; country: Italy" role="graphics-symbol" aria-roledescription="tick" d="M148.45,54h0.1v12h-0.1Z" fill="#4c78a8" stroke="#4269d0" opacity="0.7"/><path aria-label="Age: 65; country: Italy" role="graphics-symbol" aria-roledescription="tick" d="M175.45,54h0.1v12h-0.1Z" fill="#4c78a8" stroke="#4269d0" opacity="0.7"/><path aria-label="Age: 5; country: New Zealand" role="graphics-symbol" aria-roledescription="tick" d="M13.45,71.14285714285714h0.1v12h-0.1Z" fill="#4c78a8" stroke="#4269d0" opacity="0.7"/><path aria-label="Age: 10; country: New Zealand" role="graphics-symbol" aria-roledescription="tick" d="M26.95,71.14285714285714h0.1v12h-0.1Z" fill="#4c78a8" stroke="#4269d0" opacity="0.7"/><path aria-label="Age: 15; country: New Zealand" role="graphics-symbol" aria-roledescription="tick" d="M40.45,71.14285714285714h0.1v12h-0.1Z" fill="#4c78a8" stroke="#4269d0" opacity="0.7"/><path aria-label="Age: 20; country: New Zealand" role="graphics-symbol" aria-roledescription="tick" d="M53.95,71.14285714285714h0.1v12h-0.1Z" fill="#4c78a8" stroke="#4269d0" opacity="0.7"/><path aria-label="Age: 25; country: New Zealand" role="graphics-symbol" aria-roledescription="tick" d="M67.45,71.14285714285714h0.1v12h-0.1Z" fill="#4c78a8" stroke="#4269d0" opacity="0.7"/><path aria-label="Age: 30; country: New Zealand" role="graphics-symbol" aria-roledescription="tick" d="M80.95,71.14285714285714h0.1v12h-0.1Z" fill="#4c78a8" stroke="#4269d0" opacity="0.7"/><path aria-label="Age: 35; country: New Zealand" role="graphics-symbol" aria-roledescription="tick" d="M94.45,71.14285714285714h0.1v12h-0.1Z" fill="#4c78a8" stroke="#4269d0" opacity="0.7"/><path aria-label="Age: 40; country: New Zealand" role="graphics-symbol" aria-roledescription="tick" d="M107.95,71.14285714285714h0.1v12h-0.1Z" fill="#4c78a8" stroke="#4269d0" opacity="0.7"/><path aria-label="Age: 45; country: New Zealand" role="graphics-symbol" aria-roledescription="tick" d="M121.45,71.14285714285714h0.1v12h-0.1Z" fill="#4c78a8" stroke="#4269d0" opacity="0.7"/><path aria-label="Age: 50; country: New Zealand" role="graphics-symbol" aria-roledescription="tick" d="M134.95,71.14285714285714h0.1v12h-0.1Z" fill="#4c78a8" stroke="#4269d0" opacity="0.7"/><path aria-label="Age: 55; country: New Zealand" role="graphics-symbol" aria-roledescription="tick" d="M148.45,71.14285714285714h0.1v12h-0.1Z" fill="#4c78a8" stroke="#4269d0" opacity="0.7"/><path aria-label="Age: 60; country: New Zealand" role="graphics-symbol" aria-roledescription="tick" d="M161.95,71.14285714285714h0.1v12h-0.1Z" fill="#4c78a8" stroke="#4269d0" opacity="0.7"/><path aria-label="Age: 65; country: New Zealand" role="graphics-symbol" aria-roledescription="tick" d="M175.45,71.14285714285714h0.1v12h-0.1Z" fill="#4c78a8" stroke="#4269d0" opacity="0.7"/><path aria-label="Age: 70; country: New Zealand" role="graphics-symbol" aria-roledescription="tick" d="M188.95,71.14285714285714h0.1v12h-0.1Z" fill="#4c78a8" stroke="#4269d0" opacity="0.7"/><path aria-label="Age: 75; country: New Zealand" role="graphics-symbol" aria-roledescription="tick" d="M202.45,71.14285714285714h0.1v12h-0.1Z" fill="#4c78a8" stroke="#4269d0" opacity="0.7"/><path aria-label="Age: 80; country: New Zealand" role="graphics-symbol" aria-roledescription="tick" d="M215.95,71.14285714285714h0.1v12h-0.1Z" fill="#4c78a8" stroke="#4269d0" opacity="0.7"/><path aria-label="Age: 14; country: Spain" role="graphics-symbol" aria-roledescription="tick" d="M37.75000000000001,88.28571428571428h0.1v12h-0.1Z" fill="#4c78a8" stroke="#4269d0" opacity="0.7"/><path aria-label="Age: 18; country: Spain" role="graphics-symbol" aria-roledescription="tick" d="M48.550000000000004,88.28571428571428h0.1v12h-0.1Z" fill="#4c78a8" stroke="#4269d0" opacity="0.7"/><path aria-label="Age: 31; country: Spain" role="graphics-symbol" aria-roledescription="tick" d="M83.65,88.28571428571428h0.1v12h-0.1Z" fill="#4c78a8" stroke="#4269d0" opacity="0.7"/><path aria-label="Age: 41; country: Spain" role="graphics-symbol" aria-roledescription="tick" d="M110.64999999999999,88.28571428571428h0.1v12h-0.1Z" fill="#4c78a8" stroke="#4269d0" opacity="0.7"/><path aria-label="Age: 65; country: Spain" role="graphics-symbol" aria-roledescription="tick" d="M175.45,88.28571428571428h0.1v12h-0.1Z" fill="#4c78a8" stroke="#4269d0" opacity="0.7"/><path aria-label="Age: 0; country: United States" role="graphics-symbol" aria-roledescription="tick" d="M-0.05,105.42857142857143h0.1v12h-0.1Z" fill="#4c78a8" stroke="#4269d0" opacity="0.7"/><path aria-label="Age: 1; country: United States" role="graphics-symbol" aria-roledescription="tick" d="M2.6500000000000004,105.42857142857143h0.1v12h-0.1Z" fill="#4c78a8" stroke="#4269d0" opacity="0.7"/><path aria-label="Age: 2; country: United States" role="graphics-symbol" aria-roledescription="tick" d="M5.3500000000000005,105.42857142857143h0.1v12h-0.1Z" fill="#4c78a8" stroke="#4269d0" opacity="0.7"/><path aria-label="Age: 3; country: United States" role="graphics-symbol" aria-roledescription="tick" d="M8.049999999999999,105.42857142857143h0.1v12h-0.1Z" fill="#4c78a8" stroke="#4269d0" opacity="0.7"/><path aria-label="Age: 4; country: United States" role="graphics-symbol" aria-roledescription="tick" d="M10.75,105.42857142857143h0.1v12h-0.1Z" fill="#4c78a8" stroke="#4269d0" opacity="0.7"/><path aria-label="Age: 5; country: United States" role="graphics-symbol" aria-roledescription="tick" d="M13.45,105.42857142857143h0.1v12h-0.1Z" fill="#4c78a8" stroke="#4269d0" opacity="0.7"/><path aria-label="Age: 6; country: United States" role="graphics-symbol" aria-roledescription="tick" d="M16.15,105.42857142857143h0.1v12h-0.1Z" fill="#4c78a8" stroke="#4269d0" opacity="0.7"/><path aria-label="Age: 7; country: United States" role="graphics-symbol" aria-roledescription="tick" d="M18.85,105.42857142857143h0.1v12h-0.1Z" fill="#4c78a8" stroke="#4269d0" opacity="0.7"/><path aria-label="Age: 8; country: United States" role="graphics-symbol" aria-roledescription="tick" d="M21.55,105.42857142857143h0.1v12h-0.1Z" fill="#4c78a8" stroke="#4269d0" opacity="0.7"/><path aria-label="Age: 9; country: United States" role="graphics-symbol" aria-roledescription="tick" d="M24.25,105.42857142857143h0.1v12h-0.1Z" fill="#4c78a8" stroke="#4269d0" opacity="0.7"/><path aria-label="Age: 10; country: United States" role="graphics-symbol" aria-roledescription="tick" d="M26.95,105.42857142857143h0.1v12h-0.1Z" fill="#4c78a8" stroke="#4269d0" opacity="0.7"/><path aria-label="Age: 11; country: United States" role="graphics-symbol" aria-roledescription="tick" d="M29.65,105.42857142857143h0.1v12h-0.1Z" fill="#4c78a8" stroke="#4269d0" opacity="0.7"/><path aria-label="Age: 12; country: United States" role="graphics-symbol" aria-roledescription="tick" d="M32.35,105.42857142857143h0.1v12h-0.1Z" fill="#4c78a8" stroke="#4269d0" opacity="0.7"/><path aria-label="Age: 13; country: United States" role="graphics-symbol" aria-roledescription="tick" d="M35.050000000000004,105.42857142857143h0.1v12h-0.1Z" fill="#4c78a8" stroke="#4269d0" opacity="0.7"/><path aria-label="Age: 14; country: United States" role="graphics-symbol" aria-roledescription="tick" d="M37.75000000000001,105.42857142857143h0.1v12h-0.1Z" fill="#4c78a8" stroke="#4269d0" opacity="0.7"/><path aria-label="Age: 15; country: United States" role="graphics-symbol" aria-roledescription="tick" d="M40.45,105.42857142857143h0.1v12h-0.1Z" fill="#4c78a8" stroke="#4269d0" opacity="0.7"/><path aria-label="Age: 16; country: United States" role="graphics-symbol" aria-roledescription="tick" d="M43.150000000000006,105.42857142857143h0.1v12h-0.1Z" fill="#4c78a8" stroke="#4269d0" opacity="0.7"/><path aria-label="Age: 17; country: United States" role="graphics-symbol" aria-roledescription="tick" d="M45.85000000000001,105.42857142857143h0.1v12h-0.1Z" fill="#4c78a8" stroke="#4269d0" opacity="0.7"/><path aria-label="Age: 18; country: United States" role="graphics-symbol" aria-roledescription="tick" d="M48.550000000000004,105.42857142857143h0.1v12h-0.1Z" fill="#4c78a8" stroke="#4269d0" opacity="0.7"/><path aria-label="Age: 19; country: United States" role="graphics-symbol" aria-roledescription="tick" d="M51.25,105.42857142857143h0.1v12h-0.1Z" fill="#4c78a8" stroke="#4269d0" opacity="0.7"/><path aria-label="Age: 20; country: United States" role="graphics-symbol" aria-roledescription="tick" d="M53.95,105.42857142857143h0.1v12h-0.1Z" fill="#4c78a8" stroke="#4269d0" opacity="0.7"/><path aria-label="Age: 21; country: United States" role="graphics-symbol" aria-roledescription="tick" d="M56.65,105.42857142857143h0.1v12h-0.1Z" fill="#4c78a8" stroke="#4269d0" opacity="0.7"/><path aria-label="Age: 22; country: United States" role="graphics-symbol" aria-roledescription="tick" d="M59.35,105.42857142857143h0.1v12h-0.1Z" fill="#4c78a8" stroke="#4269d0" opacity="0.7"/><path aria-label="Age: 23; country: United States" role="graphics-symbol" aria-roledescription="tick" d="M62.050000000000004,105.42857142857143h0.1v12h-0.1Z" fill="#4c78a8" stroke="#4269d0" opacity="0.7"/><path aria-label="Age: 24; country: United States" role="graphics-symbol" aria-roledescription="tick" d="M64.75,105.42857142857143h0.1v12h-0.1Z" fill="#4c78a8" stroke="#4269d0" opacity="0.7"/><path aria-label="Age: 25; country: United States" role="graphics-symbol" aria-roledescription="tick" d="M67.45,105.42857142857143h0.1v12h-0.1Z" fill="#4c78a8" stroke="#4269d0" opacity="0.7"/><path aria-label="Age: 26; country: United States" role="graphics-symbol" aria-roledescription="tick" d="M70.15,105.42857142857143h0.1v12h-0.1Z" fill="#4c78a8" stroke="#4269d0" opacity="0.7"/><path aria-label="Age: 27; country: United States" role="graphics-symbol" aria-roledescription="tick" d="M72.85000000000001,105.42857142857143h0.1v12h-0.1Z" fill="#4c78a8" stroke="#4269d0" opacity="0.7"/><path aria-label="Age: 28; country: United States" role="graphics-symbol" aria-roledescription="tick" d="M75.55000000000001,105.42857142857143h0.1v12h-0.1Z" fill="#4c78a8" stroke="#4269d0" opacity="0.7"/><path aria-label="Age: 29; country: United States" role="graphics-symbol" aria-roledescription="tick" d="M78.25,105.42857142857143h0.1v12h-0.1Z" fill="#4c78a8" stroke="#4269d0" opacity="0.7"/><path aria-label="Age: 30; country: United States" role="graphics-symbol" aria-roledescription="tick" d="M80.95,105.42857142857143h0.1v12h-0.1Z" fill="#4c78a8" stroke="#4269d0" opacity="0.7"/><path aria-label="Age: 31; country: United States" role="graphics-symbol" aria-roledescription="tick" d="M83.65,105.42857142857143h0.1v12h-0.1Z" fill="#4c78a8" stroke="#4269d0" opacity="0.7"/><path aria-label="Age: 32; country: United States" role="graphics-symbol" aria-roledescription="tick" d="M86.35000000000001,105.42857142857143h0.1v12h-0.1Z" fill="#4c78a8" stroke="#4269d0" opacity="0.7"/><path aria-label="Age: 33; country: United States" role="graphics-symbol" aria-roledescription="tick" d="M89.05000000000001,105.42857142857143h0.1v12h-0.1Z" fill="#4c78a8" stroke="#4269d0" opacity="0.7"/><path aria-label="Age: 34; country: United States" role="graphics-symbol" aria-roledescription="tick" d="M91.75000000000001,105.42857142857143h0.1v12h-0.1Z" fill="#4c78a8" stroke="#4269d0" opacity="0.7"/><path aria-label="Age: 35; country: United States" role="graphics-symbol" aria-roledescription="tick" d="M94.45,105.42857142857143h0.1v12h-0.1Z" fill="#4c78a8" stroke="#4269d0" opacity="0.7"/><path aria-label="Age: 36; country: United States" role="graphics-symbol" aria-roledescription="tick" d="M97.15,105.42857142857143h0.1v12h-0.1Z" fill="#4c78a8" stroke="#4269d0" opacity="0.7"/><path aria-label="Age: 37; country: United States" role="graphics-symbol" aria-roledescription="tick" d="M99.85000000000001,105.42857142857143h0.1v12h-0.1Z" fill="#4c78a8" stroke="#4269d0" opacity="0.7"/><path aria-label="Age: 38; country: United States" role="graphics-symbol" aria-roledescription="tick" d="M102.55,105.42857142857143h0.1v12h-0.1Z" fill="#4c78a8" stroke="#4269d0" opacity="0.7"/><path aria-label="Age: 39; country: United States" role="graphics-symbol" aria-roledescription="tick" d="M105.25,105.42857142857143h0.1v12h-0.1Z" fill="#4c78a8" stroke="#4269d0" opacity="0.7"/><path aria-label="Age: 40; country: United States" role="graphics-symbol" aria-roledescription="tick" d="M107.95,105.42857142857143h0.1v12h-0.1Z" fill="#4c78a8" stroke="#4269d0" opacity="0.7"/><path aria-label="Age: 41; country: United States" role="graphics-symbol" aria-roledescription="tick" d="M110.64999999999999,105.42857142857143h0.1v12h-0.1Z" fill="#4c78a8" stroke="#4269d0" opacity="0.7"/><path aria-label="Age: 42; country: United States" role="graphics-symbol" aria-roledescription="tick" d="M113.35,105.42857142857143h0.1v12h-0.1Z" fill="#4c78a8" stroke="#4269d0" opacity="0.7"/><path aria-label="Age: 43; country: United States" role="graphics-symbol" aria-roledescription="tick" d="M116.05,105.42857142857143h0.1v12h-0.1Z" fill="#4c78a8" stroke="#4269d0" opacity="0.7"/><path aria-label="Age: 44; country: United States" role="graphics-symbol" aria-roledescription="tick" d="M118.75,105.42857142857143h0.1v12h-0.1Z" fill="#4c78a8" stroke="#4269d0" opacity="0.7"/><path aria-label="Age: 45; country: United States" role="graphics-symbol" aria-roledescription="tick" d="M121.45,105.42857142857143h0.1v12h-0.1Z" fill="#4c78a8" stroke="#4269d0" opacity="0.7"/><path aria-label="Age: 46; country: United States" role="graphics-symbol" aria-roledescription="tick" d="M124.15,105.42857142857143h0.1v12h-0.1Z" fill="#4c78a8" stroke="#4269d0" opacity="0.7"/><path aria-label="Age: 47; country: United States" role="graphics-symbol" aria-roledescription="tick" d="M126.85,105.42857142857143h0.1v12h-0.1Z" fill="#4c78a8" stroke="#4269d0" opacity="0.7"/><path aria-label="Age: 48; country: United States" role="graphics-symbol" aria-roledescription="tick" d="M129.54999999999998,105.42857142857143h0.1v12h-0.1Z" fill="#4c78a8" stroke="#4269d0" opacity="0.7"/><path aria-label="Age: 49; country: United States" role="graphics-symbol" aria-roledescription="tick" d="M132.25,105.42857142857143h0.1v12h-0.1Z" fill="#4c78a8" stroke="#4269d0" opacity="0.7"/><path aria-label="Age: 50; country: United States" role="graphics-symbol" aria-roledescription="tick" d="M134.95,105.42857142857143h0.1v12h-0.1Z" fill="#4c78a8" stroke="#4269d0" opacity="0.7"/><path aria-label="Age: 51; country: United States" role="graphics-symbol" aria-roledescription="tick" d="M137.64999999999998,105.42857142857143h0.1v12h-0.1Z" fill="#4c78a8" stroke="#4269d0" opacity="0.7"/><path aria-label="Age: 52; country: United States" role="graphics-symbol" aria-roledescription="tick" d="M140.35,105.42857142857143h0.1v12h-0.1Z" fill="#4c78a8" stroke="#4269d0" opacity="0.7"/><path aria-label="Age: 53; country: United States" role="graphics-symbol" aria-roledescription="tick" d="M143.04999999999998,105.42857142857143h0.1v12h-0.1Z" fill="#4c78a8" stroke="#4269d0" opacity="0.7"/><path aria-label="Age: 54; country: United States" role="graphics-symbol" aria-roledescription="tick" d="M145.75,105.42857142857143h0.1v12h-0.1Z" fill="#4c78a8" stroke="#4269d0" opacity="0.7"/><path aria-label="Age: 55; country: United States" role="graphics-symbol" aria-roledescription="tick" d="M148.45,105.42857142857143h0.1v12h-0.1Z" fill="#4c78a8" stroke="#4269d0" opacity="0.7"/><path aria-label="Age: 56; country: United States" role="graphics-symbol" aria-roledescription="tick" d="M151.15,105.42857142857143h0.1v12h-0.1Z" fill="#4c78a8" stroke="#4269d0" opacity="0.7"/><path aria-label="Age: 57; country: United States" role="graphics-symbol" aria-roledescription="tick" d="M153.84999999999997,105.42857142857143h0.1v12h-0.1Z" fill="#4c78a8" stroke="#4269d0" opacity="0.7"/><path aria-label="Age: 58; country: United States" role="graphics-symbol" aria-roledescription="tick" d="M156.54999999999998,105.42857142857143h0.1v12h-0.1Z" fill="#4c78a8" stroke="#4269d0" opacity="0.7"/><path aria-label="Age: 59; country: United States" role="graphics-symbol" aria-roledescription="tick" d="M159.24999999999997,105.42857142857143h0.1v12h-0.1Z" fill="#4c78a8" stroke="#4269d0" opacity="0.7"/><path aria-label="Age: 60; country: United States" role="graphics-symbol" aria-roledescription="tick" d="M161.95,105.42857142857143h0.1v12h-0.1Z" fill="#4c78a8" stroke="#4269d0" opacity="0.7"/><path aria-label="Age: 61; country: United States" role="graphics-symbol" aria-roledescription="tick" d="M164.64999999999998,105.42857142857143h0.1v12h-0.1Z" fill="#4c78a8" stroke="#4269d0" opacity="0.7"/><path aria-label="Age: 62; country: United States" role="graphics-symbol" aria-roledescription="tick" d="M167.35,105.42857142857143h0.1v12h-0.1Z" fill="#4c78a8" stroke="#4269d0" opacity="0.7"/><path aria-label="Age: 63; country: United States" role="graphics-symbol" aria-roledescription="tick" d="M170.04999999999998,105.42857142857143h0.1v12h-0.1Z" fill="#4c78a8" stroke="#4269d0" opacity="0.7"/><path aria-label="Age: 64; country: United States" role="graphics-symbol" aria-roledescription="tick" d="M172.75,105.42857142857143h0.1v12h-0.1Z" fill="#4c78a8" stroke="#4269d0" opacity="0.7"/><path aria-label="Age: 65; country: United States" role="graphics-symbol" aria-roledescription="tick" d="M175.45,105.42857142857143h0.1v12h-0.1Z" fill="#4c78a8" stroke="#4269d0" opacity="0.7"/><path aria-label="Age: 66; country: United States" role="graphics-symbol" aria-roledescription="tick" d="M178.15,105.42857142857143h0.1v12h-0.1Z" fill="#4c78a8" stroke="#4269d0" opacity="0.7"/><path aria-label="Age: 67; country: United States" role="graphics-symbol" aria-roledescription="tick" d="M180.85,105.42857142857143h0.1v12h-0.1Z" fill="#4c78a8" stroke="#4269d0" opacity="0.7"/><path aria-label="Age: 68; country: United States" role="graphics-symbol" aria-roledescription="tick" d="M183.55,105.42857142857143h0.1v12h-0.1Z" fill="#4c78a8" stroke="#4269d0" opacity="0.7"/><path aria-label="Age: 69; country: United States" role="graphics-symbol" aria-roledescription="tick" d="M186.24999999999997,105.42857142857143h0.1v12h-0.1Z" fill="#4c78a8" stroke="#4269d0" opacity="0.7"/><path aria-label="Age: 70; country: United States" role="graphics-symbol" aria-roledescription="tick" d="M188.95,105.42857142857143h0.1v12h-0.1Z" fill="#4c78a8" stroke="#4269d0" opacity="0.7"/><path aria-label="Age: 71; country: United States" role="graphics-symbol" aria-roledescription="tick" d="M191.64999999999998,105.42857142857143h0.1v12h-0.1Z" fill="#4c78a8" stroke="#4269d0" opacity="0.7"/><path aria-label="Age: 72; country: United States" role="graphics-symbol" aria-roledescription="tick" d="M194.35,105.42857142857143h0.1v12h-0.1Z" fill="#4c78a8" stroke="#4269d0" opacity="0.7"/><path aria-label="Age: 73; country: United States" role="graphics-symbol" aria-roledescription="tick" d="M197.04999999999998,105.42857142857143h0.1v12h-0.1Z" fill="#4c78a8" stroke="#4269d0" opacity="0.7"/><path aria-label="Age: 74; country: United States" role="graphics-symbol" aria-roledescription="tick" d="M199.75,105.42857142857143h0.1v12h-0.1Z" fill="#4c78a8" stroke="#4269d0" opacity="0.7"/><path aria-label="Age: 75; country: United States" role="graphics-symbol" aria-roledescription="tick" d="M202.45,105.42857142857143h0.1v12h-0.1Z" fill="#4c78a8" stroke="#4269d0" opacity="0.7"/><path aria-label="Age: 76; country: United States" role="graphics-symbol" aria-roledescription="tick" d="M205.14999999999998,105.42857142857143h0.1v12h-0.1Z" fill="#4c78a8" stroke="#4269d0" opacity="0.7"/><path aria-label="Age: 77; country: United States" role="graphics-symbol" aria-roledescription="tick" d="M207.85,105.42857142857143h0.1v12h-0.1Z" fill="#4c78a8" stroke="#4269d0" opacity="0.7"/><path aria-label="Age: 78; country: United States" role="graphics-symbol" aria-roledescription="tick" d="M210.54999999999998,105.42857142857143h0.1v12h-0.1Z" fill="#4c78a8" stroke="#4269d0" opacity="0.7"/><path aria-label="Age: 79; country: United States" role="graphics-symbol" aria-roledescription="tick" d="M213.25,105.42857142857143h0.1v12h-0.1Z" fill="#4c78a8" stroke="#4269d0" opacity="0.7"/><path aria-label="Age: 80; country: United States" role="graphics-symbol" aria-roledescription="tick" d="M215.95,105.42857142857143h0.1v12h-0.1Z" fill="#4c78a8" stroke="#4269d0" opacity="0.7"/><path aria-label="Age: 81; country: United States" role="graphics-symbol" aria-roledescription="tick" d="M218.65,105.42857142857143h0.1v12h-0.1Z" fill="#4c78a8" stroke="#4269d0" opacity="0.7"/><path aria-label="Age: 82; country: United States" role="graphics-symbol" aria-roledescription="tick" d="M221.34999999999997,105.42857142857143h0.1v12h-0.1Z" fill="#4c78a8" stroke="#4269d0" opacity="0.7"/><path aria-label="Age: 83; country: United States" role="graphics-symbol" aria-roledescription="tick" d="M224.04999999999998,105.42857142857143h0.1v12h-0.1Z" fill="#4c78a8" stroke="#4269d0" opacity="0.7"/><path aria-label="Age: 84; country: United States" role="graphics-symbol" aria-roledescription="tick" d="M226.74999999999997,105.42857142857143h0.1v12h-0.1Z" fill="#4c78a8" stroke="#4269d0" opacity="0.7"/><path aria-label="Age: 85; country: United States" role="graphics-symbol" aria-roledescription="tick" d="M229.45,105.42857142857143h0.1v12h-0.1Z" fill="#4c78a8" stroke="#4269d0" opacity="0.7"/><path aria-label="Age: 86; country: United States" role="graphics-symbol" aria-roledescription="tick" d="M232.14999999999998,105.42857142857143h0.1v12h-0.1Z" fill="#4c78a8" stroke="#4269d0" opacity="0.7"/><path aria-label="Age: 87; country: United States" role="graphics-symbol" aria-roledescription="tick" d="M234.85,105.42857142857143h0.1v12h-0.1Z" fill="#4c78a8" stroke="#4269d0" opacity="0.7"/><path aria-label="Age: 88; country: United States" role="graphics-symbol" aria-roledescription="tick" d="M237.54999999999998,105.42857142857143h0.1v12h-0.1Z" fill="#4c78a8" stroke="#4269d0" opacity="0.7"/><path aria-label="Age: 89; country: United States" role="graphics-symbol" aria-roledescription="tick" d="M240.25,105.42857142857143h0.1v12h-0.1Z" fill="#4c78a8" stroke="#4269d0" opacity="0.7"/><path aria-label="Age: 90; country: United States" role="graphics-symbol" aria-roledescription="tick" d="M242.95,105.42857142857143h0.1v12h-0.1Z" fill="#4c78a8" stroke="#4269d0" opacity="0.7"/><path aria-label="Age: 91; country: United States" role="graphics-symbol" aria-roledescription="tick" d="M245.65,105.42857142857143h0.1v12h-0.1Z" fill="#4c78a8" stroke="#4269d0" opacity="0.7"/><path aria-label="Age: 92; country: United States" role="graphics-symbol" aria-roledescription="tick" d="M248.35,105.42857142857143h0.1v12h-0.1Z" fill="#4c78a8" stroke="#4269d0" opacity="0.7"/><path aria-label="Age: 93; country: United States" role="graphics-symbol" aria-roledescription="tick" d="M251.05,105.42857142857143h0.1v12h-0.1Z" fill="#4c78a8" stroke="#4269d0" opacity="0.7"/><path aria-label="Age: 94; country: United States" role="graphics-symbol" aria-roledescription="tick" d="M253.74999999999997,105.42857142857143h0.1v12h-0.1Z" fill="#4c78a8" stroke="#4269d0" opacity="0.7"/><path aria-label="Age: 95; country: United States" role="graphics-symbol" aria-roledescription="tick" d="M256.45,105.42857142857143h0.1v12h-0.1Z" fill="#4c78a8" stroke="#4269d0" opacity="0.7"/><path aria-label="Age: 96; country: United States" role="graphics-symbol" aria-roledescription="tick" d="M259.15,105.42857142857143h0.1v12h-0.1Z" fill="#4c78a8" stroke="#4269d0" opacity="0.7"/><path aria-label="Age: 97; country: United States" role="graphics-symbol" aria-roledescription="tick" d="M261.84999999999997,105.42857142857143h0.1v12h-0.1Z" fill="#4c78a8" stroke="#4269d0" opacity="0.7"/><path aria-label="Age: 98; country: United States" role="graphics-symbol" aria-roledescription="tick" d="M264.55,105.42857142857143h0.1v12h-0.1Z" fill="#4c78a8" stroke="#4269d0" opacity="0.7"/><path aria-label="Age: 99; country: United States" role="graphics-symbol" aria-roledescription="tick" d="M267.25,105.42857142857143h0.1v12h-0.1Z" fill="#4c78a8" stroke="#4269d0" opacity="0.7"/></g></g><path class="foreground" aria-hidden="true" d="" display="none"/></g></g></g></svg>