<svg height="900" width="1400" xmlns="http://www.w3.org/2000/svg">
<title>Your Diagram Title</title>
<!-- Generated with SankeyMATIC: 8/27/2024, 9:10:14 PM -->
<g transform="translate(382.44484,0)">
<g id="sankey_flows">
<path id="flow20" d="M233.81664 408.61121v168.535L443.63328 576.02341v-168.535z" fill="#ffca00" stroke-width="0.5" stroke="#ffca00" opacity="0.45"><title>CSAM → Violation of US Law: 37.000</title></path>
<path id="flow26" d="M455.63328 475.81341C518.57827 475.81341 602.50493 439.90288 665.44992 439.90288" fill="none" stroke-width="136.65" stroke="#ffca00" opacity="0.45"><title>Violation of US Law → Reported to NCMEC: 30.000</title></path>
<path id="flow21" d="M233.81664 577.14621v122.985L443.63328 699.00841v-122.985z" fill="#069335" stroke-width="0.5" stroke="#069335" opacity="0.45"><title>CSAM → Violation of US Law: 27.000</title></path>
<path id="flow28" d="M455.63328 626.12841C518.57827 626.12841 602.50493 558.33288 665.44992 558.33288" fill="none" stroke-width="100.21" stroke="#069335" opacity="0.45"><title>Violation of US Law → Reported to NCMEC: 22.000</title></path>
<path id="flow18" d="M233.81664 244.63121v81.99L443.63328 325.49841v-81.99z" fill="#d6402c" stroke-width="0.5" stroke="#d6402c" opacity="0.45"><title>CSAM → Violation of US Law: 18.000</title></path>
<path id="flow19" d="M233.81664 326.62121v81.99L443.63328 407.48841v-81.99z" fill="#fe8c02" stroke-width="0.5" stroke="#fe8c02" opacity="0.45"><title>CSAM → Violation of US Law: 18.000</title></path>
<path id="flow30" d="M455.63328 766.22891C518.57827 766.22891 602.50493 649.43288 665.44992 649.43288" fill="none" stroke-width="81.99" stroke="#3078ea" opacity="0.45"><title>Incidental False Positive → Reported to NCMEC: 18.000</title></path>
<path id="flow36" d="M677.44992 405.74038C740.39491 405.74038 824.32157 326.9762 887.26656 326.9762" fill="none" stroke-width="68.325" stroke="#ffca00" opacity="0.45"><title>Reported to NCMEC → Actionable: 15.000</title></path>
<path id="flow37" d="M677.44992 474.06538C740.39491 474.06538 824.32157 582.75548 887.26656 582.75548" fill="none" stroke-width="68.325" stroke="#ffca00" opacity="0.45"><title>Reported to NCMEC → Informational: 15.000</title></path>
<path id="flow22" d="M455.63328 239.89629v67.38211L665.44992 307.80788v-67.38211z" fill="#d6402c" stroke-width="0.5" stroke="#d6402c" opacity="0.45"><title>Violation of US Law → Reported to NCMEC: 14.793</title></path>
<path id="flow24" d="M455.63328 357.38341C518.57827 357.38341 602.50493 339.69288 665.44992 339.69288" fill="none" stroke-width="63.77" stroke="#fe8c02" opacity="0.45"><title>Violation of US Law → Reported to NCMEC: 14.000</title></path>
<path id="flow38" d="M677.44992 533.28038C740.39491 533.28038 824.32157 386.1912 887.26656 386.1912" fill="none" stroke-width="50.105" stroke="#069335" opacity="0.45"><title>Reported to NCMEC → Actionable: 11.000</title></path>
<path id="flow39" d="M677.44992 583.38538C740.39491 583.38538 824.32157 641.97048 887.26656 641.97048" fill="none" stroke-width="50.105" stroke="#069335" opacity="0.45"><title>Reported to NCMEC → Informational: 11.000</title></path>
<path id="flow12" d="M12 449.60621v45.55L221.81664 495.15621v-45.55z" fill="#ffca00" stroke-width="0.5" stroke="#ffca00" opacity="0.45"><title>Minors/adults shit-posting CSAM, i.e., as memes → CSAM: 10.000</title></path>
<path id="flow7" d="M12 134.00121C74.94499 134.00121 158.87165 265.12871 221.81664 265.12871" fill="none" stroke-width="40.995" stroke="#d6402c" opacity="0.45"><title>Adults producing CSAM → CSAM: 9.000</title></path>
<path id="flow8" d="M12 201.22171C74.94499 201.22171 158.87165 306.12371 221.81664 306.12371" fill="none" stroke-width="40.995" stroke="#d6402c" opacity="0.45"><title>Adults distributing/accessing CSAM → CSAM: 9.000</title></path>
<path id="flow9" d="M12 268.44221C74.94499 268.44221 158.87165 347.11871 221.81664 347.11871" fill="none" stroke-width="40.995" stroke="#fe8c02" opacity="0.45"><title>Minors selling self-produced sexual content → CSAM: 9.000</title></path>
<path id="flow10" d="M12 335.66271C74.94499 335.66271 158.87165 388.11371 221.81664 388.11371" fill="none" stroke-width="40.995" stroke="#fe8c02" opacity="0.45"><title>Adults producing/distributing/accessing virtual CSAM incl. animation → CSAM: 9.000</title></path>
<path id="flow11" d="M12 402.88321C74.94499 402.88321 158.87165 429.10871 221.81664 429.10871" fill="none" stroke-width="40.995" stroke="#ffca00" opacity="0.45"><title>Adults distributing/accessing porn collections containing occasional CSAM → CSAM: 9.000</title></path>
<path id="flow13" d="M12 541.87921C74.94499 541.87921 158.87165 515.65371 221.81664 515.65371" fill="none" stroke-width="40.995" stroke="#ffca00" opacity="0.45"><title>Adults posting CSAM to alert other adults or recruit them for “community policing" → CSAM: 9.000</title></path>
<path id="flow14" d="M12 609.09971C74.94499 609.09971 158.87165 556.64871 221.81664 556.64871" fill="none" stroke-width="40.995" stroke="#ffca00" opacity="0.45"><title>Teenagers exchanging sexual photos/videos involving other teenagers without consent → CSAM: 9.000</title></path>
<path id="flow15" d="M12 676.32021C74.94499 676.32021 158.87165 597.64371 221.81664 597.64371" fill="none" stroke-width="40.995" stroke="#069335" opacity="0.45"><title>Teenagers exchanging sexual photos/videos of themselves with consent → CSAM: 9.000</title></path>
<path id="flow16" d="M12 743.54071C74.94499 743.54071 158.87165 638.63871 221.81664 638.63871" fill="none" stroke-width="40.995" stroke="#069335" opacity="0.45"><title>Adults owning sexual photos/videos of minors above age of consent, taken with consent → CSAM: 9.000</title></path>
<path id="flow17" d="M12 810.76121C74.94499 810.76121 158.87165 679.63371 221.81664 679.63371" fill="none" stroke-width="40.995" stroke="#069335" opacity="0.45"><title>Adults, e.g., parents or teachers, documenting CSAM sent to minors in their care → CSAM: 9.000</title></path>
<path id="flow40" d="M677.44992 628.93538C740.39491 628.93538 824.32157 431.7412 887.26656 431.7412" fill="none" stroke-width="40.995" stroke="#3078ea" opacity="0.45"><title>Reported to NCMEC → Actionable: 9.000</title></path>
<path id="flow41" d="M677.44992 669.93038C740.39491 669.93038 824.32157 687.52048 887.26656 687.52048" fill="none" stroke-width="40.995" stroke="#3078ea" opacity="0.45"><title>Reported to NCMEC → Informational: 9.000</title></path>
<path id="flow32" d="M677.44992 257.27243C740.39491 257.27243 824.32157 244.08203 887.26656 244.08203" fill="none" stroke-width="33.69333" stroke="#d6402c" opacity="0.45"><title>Reported to NCMEC → Actionable: 7.397</title></path>
<path id="flow33" d="M677.44992 290.96349C740.39491 290.96349 824.32157 499.86359 887.26656 499.86359" fill="none" stroke-width="33.68878" stroke="#d6402c" opacity="0.45"><title>Reported to NCMEC → Informational: 7.396</title></path>
<path id="flow27" d="M455.63328 560.08091C518.57827 560.08091 602.50493 778.14588 665.44992 778.14588" fill="none" stroke-width="31.885" stroke="#ffca00" opacity="0.45"><title>Violation of US Law → False Negative: 7.000</title></path>
<path id="flow34" d="M677.44992 323.75038C740.39491 323.75038 824.32157 276.8712 887.26656 276.8712" fill="none" stroke-width="31.885" stroke="#fe8c02" opacity="0.45"><title>Reported to NCMEC → Actionable: 7.000</title></path>
<path id="flow35" d="M677.44992 355.63538C740.39491 355.63538 824.32157 532.65048 887.26656 532.65048" fill="none" stroke-width="31.885" stroke="#fe8c02" opacity="0.45"><title>Reported to NCMEC → Informational: 7.000</title></path>
<path id="flow29" d="M455.63328 687.62091C518.57827 687.62091 602.50493 805.47588 665.44992 805.47588" fill="none" stroke-width="22.775" stroke="#069335" opacity="0.45"><title>Violation of US Law → False Negative: 5.000</title></path>
<path id="flow23" d="M455.63328 316.38841C518.57827 316.38841 602.50493 734.87338 665.44992 734.87338" fill="none" stroke-width="18.22" stroke="#d6402c" opacity="0.45"><title>Violation of US Law → False Negative: 4.000</title></path>
<path id="flow25" d="M455.63328 398.37841C518.57827 398.37841 602.50493 753.09338 665.44992 753.09338" fill="none" stroke-width="18.22" stroke="#fe8c02" opacity="0.45"><title>Violation of US Law → False Negative: 4.000</title></path>
<path id="flow31" d="M455.63328 838.00441C518.57827 838.00441 602.50493 694.98288 665.44992 694.98288" fill="none" stroke-width="9.11" stroke="#750787" opacity="0.45"><title>Adversarial False Positive → Reported to NCMEC: 2.000</title></path>
<path id="flow42" d="M677.44992 692.70538C740.39491 692.70538 824.32157 454.5162 887.26656 454.5162" fill="none" stroke-width="4.555" stroke="#750787" opacity="0.45"><title>Reported to NCMEC → Actionable: 1.000</title></path>
<path id="flow43" d="M677.44992 697.26038C740.39491 697.26038 824.32157 710.29548 887.26656 710.29548" fill="none" stroke-width="4.555" stroke="#750787" opacity="0.45"><title>Reported to NCMEC → Informational: 1.000</title></path>
<path id="flow0" d="M358.03396 58.62489C383.71376 58.62489 417.95348 241.08059 443.63328 241.08059" fill="none" stroke-width="2.3686" stroke="#d6402c" opacity="0.45"><title>Online enticement of children → Violation of US Law: 0.520</title></path>
<path id="flow1" d="M358.03396 86.32393C383.71376 86.32393 417.95348 242.55414 443.63328 242.55414" fill="none" stroke-width="1" stroke="#d6402c" opacity="0.45"><title>Obscene material sent to a child → Violation of US Law: 0.127</title></path>
<path id="flow2" d="M358.03396 112.95255C383.71376 112.95255 417.95348 242.95725 443.63328 242.95725" fill="none" stroke-width="1" stroke="#d6402c" opacity="0.45"><title>Child sexual molestation → Violation of US Law: 0.050</title></path>
<path id="flow3" d="M358.03396 139.40125C383.71376 139.40125 417.95348 243.18045 443.63328 243.18045" fill="none" stroke-width="1" stroke="#d6402c" opacity="0.45"><title>Child sex trafficking → Violation of US Law: 0.048</title></path>
<path id="flow4" d="M358.03396 165.78845C383.71376 165.78845 417.95348 243.34215 443.63328 243.34215" fill="none" stroke-width="1" stroke="#d6402c" opacity="0.45"><title>Misleading words/images online → Violation of US Law: 0.023</title></path>
<path id="flow5" d="M358.03396 192.1096C383.71376 192.1096 417.95348 243.43781 443.63328 243.43781" fill="none" stroke-width="1" stroke="#d6402c" opacity="0.45"><title>Misleading domain name → Violation of US Law: 0.019</title></path>
<path id="flow6" d="M358.03396 218.39204C383.71376 218.39204 417.95348 243.49474 443.63328 243.49474" fill="none" stroke-width="1" stroke="#d6402c" opacity="0.45"><title>Child sex tourism → Violation of US Law: 0.006</title></path>
</g>
<g id="sankey_nodes">
<g class="node">
<rect id="r0" class="for_r0" x="221.81664" y="57.44059" height="2.3686" width="12" fill="#888888" fill-opacity="1" transform="translate(124.21732,0)"><title>Online enticement of children:
0.520</title></rect>
</g>
<g class="node">
<rect id="r1" class="for_r1" x="443.63328" y="239.89629" height="459.11212" width="12" fill="#888888" fill-opacity="1"><title>Violation of US Law:
100.793</title></rect>
</g>
<g class="node">
<rect id="r2" class="for_r2" x="221.81664" y="86.03469" height="0.57849" width="12" fill="#888888" fill-opacity="1" transform="translate(124.21732,0)"><title>Obscene material sent to a child:
0.127</title></rect>
</g>
<g class="node">
<rect id="r3" class="for_r3" x="221.81664" y="112.83868" height="0.22775" width="12" fill="#888888" fill-opacity="1" transform="translate(124.21732,0)"><title>Child sexual molestation:
0.050</title></rect>
</g>
<g class="node">
<rect id="r4" class="for_r4" x="221.81664" y="139.29193" height="0.21864" width="12" fill="#888888" fill-opacity="1" transform="translate(124.21732,0)"><title>Child sex trafficking:
0.048</title></rect>
</g>
<g class="node">
<rect id="r5" class="for_r5" x="221.81664" y="165.73607" height="0.10476" width="12" fill="#888888" fill-opacity="1" transform="translate(124.21732,0)"><title>Misleading words/images online:
0.023</title></rect>
</g>
<g class="node">
<rect id="r6" class="for_r6" x="221.81664" y="192.06633" height="0.08654" width="12" fill="#888888" fill-opacity="1" transform="translate(124.21732,0)"><title>Misleading domain name:
0.019</title></rect>
</g>
<g class="node">
<rect id="r7" class="for_r7" x="221.81664" y="218.37838" height="0.02733" width="12" fill="#888888" fill-opacity="1" transform="translate(124.21732,0)"><title>Child sex tourism:
0.006</title></rect>
</g>
<g class="node">
<rect id="r8" class="for_r8" x="0" y="113.50371" height="40.995" width="12" fill="#888888" fill-opacity="1"><title>Adults producing CSAM:
9.000</title></rect>
</g>
<g class="node">
<rect id="r9" class="for_r9" x="221.81664" y="244.63121" height="455.5" width="12" fill="#888888" fill-opacity="1"><title>CSAM:
100.000</title></rect>
</g>
<g class="node">
<rect id="r10" class="for_r10" x="0" y="180.72421" height="40.995" width="12" fill="#888888" fill-opacity="1"><title>Adults distributing/accessing CSAM:
9.000</title></rect>
</g>
<g class="node">
<rect id="r11" class="for_r11" x="0" y="247.94471" height="40.995" width="12" fill="#888888" fill-opacity="1"><title>Minors selling self-produced sexual content:
9.000</title></rect>
</g>
<g class="node">
<rect id="r12" class="for_r12" x="0" y="315.16521" height="40.995" width="12" fill="#888888" fill-opacity="1"><title>Adults producing/distributing/accessing virtual CSAM incl. animation:
9.000</title></rect>
</g>
<g class="node">
<rect id="r13" class="for_r13" x="0" y="382.38571" height="40.995" width="12" fill="#888888" fill-opacity="1"><title>Adults distributing/accessing porn collections containing occasional CSAM:
9.000</title></rect>
</g>
<g class="node">
<rect id="r14" class="for_r14" x="0" y="449.60621" height="45.55" width="12" fill="#888888" fill-opacity="1"><title>Minors/adults shit-posting CSAM, i.e., as memes:
10.000</title></rect>
</g>
<g class="node">
<rect id="r15" class="for_r15" x="0" y="521.38171" height="40.995" width="12" fill="#888888" fill-opacity="1"><title>Adults posting CSAM to alert other adults or recruit them for “community policing":
9.000</title></rect>
</g>
<g class="node">
<rect id="r16" class="for_r16" x="0" y="588.60221" height="40.995" width="12" fill="#888888" fill-opacity="1"><title>Teenagers exchanging sexual photos/videos involving other teenagers without consent:
9.000</title></rect>
</g>
<g class="node">
<rect id="r17" class="for_r17" x="0" y="655.82271" height="40.995" width="12" fill="#888888" fill-opacity="1"><title>Teenagers exchanging sexual photos/videos of themselves with consent:
9.000</title></rect>
</g>
<g class="node">
<rect id="r18" class="for_r18" x="0" y="723.04321" height="40.995" width="12" fill="#069335" fill-opacity="1"><title>Adults owning sexual photos/videos of minors above age of consent, taken with consent:
9.000</title></rect>
</g>
<g class="node">
<rect id="r19" class="for_r19" x="0" y="790.26371" height="40.995" width="12" fill="#888888" fill-opacity="1"><title>Adults, e.g., parents or teachers, documenting CSAM sent to minors in their care:
9.000</title></rect>
</g>
<g class="node">
<rect id="r20" class="for_r20" x="665.44992" y="240.42576" height="459.11212" width="12" fill="#888888" fill-opacity="1"><title>Reported to NCMEC:
100.793</title></rect>
</g>
<g class="node">
<rect id="r21" class="for_r21" x="665.44992" y="725.76338" height="91.1" width="12" fill="#888888" fill-opacity="1"><title>False Negative:
20.000</title></rect>
</g>
<g class="node">
<rect id="r22" class="for_r22" x="443.63328" y="725.23391" height="81.99" width="12" fill="#888888" fill-opacity="1"><title>Incidental False Positive:
18.000</title></rect>
</g>
<g class="node">
<rect id="r23" class="for_r23" x="443.63328" y="833.44941" height="9.11" width="12" fill="#888888" fill-opacity="1"><title>Adversarial False Positive:
2.000</title></rect>
</g>
<g class="node">
<rect id="r24" class="for_r24" x="887.26656" y="227.23536" height="229.55833" width="12" fill="#888888" fill-opacity="1"><title>Actionable:
50.397</title></rect>
</g>
<g class="node">
<rect id="r25" class="for_r25" x="887.26656" y="483.0192" height="229.55378" width="12" fill="#888888" fill-opacity="1"><title>Informational:
50.396</title></rect>
</g>
</g>
<g id="sankey_labels" font-family="sans-serif" font-size="20px" fill="#000000">
<rect id="label0_bg" class="for_r0" x="-25.54438" y="45.20313" width="245.3225" height="26.51563" rx="5" fill="#fff" fill-opacity="0.85" stroke="none" stroke-width="0" stroke-opacity="0" transform="translate(124.21732,0)"></rect>
<text id="label0" class="for_r0" text-anchor="end" x="213.9318" y="58.62489" font-weight="400" font-size="18px" dy="5.94953" transform="translate(124.21732,0)">Online enticement of children</text>
<rect id="label1_bg" class="for_r1" x="365.2375" y="456.03125" width="169.29125" height="26.51563" rx="5" fill="#fff" fill-opacity="0.85" stroke="none" stroke-width="0" stroke-opacity="0"></rect>
<text id="label1" class="for_r1" text-anchor="middle" x="449.63328" y="469.45235" font-weight="400" font-size="18px" dy="5.94953">Violation of US Law</text>
<rect id="label2_bg" class="for_r2" x="-49.54438" y="72.90625" width="269.3225" height="26.51563" rx="5" fill="#fff" fill-opacity="0.85" stroke="none" stroke-width="0" stroke-opacity="0" transform="translate(124.21732,0)"></rect>
<text id="label2" class="for_r2" text-anchor="end" x="213.9318" y="86.32393" font-weight="400" font-size="18px" dy="5.94953" transform="translate(124.21732,0)">Obscene material sent to a child</text>
<rect id="label3_bg" class="for_r3" x="12.48687" y="99.53125" width="207.29125" height="26.51563" rx="5" fill="#fff" fill-opacity="0.85" stroke="none" stroke-width="0" stroke-opacity="0" transform="translate(124.21732,0)"></rect>
<text id="label3" class="for_r3" text-anchor="end" x="213.9318" y="112.95255" font-weight="400" font-size="18px" dy="5.94953" transform="translate(124.21732,0)">Child sexual molestation</text>
<rect id="label4_bg" class="for_r4" x="51.51812" y="125.98438" width="168.26" height="26.51563" rx="5" fill="#fff" fill-opacity="0.85" stroke="none" stroke-width="0" stroke-opacity="0" transform="translate(124.21732,0)"></rect>
<text id="label4" class="for_r4" text-anchor="end" x="213.9318" y="139.40125" font-weight="400" font-size="18px" dy="5.94953" transform="translate(124.21732,0)">Child sex trafficking</text>
<rect id="label5_bg" class="for_r5" x="-47.54438" y="152.375" width="267.3225" height="26.51563" rx="5" fill="#fff" fill-opacity="0.85" stroke="none" stroke-width="0" stroke-opacity="0" transform="translate(124.21732,0)"></rect>
<text id="label5" class="for_r5" text-anchor="end" x="213.9318" y="165.78845" font-weight="400" font-size="18px" dy="5.94953" transform="translate(124.21732,0)">Misleading words/images online</text>
<rect id="label6_bg" class="for_r6" x="7.47125" y="178.6875" width="212.30687" height="26.51563" rx="5" fill="#fff" fill-opacity="0.85" stroke="none" stroke-width="0" stroke-opacity="0" transform="translate(124.21732,0)"></rect>
<text id="label6" class="for_r6" text-anchor="end" x="213.9318" y="192.1096" font-weight="400" font-size="18px" dy="5.94953" transform="translate(124.21732,0)">Misleading domain name</text>
<rect id="label7_bg" class="for_r7" x="69.54937" y="204.96875" width="150.22875" height="26.51563" rx="5" fill="#fff" fill-opacity="0.85" stroke="none" stroke-width="0" stroke-opacity="0" transform="translate(124.21732,0)"></rect>
<text id="label7" class="for_r7" text-anchor="end" x="213.9318" y="218.39204" font-weight="400" font-size="18px" dy="5.94953" transform="translate(124.21732,0)">Child sex tourism</text>
<rect id="label8_bg" class="for_r8" x="-205.32563" y="120.57813" width="203.29125" height="26.51563" rx="5" fill="#fff" fill-opacity="0.85" stroke="none" stroke-width="0" stroke-opacity="0"></rect>
<text id="label8" class="for_r8" text-anchor="end" x="-7.88484" y="134.00121" font-weight="400" font-size="18px" dy="5.94953">Adults producing CSAM</text>
<rect id="label9_bg" class="for_r9" x="195.97188" y="458.96875" width="64.1975" height="26.51563" rx="5" fill="#fff" fill-opacity="0.85" stroke="none" stroke-width="0" stroke-opacity="0"></rect>
<text id="label9" class="for_r9" text-anchor="middle" x="227.81664" y="472.38121" font-weight="400" font-size="18px" dy="5.94953">CSAM</text>
<rect id="label10_bg" class="for_r10" x="-298.35688" y="187.79688" width="296.3225" height="26.51563" rx="5" fill="#fff" fill-opacity="0.85" stroke="none" stroke-width="0" stroke-opacity="0"></rect>
<text id="label10" class="for_r10" text-anchor="end" x="-7.88484" y="201.22171" font-weight="400" font-size="18px" dy="5.94953">Adults distributing/accessing CSAM</text>
<rect id="label11_bg" class="for_r11" x="-359.41938" y="255.03125" width="357.385" height="26.51563" rx="5" fill="#fff" fill-opacity="0.85" stroke="none" stroke-width="0" stroke-opacity="0"></rect>
<text id="label11" class="for_r11" text-anchor="end" x="-7.88484" y="268.44221" font-weight="400" font-size="18px" dy="5.94953">Minors selling self-produced sexual content</text>
<rect id="label12_bg" class="for_r12" x="-325.40375" y="311.89063" width="323.36937" height="47.21875" rx="5" fill="#fff" fill-opacity="0.85" stroke="none" stroke-width="0" stroke-opacity="0"></rect>
<text id="label12" class="for_r12" text-anchor="end" x="-7.88484" y="335.66271" font-weight="400" font-size="18px" dy="-4.40203">Adults producing/distributing/accessing<tspan x="-7.88484" dy="20.7" font-weight="400" font-size="18px">virtual CSAM incl. animation</tspan></text>
<rect id="label13_bg" class="for_r13" x="-371.41938" y="379.10938" width="369.385" height="47.21875" rx="5" fill="#fff" fill-opacity="0.85" stroke="none" stroke-width="0" stroke-opacity="0"></rect>
<text id="label13" class="for_r13" text-anchor="end" x="-7.88484" y="402.88321" font-weight="400" font-size="18px" dy="-4.40203">Adults distributing/accessing porn collections<tspan x="-7.88484" dy="20.7" font-weight="400" font-size="18px">containing occasional CSAM</tspan></text>
<rect id="label14_bg" class="for_r14" x="-280.32563" y="448.60938" width="278.29125" height="47.21875" rx="5" fill="#fff" fill-opacity="0.85" stroke="none" stroke-width="0" stroke-opacity="0"></rect>
<text id="label14" class="for_r14" text-anchor="end" x="-7.88484" y="472.38121" font-weight="400" font-size="18px" dy="-4.40203">Minors/adults shit-posting CSAM,<tspan x="-7.88484" dy="20.7" font-weight="400" font-size="18px">i.e., as memes</tspan></text>
<rect id="label15_bg" class="for_r15" x="-343.40375" y="518.10938" width="341.36937" height="47.21875" rx="5" fill="#fff" fill-opacity="0.85" stroke="none" stroke-width="0" stroke-opacity="0"></rect>
<text id="label15" class="for_r15" text-anchor="end" x="-7.88484" y="541.87921" font-weight="400" font-size="18px" dy="-4.40203">Adults posting CSAM to alert other adults<tspan x="-7.88484" dy="20.7" font-weight="400" font-size="18px">or recruit them for “community policing"</tspan></text>
<rect id="label16_bg" class="for_r16" x="-370.46625" y="585.32813" width="368.43187" height="47.21875" rx="5" fill="#fff" fill-opacity="0.85" stroke="none" stroke-width="0" stroke-opacity="0"></rect>
<text id="label16" class="for_r16" text-anchor="end" x="-7.88484" y="609.09971" font-weight="400" font-size="18px" dy="-4.40203">Teenagers exchanging sexual photos/videos<tspan x="-7.88484" dy="20.7" font-weight="400" font-size="18px">involving other teenagers without consent</tspan></text>
<rect id="label17_bg" class="for_r17" x="-370.46625" y="652.54688" width="368.43187" height="47.21875" rx="5" fill="#fff" fill-opacity="0.85" stroke="none" stroke-width="0" stroke-opacity="0"></rect>
<text id="label17" class="for_r17" text-anchor="end" x="-7.88484" y="676.32021" font-weight="400" font-size="18px" dy="-4.40203">Teenagers exchanging sexual photos/videos<tspan x="-7.88484" dy="20.7" font-weight="400" font-size="18px">of themselves with consent</tspan></text>
<rect id="label18_bg" class="for_r18" x="-378.435" y="719.76563" width="376.40062" height="47.21875" rx="5" fill="#fff" fill-opacity="0.85" stroke="none" stroke-width="0" stroke-opacity="0"></rect>
<text id="label18" class="for_r18" text-anchor="end" x="-7.88484" y="743.54071" font-weight="400" font-size="18px" dy="-4.40203">Adults owning sexual photos/videos of minors<tspan x="-7.88484" dy="20.7" font-weight="400" font-size="18px">above age of consent, taken with consent</tspan></text>
<rect id="label19_bg" class="for_r19" x="-382.45063" y="786.98438" width="380.41625" height="47.21875" rx="5" fill="#fff" fill-opacity="0.85" stroke="none" stroke-width="0" stroke-opacity="0"></rect>
<text id="label19" class="for_r19" text-anchor="end" x="-7.88484" y="810.76121" font-weight="400" font-size="18px" dy="-4.40203">Adults, e.g., parents or teachers, documenting<tspan x="-7.88484" dy="20.7" font-weight="400" font-size="18px">CSAM sent to minors in their care</tspan></text>
<rect id="label20_bg" class="for_r20" x="618.56562" y="446.21875" width="106.26" height="47.20313" rx="5" fill="#fff" fill-opacity="0.85" stroke="none" stroke-width="0" stroke-opacity="0"></rect>
<text id="label20" class="for_r20" text-anchor="middle" x="671.44992" y="469.98182" font-weight="400" font-size="18px" dy="-4.40203">Reported to<tspan x="671.44992" dy="20.7" font-weight="400" font-size="18px">NCMEC</tspan></text>
<rect id="label21_bg" class="for_r21" x="679.4875" y="757.89063" width="132.26" height="26.51563" rx="5" fill="#fff" fill-opacity="0.85" stroke="none" stroke-width="0" stroke-opacity="0"></rect>
<text id="label21" class="for_r21" text-anchor="start" x="685.33477" y="771.31338" font-weight="400" font-size="18px" dy="5.94953">False Negative</text>
<rect id="label22_bg" class="for_r22" x="235.29937" y="752.8125" width="206.29125" height="26.51563" rx="5" fill="#fff" fill-opacity="0.85" stroke="none" stroke-width="0" stroke-opacity="0"></rect>
<text id="label22" class="for_r22" text-anchor="end" x="435.74844" y="766.22891" font-weight="400" font-size="18px" dy="5.94953">Incidental False Positive</text>
<rect id="label23_bg" class="for_r23" x="222.315" y="824.57813" width="219.27562" height="26.51563" rx="5" fill="#fff" fill-opacity="0.85" stroke="none" stroke-width="0" stroke-opacity="0"></rect>
<text id="label23" class="for_r23" text-anchor="end" x="435.74844" y="838.00441" font-weight="400" font-size="18px" dy="5.94953">Adversarial False Positive</text>
<rect id="label24_bg" class="for_r24" x="901.3" y="328.59375" width="96.26" height="26.51563" rx="5" fill="#fff" fill-opacity="0.85" stroke="none" stroke-width="0" stroke-opacity="0"></rect>
<text id="label24" class="for_r24" text-anchor="start" x="907.15141" y="342.01453" font-weight="400" font-size="18px" dy="5.94953">Actionable</text>
<rect id="label25_bg" class="for_r25" x="901.3" y="584.375" width="116.26" height="26.51563" rx="5" fill="#fff" fill-opacity="0.85" stroke="none" stroke-width="0" stroke-opacity="0"></rect>
<text id="label25" class="for_r25" text-anchor="start" x="907.15141" y="597.79609" font-weight="400" font-size="18px" dy="5.94953">Informational</text>
</g>
</g></svg>