<?xml version="1.0" encoding="utf-8" standalone="no"?>
<!DOCTYPE svg PUBLIC "-//W3C//DTD SVG 1.1//EN"
  "http://www.w3.org/Graphics/SVG/1.1/DTD/svg11.dtd">
<svg xmlns:xlink="http://www.w3.org/1999/xlink" width="576pt" height="345.6pt" viewBox="0 0 576 345.6" xmlns="http://www.w3.org/2000/svg" version="1.1">
 <metadata>
  <rdf:RDF xmlns:dc="http://purl.org/dc/elements/1.1/" xmlns:cc="http://creativecommons.org/ns#" xmlns:rdf="http://www.w3.org/1999/02/22-rdf-syntax-ns#">
   <cc:Work>
    <dc:type rdf:resource="http://purl.org/dc/dcmitype/StillImage"/>
    <dc:date>2024-04-28T22:01:43.328043</dc:date>
    <dc:format>image/svg+xml</dc:format>
    <dc:creator>
     <cc:Agent>
      <dc:title>Matplotlib v3.7.2, https://matplotlib.org/</dc:title>
     </cc:Agent>
    </dc:creator>
   </cc:Work>
  </rdf:RDF>
 </metadata>
 <defs>
  <style type="text/css">*{stroke-linejoin: round; stroke-linecap: butt}</style>
 </defs>
 <g id="figure_1">
  <g id="patch_1">
   <path d="M 0 345.6 
L 576 345.6 
L 576 0 
L 0 0 
z
" style="fill: #ffffff"/>
  </g>
  <g id="axes_1">
   <g id="patch_2">
    <path d="M 44.57 291.976 
L 371.048571 291.976 
L 371.048571 10.8 
L 44.57 10.8 
z
" style="fill: #ffffff"/>
   </g>
   <g id="matplotlib.axis_1">
    <g id="xtick_1">
     <g id="line2d_1">
      <defs>
       <path id="m9d0c19762b" d="M 0 0 
L 0 3.5 
" style="stroke: #000000; stroke-width: 0.8"/>
      </defs>
      <g>
       <use xlink:href="#m9d0c19762b" x="51.989968" y="291.976" style="stroke: #000000; stroke-width: 0.8"/>
      </g>
     </g>
    </g>
    <g id="xtick_2">
     <g id="line2d_2">
      <g>
       <use xlink:href="#m9d0c19762b" x="66.829903" y="291.976" style="stroke: #000000; stroke-width: 0.8"/>
      </g>
     </g>
    </g>
    <g id="xtick_3">
     <g id="line2d_3">
      <g>
       <use xlink:href="#m9d0c19762b" x="81.669838" y="291.976" style="stroke: #000000; stroke-width: 0.8"/>
      </g>
     </g>
     <g id="text_1">
      <!-- Q1 -->
      <g transform="translate(74.55265 306.574437) scale(0.1 -0.1)">
       <defs>
        <path id="DejaVuSans-51" d="M 2522 4238 
Q 1834 4238 1429 3725 
Q 1025 3213 1025 2328 
Q 1025 1447 1429 934 
Q 1834 422 2522 422 
Q 3209 422 3611 934 
Q 4013 1447 4013 2328 
Q 4013 3213 3611 3725 
Q 3209 4238 2522 4238 
z
M 3406 84 
L 4238 -825 
L 3475 -825 
L 2784 -78 
Q 2681 -84 2626 -87 
Q 2572 -91 2522 -91 
Q 1538 -91 948 567 
Q 359 1225 359 2328 
Q 359 3434 948 4092 
Q 1538 4750 2522 4750 
Q 3503 4750 4090 4092 
Q 4678 3434 4678 2328 
Q 4678 1516 4351 937 
Q 4025 359 3406 84 
z
" transform="scale(0.015625)"/>
        <path id="DejaVuSans-31" d="M 794 531 
L 1825 531 
L 1825 4091 
L 703 3866 
L 703 4441 
L 1819 4666 
L 2450 4666 
L 2450 531 
L 3481 531 
L 3481 0 
L 794 0 
L 794 531 
z
" transform="scale(0.015625)"/>
       </defs>
       <use xlink:href="#DejaVuSans-51"/>
       <use xlink:href="#DejaVuSans-31" x="78.710938"/>
      </g>
      <!-- 2019 -->
      <g transform="translate(68.944838 317.77225) scale(0.1 -0.1)">
       <defs>
        <path id="DejaVuSans-32" d="M 1228 531 
L 3431 531 
L 3431 0 
L 469 0 
L 469 531 
Q 828 903 1448 1529 
Q 2069 2156 2228 2338 
Q 2531 2678 2651 2914 
Q 2772 3150 2772 3378 
Q 2772 3750 2511 3984 
Q 2250 4219 1831 4219 
Q 1534 4219 1204 4116 
Q 875 4013 500 3803 
L 500 4441 
Q 881 4594 1212 4672 
Q 1544 4750 1819 4750 
Q 2544 4750 2975 4387 
Q 3406 4025 3406 3419 
Q 3406 3131 3298 2873 
Q 3191 2616 2906 2266 
Q 2828 2175 2409 1742 
Q 1991 1309 1228 531 
z
" transform="scale(0.015625)"/>
        <path id="DejaVuSans-30" d="M 2034 4250 
Q 1547 4250 1301 3770 
Q 1056 3291 1056 2328 
Q 1056 1369 1301 889 
Q 1547 409 2034 409 
Q 2525 409 2770 889 
Q 3016 1369 3016 2328 
Q 3016 3291 2770 3770 
Q 2525 4250 2034 4250 
z
M 2034 4750 
Q 2819 4750 3233 4129 
Q 3647 3509 3647 2328 
Q 3647 1150 3233 529 
Q 2819 -91 2034 -91 
Q 1250 -91 836 529 
Q 422 1150 422 2328 
Q 422 3509 836 4129 
Q 1250 4750 2034 4750 
z
" transform="scale(0.015625)"/>
        <path id="DejaVuSans-39" d="M 703 97 
L 703 672 
Q 941 559 1184 500 
Q 1428 441 1663 441 
Q 2288 441 2617 861 
Q 2947 1281 2994 2138 
Q 2813 1869 2534 1725 
Q 2256 1581 1919 1581 
Q 1219 1581 811 2004 
Q 403 2428 403 3163 
Q 403 3881 828 4315 
Q 1253 4750 1959 4750 
Q 2769 4750 3195 4129 
Q 3622 3509 3622 2328 
Q 3622 1225 3098 567 
Q 2575 -91 1691 -91 
Q 1453 -91 1209 -44 
Q 966 3 703 97 
z
M 1959 2075 
Q 2384 2075 2632 2365 
Q 2881 2656 2881 3163 
Q 2881 3666 2632 3958 
Q 2384 4250 1959 4250 
Q 1534 4250 1286 3958 
Q 1038 3666 1038 3163 
Q 1038 2656 1286 2365 
Q 1534 2075 1959 2075 
z
" transform="scale(0.015625)"/>
       </defs>
       <use xlink:href="#DejaVuSans-32"/>
       <use xlink:href="#DejaVuSans-30" x="63.623047"/>
       <use xlink:href="#DejaVuSans-31" x="127.246094"/>
       <use xlink:href="#DejaVuSans-39" x="190.869141"/>
      </g>
     </g>
    </g>
    <g id="xtick_4">
     <g id="line2d_4">
      <g>
       <use xlink:href="#m9d0c19762b" x="96.509773" y="291.976" style="stroke: #000000; stroke-width: 0.8"/>
      </g>
     </g>
    </g>
    <g id="xtick_5">
     <g id="line2d_5">
      <g>
       <use xlink:href="#m9d0c19762b" x="111.349708" y="291.976" style="stroke: #000000; stroke-width: 0.8"/>
      </g>
     </g>
    </g>
    <g id="xtick_6">
     <g id="line2d_6">
      <g>
       <use xlink:href="#m9d0c19762b" x="126.189643" y="291.976" style="stroke: #000000; stroke-width: 0.8"/>
      </g>
     </g>
    </g>
    <g id="xtick_7">
     <g id="line2d_7">
      <g>
       <use xlink:href="#m9d0c19762b" x="141.029578" y="291.976" style="stroke: #000000; stroke-width: 0.8"/>
      </g>
     </g>
     <g id="text_2">
      <!-- Q1 -->
      <g transform="translate(133.91239 306.574437) scale(0.1 -0.1)">
       <use xlink:href="#DejaVuSans-51"/>
       <use xlink:href="#DejaVuSans-31" x="78.710938"/>
      </g>
      <!-- 2020 -->
      <g transform="translate(128.304578 317.77225) scale(0.1 -0.1)">
       <use xlink:href="#DejaVuSans-32"/>
       <use xlink:href="#DejaVuSans-30" x="63.623047"/>
       <use xlink:href="#DejaVuSans-32" x="127.246094"/>
       <use xlink:href="#DejaVuSans-30" x="190.869141"/>
      </g>
     </g>
    </g>
    <g id="xtick_8">
     <g id="line2d_8">
      <g>
       <use xlink:href="#m9d0c19762b" x="155.869513" y="291.976" style="stroke: #000000; stroke-width: 0.8"/>
      </g>
     </g>
    </g>
    <g id="xtick_9">
     <g id="line2d_9">
      <g>
       <use xlink:href="#m9d0c19762b" x="170.709448" y="291.976" style="stroke: #000000; stroke-width: 0.8"/>
      </g>
     </g>
    </g>
    <g id="xtick_10">
     <g id="line2d_10">
      <g>
       <use xlink:href="#m9d0c19762b" x="185.549383" y="291.976" style="stroke: #000000; stroke-width: 0.8"/>
      </g>
     </g>
    </g>
    <g id="xtick_11">
     <g id="line2d_11">
      <g>
       <use xlink:href="#m9d0c19762b" x="200.389318" y="291.976" style="stroke: #000000; stroke-width: 0.8"/>
      </g>
     </g>
     <g id="text_3">
      <!-- Q1 -->
      <g transform="translate(193.272131 306.574437) scale(0.1 -0.1)">
       <use xlink:href="#DejaVuSans-51"/>
       <use xlink:href="#DejaVuSans-31" x="78.710938"/>
      </g>
      <!-- 2021 -->
      <g transform="translate(187.664318 317.77225) scale(0.1 -0.1)">
       <use xlink:href="#DejaVuSans-32"/>
       <use xlink:href="#DejaVuSans-30" x="63.623047"/>
       <use xlink:href="#DejaVuSans-32" x="127.246094"/>
       <use xlink:href="#DejaVuSans-31" x="190.869141"/>
      </g>
     </g>
    </g>
    <g id="xtick_12">
     <g id="line2d_12">
      <g>
       <use xlink:href="#m9d0c19762b" x="215.229253" y="291.976" style="stroke: #000000; stroke-width: 0.8"/>
      </g>
     </g>
    </g>
    <g id="xtick_13">
     <g id="line2d_13">
      <g>
       <use xlink:href="#m9d0c19762b" x="230.069188" y="291.976" style="stroke: #000000; stroke-width: 0.8"/>
      </g>
     </g>
    </g>
    <g id="xtick_14">
     <g id="line2d_14">
      <g>
       <use xlink:href="#m9d0c19762b" x="244.909123" y="291.976" style="stroke: #000000; stroke-width: 0.8"/>
      </g>
     </g>
    </g>
    <g id="xtick_15">
     <g id="line2d_15">
      <g>
       <use xlink:href="#m9d0c19762b" x="259.749058" y="291.976" style="stroke: #000000; stroke-width: 0.8"/>
      </g>
     </g>
     <g id="text_4">
      <!-- Q1 -->
      <g transform="translate(252.631871 306.574437) scale(0.1 -0.1)">
       <use xlink:href="#DejaVuSans-51"/>
       <use xlink:href="#DejaVuSans-31" x="78.710938"/>
      </g>
      <!-- 2022 -->
      <g transform="translate(247.024058 317.77225) scale(0.1 -0.1)">
       <use xlink:href="#DejaVuSans-32"/>
       <use xlink:href="#DejaVuSans-30" x="63.623047"/>
       <use xlink:href="#DejaVuSans-32" x="127.246094"/>
       <use xlink:href="#DejaVuSans-32" x="190.869141"/>
      </g>
     </g>
    </g>
    <g id="xtick_16">
     <g id="line2d_16">
      <g>
       <use xlink:href="#m9d0c19762b" x="274.588994" y="291.976" style="stroke: #000000; stroke-width: 0.8"/>
      </g>
     </g>
    </g>
    <g id="xtick_17">
     <g id="line2d_17">
      <g>
       <use xlink:href="#m9d0c19762b" x="289.428929" y="291.976" style="stroke: #000000; stroke-width: 0.8"/>
      </g>
     </g>
    </g>
    <g id="xtick_18">
     <g id="line2d_18">
      <g>
       <use xlink:href="#m9d0c19762b" x="304.268864" y="291.976" style="stroke: #000000; stroke-width: 0.8"/>
      </g>
     </g>
    </g>
    <g id="xtick_19">
     <g id="line2d_19">
      <g>
       <use xlink:href="#m9d0c19762b" x="319.108799" y="291.976" style="stroke: #000000; stroke-width: 0.8"/>
      </g>
     </g>
     <g id="text_5">
      <!-- Q1 -->
      <g transform="translate(311.991611 306.574437) scale(0.1 -0.1)">
       <use xlink:href="#DejaVuSans-51"/>
       <use xlink:href="#DejaVuSans-31" x="78.710938"/>
      </g>
      <!-- 2023 -->
      <g transform="translate(306.383799 317.77225) scale(0.1 -0.1)">
       <defs>
        <path id="DejaVuSans-33" d="M 2597 2516 
Q 3050 2419 3304 2112 
Q 3559 1806 3559 1356 
Q 3559 666 3084 287 
Q 2609 -91 1734 -91 
Q 1441 -91 1130 -33 
Q 819 25 488 141 
L 488 750 
Q 750 597 1062 519 
Q 1375 441 1716 441 
Q 2309 441 2620 675 
Q 2931 909 2931 1356 
Q 2931 1769 2642 2001 
Q 2353 2234 1838 2234 
L 1294 2234 
L 1294 2753 
L 1863 2753 
Q 2328 2753 2575 2939 
Q 2822 3125 2822 3475 
Q 2822 3834 2567 4026 
Q 2313 4219 1838 4219 
Q 1578 4219 1281 4162 
Q 984 4106 628 3988 
L 628 4550 
Q 988 4650 1302 4700 
Q 1616 4750 1894 4750 
Q 2613 4750 3031 4423 
Q 3450 4097 3450 3541 
Q 3450 3153 3228 2886 
Q 3006 2619 2597 2516 
z
" transform="scale(0.015625)"/>
       </defs>
       <use xlink:href="#DejaVuSans-32"/>
       <use xlink:href="#DejaVuSans-30" x="63.623047"/>
       <use xlink:href="#DejaVuSans-32" x="127.246094"/>
       <use xlink:href="#DejaVuSans-33" x="190.869141"/>
      </g>
     </g>
    </g>
    <g id="xtick_20">
     <g id="line2d_20">
      <g>
       <use xlink:href="#m9d0c19762b" x="333.948734" y="291.976" style="stroke: #000000; stroke-width: 0.8"/>
      </g>
     </g>
    </g>
    <g id="xtick_21">
     <g id="line2d_21">
      <g>
       <use xlink:href="#m9d0c19762b" x="348.788669" y="291.976" style="stroke: #000000; stroke-width: 0.8"/>
      </g>
     </g>
    </g>
    <g id="xtick_22">
     <g id="line2d_22">
      <g>
       <use xlink:href="#m9d0c19762b" x="363.628604" y="291.976" style="stroke: #000000; stroke-width: 0.8"/>
      </g>
     </g>
    </g>
    <g id="text_6">
     <!-- Quarter -->
     <g transform="translate(188.492879 331.450375) scale(0.1 -0.1)">
      <defs>
       <path id="DejaVuSans-Oblique-51" d="M 2309 -84 
Q 2275 -88 2237 -89 
Q 2200 -91 2125 -91 
Q 1250 -91 756 411 
Q 263 913 263 1797 
Q 263 2319 452 2844 
Q 641 3369 978 3788 
Q 1369 4269 1858 4509 
Q 2347 4750 2938 4750 
Q 3794 4750 4287 4245 
Q 4781 3741 4781 2869 
Q 4781 1928 4265 1147 
Q 3750 366 2919 44 
L 3553 -825 
L 2847 -825 
L 2309 -84 
z
M 2919 4238 
Q 2400 4238 2003 3986 
Q 1606 3734 1313 3219 
Q 1125 2891 1026 2522 
Q 928 2153 928 1778 
Q 928 1128 1239 775 
Q 1550 422 2119 422 
Q 2631 422 3032 676 
Q 3434 931 3719 1434 
Q 3909 1772 4009 2142 
Q 4109 2513 4109 2881 
Q 4109 3528 3796 3883 
Q 3484 4238 2919 4238 
z
" transform="scale(0.015625)"/>
       <path id="DejaVuSans-Oblique-75" d="M 428 1388 
L 838 3500 
L 1416 3500 
L 1006 1409 
Q 975 1256 961 1147 
Q 947 1038 947 966 
Q 947 700 1109 554 
Q 1272 409 1569 409 
Q 2031 409 2368 721 
Q 2706 1034 2809 1563 
L 3194 3500 
L 3769 3500 
L 3091 0 
L 2516 0 
L 2631 550 
Q 2388 244 2052 76 
Q 1716 -91 1338 -91 
Q 878 -91 622 161 
Q 366 413 366 863 
Q 366 956 381 1097 
Q 397 1238 428 1388 
z
" transform="scale(0.015625)"/>
       <path id="DejaVuSans-Oblique-61" d="M 3438 1997 
L 3047 0 
L 2472 0 
L 2578 531 
Q 2325 219 2001 64 
Q 1678 -91 1281 -91 
Q 834 -91 548 182 
Q 263 456 263 884 
Q 263 1497 752 1853 
Q 1241 2209 2100 2209 
L 2900 2209 
L 2931 2363 
Q 2938 2388 2941 2417 
Q 2944 2447 2944 2509 
Q 2944 2788 2717 2942 
Q 2491 3097 2081 3097 
Q 1800 3097 1504 3025 
Q 1209 2953 897 2809 
L 997 3341 
Q 1322 3463 1633 3523 
Q 1944 3584 2234 3584 
Q 2853 3584 3176 3315 
Q 3500 3047 3500 2534 
Q 3500 2431 3484 2292 
Q 3469 2153 3438 1997 
z
M 2816 1759 
L 2241 1759 
Q 1534 1759 1195 1570 
Q 856 1381 856 984 
Q 856 709 1029 553 
Q 1203 397 1509 397 
Q 1978 397 2328 733 
Q 2678 1069 2791 1631 
L 2816 1759 
z
" transform="scale(0.015625)"/>
       <path id="DejaVuSans-Oblique-72" d="M 2853 2969 
Q 2766 3016 2653 3041 
Q 2541 3066 2413 3066 
Q 1953 3066 1609 2717 
Q 1266 2369 1153 1784 
L 800 0 
L 225 0 
L 909 3500 
L 1484 3500 
L 1375 2956 
Q 1603 3259 1920 3421 
Q 2238 3584 2597 3584 
Q 2691 3584 2781 3573 
Q 2872 3563 2963 3538 
L 2853 2969 
z
" transform="scale(0.015625)"/>
       <path id="DejaVuSans-Oblique-74" d="M 2706 3500 
L 2619 3053 
L 1472 3053 
L 1100 1153 
Q 1081 1047 1072 975 
Q 1063 903 1063 863 
Q 1063 663 1183 572 
Q 1303 481 1569 481 
L 2150 481 
L 2053 0 
L 1503 0 
Q 991 0 739 200 
Q 488 400 488 806 
Q 488 878 497 964 
Q 506 1050 525 1153 
L 897 3053 
L 409 3053 
L 500 3500 
L 978 3500 
L 1172 4494 
L 1747 4494 
L 1556 3500 
L 2706 3500 
z
" transform="scale(0.015625)"/>
       <path id="DejaVuSans-Oblique-65" d="M 3078 2063 
Q 3088 2113 3092 2166 
Q 3097 2219 3097 2272 
Q 3097 2653 2873 2875 
Q 2650 3097 2266 3097 
Q 1838 3097 1509 2826 
Q 1181 2556 1013 2059 
L 3078 2063 
z
M 3578 1613 
L 903 1613 
Q 884 1494 878 1425 
Q 872 1356 872 1306 
Q 872 872 1139 634 
Q 1406 397 1894 397 
Q 2269 397 2603 481 
Q 2938 566 3225 728 
L 3116 159 
Q 2806 34 2476 -28 
Q 2147 -91 1806 -91 
Q 1078 -91 686 257 
Q 294 606 294 1247 
Q 294 1794 489 2264 
Q 684 2734 1063 3103 
Q 1306 3334 1642 3459 
Q 1978 3584 2356 3584 
Q 2950 3584 3301 3228 
Q 3653 2872 3653 2272 
Q 3653 2128 3634 1964 
Q 3616 1800 3578 1613 
z
" transform="scale(0.015625)"/>
      </defs>
      <use xlink:href="#DejaVuSans-Oblique-51"/>
      <use xlink:href="#DejaVuSans-Oblique-75" x="78.710938"/>
      <use xlink:href="#DejaVuSans-Oblique-61" x="142.089844"/>
      <use xlink:href="#DejaVuSans-Oblique-72" x="203.369141"/>
      <use xlink:href="#DejaVuSans-Oblique-74" x="244.482422"/>
      <use xlink:href="#DejaVuSans-Oblique-65" x="283.691406"/>
      <use xlink:href="#DejaVuSans-Oblique-72" x="345.214844"/>
     </g>
    </g>
   </g>
   <g id="matplotlib.axis_2">
    <g id="ytick_1">
     <g id="line2d_23">
      <path d="M 44.57 291.976 
L 371.048571 291.976 
" clip-path="url(#p540c0f378d)" style="fill: none; stroke: #b0b0b0; stroke-width: 0.8; stroke-linecap: square"/>
     </g>
     <g id="line2d_24">
      <defs>
       <path id="m4ff92f22d4" d="M 0 0 
L -3.5 0 
" style="stroke: #000000; stroke-width: 0.8"/>
      </defs>
      <g>
       <use xlink:href="#m4ff92f22d4" x="44.57" y="291.976" style="stroke: #000000; stroke-width: 0.8"/>
      </g>
     </g>
     <g id="text_7">
      <!-- 0 -->
      <g transform="translate(31.2075 295.775219) scale(0.1 -0.1)">
       <use xlink:href="#DejaVuSans-30"/>
      </g>
     </g>
    </g>
    <g id="ytick_2">
     <g id="line2d_25">
      <path d="M 44.57 253.500904 
L 371.048571 253.500904 
" clip-path="url(#p540c0f378d)" style="fill: none; stroke: #b0b0b0; stroke-width: 0.8; stroke-linecap: square"/>
     </g>
     <g id="line2d_26">
      <g>
       <use xlink:href="#m4ff92f22d4" x="44.57" y="253.500904" style="stroke: #000000; stroke-width: 0.8"/>
      </g>
     </g>
     <g id="text_8">
      <!-- 5 -->
      <g transform="translate(31.2075 257.300123) scale(0.1 -0.1)">
       <defs>
        <path id="DejaVuSans-35" d="M 691 4666 
L 3169 4666 
L 3169 4134 
L 1269 4134 
L 1269 2991 
Q 1406 3038 1543 3061 
Q 1681 3084 1819 3084 
Q 2600 3084 3056 2656 
Q 3513 2228 3513 1497 
Q 3513 744 3044 326 
Q 2575 -91 1722 -91 
Q 1428 -91 1123 -41 
Q 819 9 494 109 
L 494 744 
Q 775 591 1075 516 
Q 1375 441 1709 441 
Q 2250 441 2565 725 
Q 2881 1009 2881 1497 
Q 2881 1984 2565 2268 
Q 2250 2553 1709 2553 
Q 1456 2553 1204 2497 
Q 953 2441 691 2322 
L 691 4666 
z
" transform="scale(0.015625)"/>
       </defs>
       <use xlink:href="#DejaVuSans-35"/>
      </g>
     </g>
    </g>
    <g id="ytick_3">
     <g id="line2d_27">
      <path d="M 44.57 215.025808 
L 371.048571 215.025808 
" clip-path="url(#p540c0f378d)" style="fill: none; stroke: #b0b0b0; stroke-width: 0.8; stroke-linecap: square"/>
     </g>
     <g id="line2d_28">
      <g>
       <use xlink:href="#m4ff92f22d4" x="44.57" y="215.025808" style="stroke: #000000; stroke-width: 0.8"/>
      </g>
     </g>
     <g id="text_9">
      <!-- 10 -->
      <g transform="translate(24.845 218.825027) scale(0.1 -0.1)">
       <use xlink:href="#DejaVuSans-31"/>
       <use xlink:href="#DejaVuSans-30" x="63.623047"/>
      </g>
     </g>
    </g>
    <g id="ytick_4">
     <g id="line2d_29">
      <path d="M 44.57 176.550713 
L 371.048571 176.550713 
" clip-path="url(#p540c0f378d)" style="fill: none; stroke: #b0b0b0; stroke-width: 0.8; stroke-linecap: square"/>
     </g>
     <g id="line2d_30">
      <g>
       <use xlink:href="#m4ff92f22d4" x="44.57" y="176.550713" style="stroke: #000000; stroke-width: 0.8"/>
      </g>
     </g>
     <g id="text_10">
      <!-- 15 -->
      <g transform="translate(24.845 180.349931) scale(0.1 -0.1)">
       <use xlink:href="#DejaVuSans-31"/>
       <use xlink:href="#DejaVuSans-35" x="63.623047"/>
      </g>
     </g>
    </g>
    <g id="ytick_5">
     <g id="line2d_31">
      <path d="M 44.57 138.075617 
L 371.048571 138.075617 
" clip-path="url(#p540c0f378d)" style="fill: none; stroke: #b0b0b0; stroke-width: 0.8; stroke-linecap: square"/>
     </g>
     <g id="line2d_32">
      <g>
       <use xlink:href="#m4ff92f22d4" x="44.57" y="138.075617" style="stroke: #000000; stroke-width: 0.8"/>
      </g>
     </g>
     <g id="text_11">
      <!-- 20 -->
      <g transform="translate(24.845 141.874836) scale(0.1 -0.1)">
       <use xlink:href="#DejaVuSans-32"/>
       <use xlink:href="#DejaVuSans-30" x="63.623047"/>
      </g>
     </g>
    </g>
    <g id="ytick_6">
     <g id="line2d_33">
      <path d="M 44.57 99.600521 
L 371.048571 99.600521 
" clip-path="url(#p540c0f378d)" style="fill: none; stroke: #b0b0b0; stroke-width: 0.8; stroke-linecap: square"/>
     </g>
     <g id="line2d_34">
      <g>
       <use xlink:href="#m4ff92f22d4" x="44.57" y="99.600521" style="stroke: #000000; stroke-width: 0.8"/>
      </g>
     </g>
     <g id="text_12">
      <!-- 25 -->
      <g transform="translate(24.845 103.39974) scale(0.1 -0.1)">
       <use xlink:href="#DejaVuSans-32"/>
       <use xlink:href="#DejaVuSans-35" x="63.623047"/>
      </g>
     </g>
    </g>
    <g id="ytick_7">
     <g id="line2d_35">
      <path d="M 44.57 61.125425 
L 371.048571 61.125425 
" clip-path="url(#p540c0f378d)" style="fill: none; stroke: #b0b0b0; stroke-width: 0.8; stroke-linecap: square"/>
     </g>
     <g id="line2d_36">
      <g>
       <use xlink:href="#m4ff92f22d4" x="44.57" y="61.125425" style="stroke: #000000; stroke-width: 0.8"/>
      </g>
     </g>
     <g id="text_13">
      <!-- 30 -->
      <g transform="translate(24.845 64.924644) scale(0.1 -0.1)">
       <use xlink:href="#DejaVuSans-33"/>
       <use xlink:href="#DejaVuSans-30" x="63.623047"/>
      </g>
     </g>
    </g>
    <g id="ytick_8">
     <g id="line2d_37">
      <path d="M 44.57 22.65033 
L 371.048571 22.65033 
" clip-path="url(#p540c0f378d)" style="fill: none; stroke: #b0b0b0; stroke-width: 0.8; stroke-linecap: square"/>
     </g>
     <g id="line2d_38">
      <g>
       <use xlink:href="#m4ff92f22d4" x="44.57" y="22.65033" style="stroke: #000000; stroke-width: 0.8"/>
      </g>
     </g>
     <g id="text_14">
      <!-- 35 -->
      <g transform="translate(24.845 26.449548) scale(0.1 -0.1)">
       <use xlink:href="#DejaVuSans-33"/>
       <use xlink:href="#DejaVuSans-35" x="63.623047"/>
      </g>
     </g>
    </g>
    <g id="text_15">
     <!-- Million Pieces -->
     <g transform="translate(18.765313 184.986437) rotate(-90) scale(0.1 -0.1)">
      <defs>
       <path id="DejaVuSans-Oblique-4d" d="M 1081 4666 
L 2028 4666 
L 2572 1522 
L 4378 4666 
L 5350 4666 
L 4441 0 
L 3828 0 
L 4622 4091 
L 2791 897 
L 2175 897 
L 1581 4103 
L 788 0 
L 172 0 
L 1081 4666 
z
" transform="scale(0.015625)"/>
       <path id="DejaVuSans-Oblique-69" d="M 1172 4863 
L 1747 4863 
L 1606 4134 
L 1031 4134 
L 1172 4863 
z
M 909 3500 
L 1484 3500 
L 800 0 
L 225 0 
L 909 3500 
z
" transform="scale(0.015625)"/>
       <path id="DejaVuSans-Oblique-6c" d="M 1172 4863 
L 1747 4863 
L 800 0 
L 225 0 
L 1172 4863 
z
" transform="scale(0.015625)"/>
       <path id="DejaVuSans-Oblique-6f" d="M 1625 -91 
Q 1009 -91 651 289 
Q 294 669 294 1325 
Q 294 1706 417 2101 
Q 541 2497 738 2766 
Q 1047 3184 1428 3384 
Q 1809 3584 2291 3584 
Q 2888 3584 3255 3212 
Q 3622 2841 3622 2241 
Q 3622 1825 3500 1412 
Q 3378 1000 3181 728 
Q 2875 309 2494 109 
Q 2113 -91 1625 -91 
z
M 891 1344 
Q 891 869 1089 633 
Q 1288 397 1691 397 
Q 2269 397 2648 901 
Q 3028 1406 3028 2181 
Q 3028 2634 2825 2865 
Q 2622 3097 2228 3097 
Q 1903 3097 1650 2945 
Q 1397 2794 1197 2484 
Q 1050 2253 970 1956 
Q 891 1659 891 1344 
z
" transform="scale(0.015625)"/>
       <path id="DejaVuSans-Oblique-6e" d="M 3566 2113 
L 3156 0 
L 2578 0 
L 2988 2091 
Q 3016 2238 3031 2350 
Q 3047 2463 3047 2528 
Q 3047 2791 2881 2937 
Q 2716 3084 2419 3084 
Q 1956 3084 1622 2776 
Q 1288 2469 1184 1941 
L 800 0 
L 225 0 
L 903 3500 
L 1478 3500 
L 1363 2950 
Q 1603 3253 1940 3418 
Q 2278 3584 2650 3584 
Q 3113 3584 3367 3334 
Q 3622 3084 3622 2631 
Q 3622 2519 3608 2391 
Q 3594 2263 3566 2113 
z
" transform="scale(0.015625)"/>
       <path id="DejaVuSans-Oblique-20" transform="scale(0.015625)"/>
       <path id="DejaVuSans-Oblique-50" d="M 1081 4666 
L 2541 4666 
Q 3178 4666 3512 4369 
Q 3847 4072 3847 3500 
Q 3847 2731 3353 2303 
Q 2859 1875 1966 1875 
L 1172 1875 
L 806 0 
L 172 0 
L 1081 4666 
z
M 1613 4147 
L 1275 2394 
L 2069 2394 
Q 2606 2394 2893 2669 
Q 3181 2944 3181 3456 
Q 3181 3784 2986 3965 
Q 2791 4147 2438 4147 
L 1613 4147 
z
" transform="scale(0.015625)"/>
       <path id="DejaVuSans-Oblique-63" d="M 3431 3366 
L 3316 2797 
Q 3109 2947 2876 3022 
Q 2644 3097 2394 3097 
Q 2119 3097 1870 3000 
Q 1622 2903 1453 2725 
Q 1184 2453 1037 2087 
Q 891 1722 891 1331 
Q 891 859 1127 628 
Q 1363 397 1844 397 
Q 2081 397 2348 469 
Q 2616 541 2906 684 
L 2797 116 
Q 2547 13 2283 -39 
Q 2019 -91 1741 -91 
Q 1044 -91 669 257 
Q 294 606 294 1253 
Q 294 1797 489 2255 
Q 684 2713 1069 3078 
Q 1331 3328 1684 3456 
Q 2038 3584 2456 3584 
Q 2700 3584 2940 3529 
Q 3181 3475 3431 3366 
z
" transform="scale(0.015625)"/>
       <path id="DejaVuSans-Oblique-73" d="M 3200 3397 
L 3091 2853 
Q 2863 2978 2609 3040 
Q 2356 3103 2088 3103 
Q 1634 3103 1373 2948 
Q 1113 2794 1113 2528 
Q 1113 2219 1719 2053 
Q 1766 2041 1788 2034 
L 1972 1978 
Q 2547 1819 2739 1644 
Q 2931 1469 2931 1166 
Q 2931 609 2489 259 
Q 2047 -91 1331 -91 
Q 1053 -91 747 -37 
Q 441 16 72 128 
L 184 722 
Q 500 559 806 475 
Q 1113 391 1394 391 
Q 1816 391 2080 572 
Q 2344 753 2344 1031 
Q 2344 1331 1650 1516 
L 1591 1531 
L 1394 1581 
Q 956 1697 753 1886 
Q 550 2075 550 2369 
Q 550 2928 970 3256 
Q 1391 3584 2113 3584 
Q 2397 3584 2667 3537 
Q 2938 3491 3200 3397 
z
" transform="scale(0.015625)"/>
      </defs>
      <use xlink:href="#DejaVuSans-Oblique-4d"/>
      <use xlink:href="#DejaVuSans-Oblique-69" x="86.279297"/>
      <use xlink:href="#DejaVuSans-Oblique-6c" x="114.0625"/>
      <use xlink:href="#DejaVuSans-Oblique-6c" x="141.845703"/>
      <use xlink:href="#DejaVuSans-Oblique-69" x="169.628906"/>
      <use xlink:href="#DejaVuSans-Oblique-6f" x="197.412109"/>
      <use xlink:href="#DejaVuSans-Oblique-6e" x="258.59375"/>
      <use xlink:href="#DejaVuSans-Oblique-20" x="321.972656"/>
      <use xlink:href="#DejaVuSans-Oblique-50" x="353.759766"/>
      <use xlink:href="#DejaVuSans-Oblique-69" x="414.0625"/>
      <use xlink:href="#DejaVuSans-Oblique-65" x="441.845703"/>
      <use xlink:href="#DejaVuSans-Oblique-63" x="503.369141"/>
      <use xlink:href="#DejaVuSans-Oblique-65" x="558.349609"/>
      <use xlink:href="#DejaVuSans-Oblique-73" x="619.873047"/>
     </g>
    </g>
   </g>
   <g id="line2d_39">
    <path d="M 89.089805 291.976 
L 89.089805 10.8 
" clip-path="url(#p540c0f378d)" style="fill: none; stroke-dasharray: 5.55,2.4; stroke-dashoffset: 0; stroke: #bbbbbb; stroke-width: 1.5"/>
   </g>
   <g id="line2d_40">
    <path d="M 207.809286 291.976 
L 207.809286 10.8 
" clip-path="url(#p540c0f378d)" style="fill: none; stroke-dasharray: 5.55,2.4; stroke-dashoffset: 0; stroke: #bbbbbb; stroke-width: 1.5"/>
   </g>
   <g id="patch_3">
    <path d="M 44.57 291.976 
L 44.57 10.8 
" style="fill: none; stroke: #000000; stroke-width: 0.8; stroke-linejoin: miter; stroke-linecap: square"/>
   </g>
   <g id="patch_4">
    <path d="M 371.048571 291.976 
L 371.048571 10.8 
" style="fill: none; stroke: #000000; stroke-width: 0.8; stroke-linejoin: miter; stroke-linecap: square"/>
   </g>
   <g id="patch_5">
    <path d="M 44.57 291.976 
L 371.048571 291.976 
" style="fill: none; stroke: #000000; stroke-width: 0.8; stroke-linejoin: miter; stroke-linecap: square"/>
   </g>
   <g id="patch_6">
    <path d="M 44.57 10.8 
L 371.048571 10.8 
" style="fill: none; stroke: #000000; stroke-width: 0.8; stroke-linejoin: miter; stroke-linecap: square"/>
   </g>
   <g id="patch_7">
    <path d="M 48.279984 291.976 
L 55.699951 291.976 
L 55.699951 222.720828 
L 48.279984 222.720828 
z
" clip-path="url(#p540c0f378d)" style="fill: #7e372e"/>
   </g>
   <g id="patch_8">
    <path d="M 63.119919 291.976 
L 70.539886 291.976 
L 70.539886 236.571862 
L 63.119919 236.571862 
z
" clip-path="url(#p540c0f378d)" style="fill: #7e372e"/>
   </g>
   <g id="patch_9">
    <path d="M 77.959854 291.976 
L 85.379821 291.976 
L 85.379821 247.344889 
L 77.959854 247.344889 
z
" clip-path="url(#p540c0f378d)" style="fill: #7e372e"/>
   </g>
   <g id="patch_10">
    <path d="M 92.799789 291.976 
L 100.219756 291.976 
L 100.219756 238.880368 
L 92.799789 238.880368 
z
" clip-path="url(#p540c0f378d)" style="fill: #7e372e"/>
   </g>
   <g id="patch_11">
    <path d="M 107.639724 291.976 
L 115.059692 291.976 
L 115.059692 204.252782 
L 107.639724 204.252782 
z
" clip-path="url(#p540c0f378d)" style="fill: #7e372e"/>
   </g>
   <g id="patch_12">
    <path d="M 122.479659 291.976 
L 129.899627 291.976 
L 129.899627 189.632245 
L 122.479659 189.632245 
z
" clip-path="url(#p540c0f378d)" style="fill: #7e372e"/>
   </g>
   <g id="patch_13">
    <path d="M 137.319594 291.976 
L 144.739562 291.976 
L 144.739562 226.568337 
L 137.319594 226.568337 
z
" clip-path="url(#p540c0f378d)" style="fill: #7e372e"/>
   </g>
   <g id="patch_14">
    <path d="M 152.159529 291.976 
L 159.579497 291.976 
L 159.579497 219.64282 
L 152.159529 219.64282 
z
" clip-path="url(#p540c0f378d)" style="fill: #7e372e"/>
   </g>
   <g id="patch_15">
    <path d="M 166.999464 291.976 
L 174.419432 291.976 
L 174.419432 196.557762 
L 166.999464 196.557762 
z
" clip-path="url(#p540c0f378d)" style="fill: #7e372e"/>
   </g>
   <g id="patch_16">
    <path d="M 181.839399 291.976 
L 189.259367 291.976 
L 189.259367 251.192398 
L 181.839399 251.192398 
z
" clip-path="url(#p540c0f378d)" style="fill: #7e372e"/>
   </g>
   <g id="patch_17">
    <path d="M 196.679334 291.976 
L 204.099302 291.976 
L 204.099302 253.500904 
L 196.679334 253.500904 
z
" clip-path="url(#p540c0f378d)" style="fill: #7e372e"/>
   </g>
   <g id="patch_18">
    <path d="M 211.519269 291.976 
L 218.939237 291.976 
L 218.939237 291.976 
L 211.519269 291.976 
z
" clip-path="url(#p540c0f378d)" style="fill: #7e372e"/>
   </g>
   <g id="patch_19">
    <path d="M 226.359205 291.976 
L 233.779172 291.976 
L 233.779172 291.976 
L 226.359205 291.976 
z
" clip-path="url(#p540c0f378d)" style="fill: #7e372e"/>
   </g>
   <g id="patch_20">
    <path d="M 241.19914 291.976 
L 248.619107 291.976 
L 248.619107 291.976 
L 241.19914 291.976 
z
" clip-path="url(#p540c0f378d)" style="fill: #7e372e"/>
   </g>
   <g id="patch_21">
    <path d="M 256.039075 291.976 
L 263.459042 291.976 
L 263.459042 291.976 
L 256.039075 291.976 
z
" clip-path="url(#p540c0f378d)" style="fill: #7e372e"/>
   </g>
   <g id="patch_22">
    <path d="M 270.87901 291.976 
L 278.298977 291.976 
L 278.298977 291.976 
L 270.87901 291.976 
z
" clip-path="url(#p540c0f378d)" style="fill: #7e372e"/>
   </g>
   <g id="patch_23">
    <path d="M 285.718945 291.976 
L 293.138912 291.976 
L 293.138912 291.976 
L 285.718945 291.976 
z
" clip-path="url(#p540c0f378d)" style="fill: #7e372e"/>
   </g>
   <g id="patch_24">
    <path d="M 300.55888 291.976 
L 307.978847 291.976 
L 307.978847 291.976 
L 300.55888 291.976 
z
" clip-path="url(#p540c0f378d)" style="fill: #7e372e"/>
   </g>
   <g id="patch_25">
    <path d="M 315.398815 291.976 
L 322.818782 291.976 
L 322.818782 291.976 
L 315.398815 291.976 
z
" clip-path="url(#p540c0f378d)" style="fill: #7e372e"/>
   </g>
   <g id="patch_26">
    <path d="M 330.23875 291.976 
L 337.658718 291.976 
L 337.658718 291.976 
L 330.23875 291.976 
z
" clip-path="url(#p540c0f378d)" style="fill: #7e372e"/>
   </g>
   <g id="patch_27">
    <path d="M 345.078685 291.976 
L 352.498653 291.976 
L 352.498653 291.976 
L 345.078685 291.976 
z
" clip-path="url(#p540c0f378d)" style="fill: #7e372e"/>
   </g>
   <g id="patch_28">
    <path d="M 359.91862 291.976 
L 367.338588 291.976 
L 367.338588 291.976 
L 359.91862 291.976 
z
" clip-path="url(#p540c0f378d)" style="fill: #7e372e"/>
   </g>
   <g id="patch_29">
    <path d="M 48.279984 291.976 
L 55.699951 291.976 
L 55.699951 291.976 
L 48.279984 291.976 
z
" clip-path="url(#p540c0f378d)" style="fill: #384c86"/>
   </g>
   <g id="patch_30">
    <path d="M 63.119919 291.976 
L 70.539886 291.976 
L 70.539886 291.976 
L 63.119919 291.976 
z
" clip-path="url(#p540c0f378d)" style="fill: #384c86"/>
   </g>
   <g id="patch_31">
    <path d="M 77.959854 291.976 
L 85.379821 291.976 
L 85.379821 291.976 
L 77.959854 291.976 
z
" clip-path="url(#p540c0f378d)" style="fill: #384c86"/>
   </g>
   <g id="patch_32">
    <path d="M 92.799789 291.976 
L 100.219756 291.976 
L 100.219756 291.976 
L 92.799789 291.976 
z
" clip-path="url(#p540c0f378d)" style="fill: #384c86"/>
   </g>
   <g id="patch_33">
    <path d="M 107.639724 291.976 
L 115.059692 291.976 
L 115.059692 291.976 
L 107.639724 291.976 
z
" clip-path="url(#p540c0f378d)" style="fill: #384c86"/>
   </g>
   <g id="patch_34">
    <path d="M 122.479659 291.976 
L 129.899627 291.976 
L 129.899627 291.976 
L 122.479659 291.976 
z
" clip-path="url(#p540c0f378d)" style="fill: #384c86"/>
   </g>
   <g id="patch_35">
    <path d="M 137.319594 291.976 
L 144.739562 291.976 
L 144.739562 291.976 
L 137.319594 291.976 
z
" clip-path="url(#p540c0f378d)" style="fill: #384c86"/>
   </g>
   <g id="patch_36">
    <path d="M 152.159529 291.976 
L 159.579497 291.976 
L 159.579497 291.976 
L 152.159529 291.976 
z
" clip-path="url(#p540c0f378d)" style="fill: #384c86"/>
   </g>
   <g id="patch_37">
    <path d="M 166.999464 291.976 
L 174.419432 291.976 
L 174.419432 291.976 
L 166.999464 291.976 
z
" clip-path="url(#p540c0f378d)" style="fill: #384c86"/>
   </g>
   <g id="patch_38">
    <path d="M 181.839399 291.976 
L 189.259367 291.976 
L 189.259367 291.976 
L 181.839399 291.976 
z
" clip-path="url(#p540c0f378d)" style="fill: #384c86"/>
   </g>
   <g id="patch_39">
    <path d="M 196.679334 291.976 
L 204.099302 291.976 
L 204.099302 291.976 
L 196.679334 291.976 
z
" clip-path="url(#p540c0f378d)" style="fill: #384c86"/>
   </g>
   <g id="patch_40">
    <path d="M 211.519269 291.976 
L 218.939237 291.976 
L 218.939237 94.98351 
L 211.519269 94.98351 
z
" clip-path="url(#p540c0f378d)" style="fill: #384c86"/>
   </g>
   <g id="patch_41">
    <path d="M 226.359205 291.976 
L 233.779172 291.976 
L 233.779172 128.841594 
L 226.359205 128.841594 
z
" clip-path="url(#p540c0f378d)" style="fill: #384c86"/>
   </g>
   <g id="patch_42">
    <path d="M 241.19914 291.976 
L 248.619107 291.976 
L 248.619107 139.614621 
L 241.19914 139.614621 
z
" clip-path="url(#p540c0f378d)" style="fill: #384c86"/>
   </g>
   <g id="patch_43">
    <path d="M 256.039075 291.976 
L 263.459042 291.976 
L 263.459042 165.008184 
L 256.039075 165.008184 
z
" clip-path="url(#p540c0f378d)" style="fill: #384c86"/>
   </g>
   <g id="patch_44">
    <path d="M 270.87901 291.976 
L 278.298977 291.976 
L 278.298977 134.997609 
L 270.87901 134.997609 
z
" clip-path="url(#p540c0f378d)" style="fill: #384c86"/>
   </g>
   <g id="patch_45">
    <path d="M 285.718945 291.976 
L 293.138912 291.976 
L 293.138912 60.355923 
L 285.718945 60.355923 
z
" clip-path="url(#p540c0f378d)" style="fill: #384c86"/>
   </g>
   <g id="patch_46">
    <path d="M 300.55888 291.976 
L 307.978847 291.976 
L 307.978847 98.831019 
L 300.55888 98.831019 
z
" clip-path="url(#p540c0f378d)" style="fill: #384c86"/>
   </g>
   <g id="patch_47">
    <path d="M 315.398815 291.976 
L 322.818782 291.976 
L 322.818782 223.49033 
L 315.398815 223.49033 
z
" clip-path="url(#p540c0f378d)" style="fill: #384c86"/>
   </g>
   <g id="patch_48">
    <path d="M 330.23875 291.976 
L 337.658718 291.976 
L 337.658718 236.571862 
L 330.23875 236.571862 
z
" clip-path="url(#p540c0f378d)" style="fill: #384c86"/>
   </g>
   <g id="patch_49">
    <path d="M 345.078685 291.976 
L 352.498653 291.976 
L 352.498653 161.930176 
L 345.078685 161.930176 
z
" clip-path="url(#p540c0f378d)" style="fill: #384c86"/>
   </g>
   <g id="patch_50">
    <path d="M 359.91862 291.976 
L 367.338588 291.976 
L 367.338588 167.31669 
L 359.91862 167.31669 
z
" clip-path="url(#p540c0f378d)" style="fill: #384c86"/>
   </g>
   <g id="patch_51">
    <path d="M 48.279984 291.976 
L 55.699951 291.976 
L 55.699951 291.976 
L 48.279984 291.976 
z
" clip-path="url(#p540c0f378d)" style="fill: #fdba17"/>
   </g>
   <g id="patch_52">
    <path d="M 63.119919 291.976 
L 70.539886 291.976 
L 70.539886 291.976 
L 63.119919 291.976 
z
" clip-path="url(#p540c0f378d)" style="fill: #fdba17"/>
   </g>
   <g id="patch_53">
    <path d="M 77.959854 291.976 
L 85.379821 291.976 
L 85.379821 291.976 
L 77.959854 291.976 
z
" clip-path="url(#p540c0f378d)" style="fill: #fdba17"/>
   </g>
   <g id="patch_54">
    <path d="M 92.799789 238.880368 
L 100.219756 238.880368 
L 100.219756 234.831249 
L 92.799789 234.831249 
z
" clip-path="url(#p540c0f378d)" style="fill: #fdba17"/>
   </g>
   <g id="patch_55">
    <path d="M 107.639724 204.252782 
L 115.059692 204.252782 
L 115.059692 198.436886 
L 107.639724 198.436886 
z
" clip-path="url(#p540c0f378d)" style="fill: #fdba17"/>
   </g>
   <g id="patch_56">
    <path d="M 122.479659 189.632245 
L 129.899627 189.632245 
L 129.899627 184.350384 
L 122.479659 184.350384 
z
" clip-path="url(#p540c0f378d)" style="fill: #fdba17"/>
   </g>
   <g id="patch_57">
    <path d="M 137.319594 226.568337 
L 144.739562 226.568337 
L 144.739562 218.873318 
L 137.319594 218.873318 
z
" clip-path="url(#p540c0f378d)" style="fill: #fdba17"/>
   </g>
   <g id="patch_58">
    <path d="M 152.159529 219.64282 
L 159.579497 219.64282 
L 159.579497 215.938438 
L 152.159529 215.938438 
z
" clip-path="url(#p540c0f378d)" style="fill: #fdba17"/>
   </g>
   <g id="patch_59">
    <path d="M 166.999464 196.557762 
L 174.419432 196.557762 
L 174.419432 188.862743 
L 166.999464 188.862743 
z
" clip-path="url(#p540c0f378d)" style="fill: #fdba17"/>
   </g>
   <g id="patch_60">
    <path d="M 181.839399 251.192398 
L 189.259367 251.192398 
L 189.259367 244.96405 
L 181.839399 244.96405 
z
" clip-path="url(#p540c0f378d)" style="fill: #fdba17"/>
   </g>
   <g id="patch_61">
    <path d="M 196.679334 253.500904 
L 204.099302 253.500904 
L 204.099302 247.249471 
L 196.679334 247.249471 
z
" clip-path="url(#p540c0f378d)" style="fill: #fdba17"/>
   </g>
   <g id="patch_62">
    <path d="M 211.519269 291.976 
L 218.939237 291.976 
L 218.939237 291.976 
L 211.519269 291.976 
z
" clip-path="url(#p540c0f378d)" style="fill: #fdba17"/>
   </g>
   <g id="patch_63">
    <path d="M 226.359205 291.976 
L 233.779172 291.976 
L 233.779172 291.976 
L 226.359205 291.976 
z
" clip-path="url(#p540c0f378d)" style="fill: #fdba17"/>
   </g>
   <g id="patch_64">
    <path d="M 241.19914 291.976 
L 248.619107 291.976 
L 248.619107 291.976 
L 241.19914 291.976 
z
" clip-path="url(#p540c0f378d)" style="fill: #fdba17"/>
   </g>
   <g id="patch_65">
    <path d="M 256.039075 291.976 
L 263.459042 291.976 
L 263.459042 291.976 
L 256.039075 291.976 
z
" clip-path="url(#p540c0f378d)" style="fill: #fdba17"/>
   </g>
   <g id="patch_66">
    <path d="M 270.87901 291.976 
L 278.298977 291.976 
L 278.298977 291.976 
L 270.87901 291.976 
z
" clip-path="url(#p540c0f378d)" style="fill: #fdba17"/>
   </g>
   <g id="patch_67">
    <path d="M 285.718945 291.976 
L 293.138912 291.976 
L 293.138912 291.976 
L 285.718945 291.976 
z
" clip-path="url(#p540c0f378d)" style="fill: #fdba17"/>
   </g>
   <g id="patch_68">
    <path d="M 300.55888 291.976 
L 307.978847 291.976 
L 307.978847 291.976 
L 300.55888 291.976 
z
" clip-path="url(#p540c0f378d)" style="fill: #fdba17"/>
   </g>
   <g id="patch_69">
    <path d="M 315.398815 291.976 
L 322.818782 291.976 
L 322.818782 291.976 
L 315.398815 291.976 
z
" clip-path="url(#p540c0f378d)" style="fill: #fdba17"/>
   </g>
   <g id="patch_70">
    <path d="M 330.23875 291.976 
L 337.658718 291.976 
L 337.658718 291.976 
L 330.23875 291.976 
z
" clip-path="url(#p540c0f378d)" style="fill: #fdba17"/>
   </g>
   <g id="patch_71">
    <path d="M 345.078685 291.976 
L 352.498653 291.976 
L 352.498653 291.976 
L 345.078685 291.976 
z
" clip-path="url(#p540c0f378d)" style="fill: #fdba17"/>
   </g>
   <g id="patch_72">
    <path d="M 359.91862 291.976 
L 367.338588 291.976 
L 367.338588 291.976 
L 359.91862 291.976 
z
" clip-path="url(#p540c0f378d)" style="fill: #fdba17"/>
   </g>
   <g id="patch_73">
    <path d="M 48.279984 291.976 
L 55.699951 291.976 
L 55.699951 291.976 
L 48.279984 291.976 
z
" clip-path="url(#p540c0f378d)" style="fill: #84e278"/>
   </g>
   <g id="patch_74">
    <path d="M 63.119919 291.976 
L 70.539886 291.976 
L 70.539886 291.976 
L 63.119919 291.976 
z
" clip-path="url(#p540c0f378d)" style="fill: #84e278"/>
   </g>
   <g id="patch_75">
    <path d="M 77.959854 291.976 
L 85.379821 291.976 
L 85.379821 291.976 
L 77.959854 291.976 
z
" clip-path="url(#p540c0f378d)" style="fill: #84e278"/>
   </g>
   <g id="patch_76">
    <path d="M 92.799789 291.976 
L 100.219756 291.976 
L 100.219756 291.976 
L 92.799789 291.976 
z
" clip-path="url(#p540c0f378d)" style="fill: #84e278"/>
   </g>
   <g id="patch_77">
    <path d="M 107.639724 291.976 
L 115.059692 291.976 
L 115.059692 291.976 
L 107.639724 291.976 
z
" clip-path="url(#p540c0f378d)" style="fill: #84e278"/>
   </g>
   <g id="patch_78">
    <path d="M 122.479659 291.976 
L 129.899627 291.976 
L 129.899627 291.976 
L 122.479659 291.976 
z
" clip-path="url(#p540c0f378d)" style="fill: #84e278"/>
   </g>
   <g id="patch_79">
    <path d="M 137.319594 291.976 
L 144.739562 291.976 
L 144.739562 291.976 
L 137.319594 291.976 
z
" clip-path="url(#p540c0f378d)" style="fill: #84e278"/>
   </g>
   <g id="patch_80">
    <path d="M 152.159529 291.976 
L 159.579497 291.976 
L 159.579497 291.976 
L 152.159529 291.976 
z
" clip-path="url(#p540c0f378d)" style="fill: #84e278"/>
   </g>
   <g id="patch_81">
    <path d="M 166.999464 291.976 
L 174.419432 291.976 
L 174.419432 291.976 
L 166.999464 291.976 
z
" clip-path="url(#p540c0f378d)" style="fill: #84e278"/>
   </g>
   <g id="patch_82">
    <path d="M 181.839399 291.976 
L 189.259367 291.976 
L 189.259367 291.976 
L 181.839399 291.976 
z
" clip-path="url(#p540c0f378d)" style="fill: #84e278"/>
   </g>
   <g id="patch_83">
    <path d="M 196.679334 291.976 
L 204.099302 291.976 
L 204.099302 291.976 
L 196.679334 291.976 
z
" clip-path="url(#p540c0f378d)" style="fill: #84e278"/>
   </g>
   <g id="patch_84">
    <path d="M 211.519269 94.98351 
L 218.939237 94.98351 
L 218.939237 84.210483 
L 211.519269 84.210483 
z
" clip-path="url(#p540c0f378d)" style="fill: #84e278"/>
   </g>
   <g id="patch_85">
    <path d="M 226.359205 128.841594 
L 233.779172 128.841594 
L 233.779172 116.529563 
L 226.359205 116.529563 
z
" clip-path="url(#p540c0f378d)" style="fill: #84e278"/>
   </g>
   <g id="patch_86">
    <path d="M 241.19914 139.614621 
L 248.619107 139.614621 
L 248.619107 119.607571 
L 241.19914 119.607571 
z
" clip-path="url(#p540c0f378d)" style="fill: #84e278"/>
   </g>
   <g id="patch_87">
    <path d="M 256.039075 165.008184 
L 263.459042 165.008184 
L 263.459042 153.465655 
L 256.039075 153.465655 
z
" clip-path="url(#p540c0f378d)" style="fill: #84e278"/>
   </g>
   <g id="patch_88">
    <path d="M 270.87901 134.997609 
L 278.298977 134.997609 
L 278.298977 125.763586 
L 270.87901 125.763586 
z
" clip-path="url(#p540c0f378d)" style="fill: #84e278"/>
   </g>
   <g id="patch_89">
    <path d="M 285.718945 60.355923 
L 293.138912 60.355923 
L 293.138912 50.352398 
L 285.718945 50.352398 
z
" clip-path="url(#p540c0f378d)" style="fill: #84e278"/>
   </g>
   <g id="patch_90">
    <path d="M 300.55888 98.831019 
L 307.978847 98.831019 
L 307.978847 24.189333 
L 300.55888 24.189333 
z
" clip-path="url(#p540c0f378d)" style="fill: #84e278"/>
   </g>
   <g id="patch_91">
    <path d="M 315.398815 223.49033 
L 322.818782 223.49033 
L 322.818782 156.543663 
L 315.398815 156.543663 
z
" clip-path="url(#p540c0f378d)" style="fill: #84e278"/>
   </g>
   <g id="patch_92">
    <path d="M 330.23875 236.571862 
L 337.658718 236.571862 
L 337.658718 223.49033 
L 330.23875 223.49033 
z
" clip-path="url(#p540c0f378d)" style="fill: #84e278"/>
   </g>
   <g id="patch_93">
    <path d="M 345.078685 161.930176 
L 352.498653 161.930176 
L 352.498653 149.618146 
L 345.078685 149.618146 
z
" clip-path="url(#p540c0f378d)" style="fill: #84e278"/>
   </g>
   <g id="patch_94">
    <path d="M 359.91862 167.31669 
L 367.338588 167.31669 
L 367.338588 151.157149 
L 359.91862 151.157149 
z
" clip-path="url(#p540c0f378d)" style="fill: #84e278"/>
   </g>
   <g id="legend_1">
    <g id="patch_95">
     <path d="M 51.57 77.5125 
L 217.823125 77.5125 
Q 219.823125 77.5125 219.823125 75.5125 
L 219.823125 17.8 
Q 219.823125 15.8 217.823125 15.8 
L 51.57 15.8 
Q 49.57 15.8 49.57 17.8 
L 49.57 75.5125 
Q 49.57 77.5125 51.57 77.5125 
z
" style="fill: #ffffff; opacity: 0.8; stroke: #cccccc; stroke-linejoin: miter"/>
    </g>
    <g id="patch_96">
     <path d="M 53.57 27.398438 
L 73.57 27.398438 
L 73.57 20.398438 
L 53.57 20.398438 
z
" style="fill: #7e372e"/>
    </g>
    <g id="text_16">
     <!-- Facebook: Original Metric -->
     <g transform="translate(81.57 27.398438) scale(0.1 -0.1)">
      <defs>
       <path id="DejaVuSans-46" d="M 628 4666 
L 3309 4666 
L 3309 4134 
L 1259 4134 
L 1259 2759 
L 3109 2759 
L 3109 2228 
L 1259 2228 
L 1259 0 
L 628 0 
L 628 4666 
z
" transform="scale(0.015625)"/>
       <path id="DejaVuSans-61" d="M 2194 1759 
Q 1497 1759 1228 1600 
Q 959 1441 959 1056 
Q 959 750 1161 570 
Q 1363 391 1709 391 
Q 2188 391 2477 730 
Q 2766 1069 2766 1631 
L 2766 1759 
L 2194 1759 
z
M 3341 1997 
L 3341 0 
L 2766 0 
L 2766 531 
Q 2569 213 2275 61 
Q 1981 -91 1556 -91 
Q 1019 -91 701 211 
Q 384 513 384 1019 
Q 384 1609 779 1909 
Q 1175 2209 1959 2209 
L 2766 2209 
L 2766 2266 
Q 2766 2663 2505 2880 
Q 2244 3097 1772 3097 
Q 1472 3097 1187 3025 
Q 903 2953 641 2809 
L 641 3341 
Q 956 3463 1253 3523 
Q 1550 3584 1831 3584 
Q 2591 3584 2966 3190 
Q 3341 2797 3341 1997 
z
" transform="scale(0.015625)"/>
       <path id="DejaVuSans-63" d="M 3122 3366 
L 3122 2828 
Q 2878 2963 2633 3030 
Q 2388 3097 2138 3097 
Q 1578 3097 1268 2742 
Q 959 2388 959 1747 
Q 959 1106 1268 751 
Q 1578 397 2138 397 
Q 2388 397 2633 464 
Q 2878 531 3122 666 
L 3122 134 
Q 2881 22 2623 -34 
Q 2366 -91 2075 -91 
Q 1284 -91 818 406 
Q 353 903 353 1747 
Q 353 2603 823 3093 
Q 1294 3584 2113 3584 
Q 2378 3584 2631 3529 
Q 2884 3475 3122 3366 
z
" transform="scale(0.015625)"/>
       <path id="DejaVuSans-65" d="M 3597 1894 
L 3597 1613 
L 953 1613 
Q 991 1019 1311 708 
Q 1631 397 2203 397 
Q 2534 397 2845 478 
Q 3156 559 3463 722 
L 3463 178 
Q 3153 47 2828 -22 
Q 2503 -91 2169 -91 
Q 1331 -91 842 396 
Q 353 884 353 1716 
Q 353 2575 817 3079 
Q 1281 3584 2069 3584 
Q 2775 3584 3186 3129 
Q 3597 2675 3597 1894 
z
M 3022 2063 
Q 3016 2534 2758 2815 
Q 2500 3097 2075 3097 
Q 1594 3097 1305 2825 
Q 1016 2553 972 2059 
L 3022 2063 
z
" transform="scale(0.015625)"/>
       <path id="DejaVuSans-62" d="M 3116 1747 
Q 3116 2381 2855 2742 
Q 2594 3103 2138 3103 
Q 1681 3103 1420 2742 
Q 1159 2381 1159 1747 
Q 1159 1113 1420 752 
Q 1681 391 2138 391 
Q 2594 391 2855 752 
Q 3116 1113 3116 1747 
z
M 1159 2969 
Q 1341 3281 1617 3432 
Q 1894 3584 2278 3584 
Q 2916 3584 3314 3078 
Q 3713 2572 3713 1747 
Q 3713 922 3314 415 
Q 2916 -91 2278 -91 
Q 1894 -91 1617 61 
Q 1341 213 1159 525 
L 1159 0 
L 581 0 
L 581 4863 
L 1159 4863 
L 1159 2969 
z
" transform="scale(0.015625)"/>
       <path id="DejaVuSans-6f" d="M 1959 3097 
Q 1497 3097 1228 2736 
Q 959 2375 959 1747 
Q 959 1119 1226 758 
Q 1494 397 1959 397 
Q 2419 397 2687 759 
Q 2956 1122 2956 1747 
Q 2956 2369 2687 2733 
Q 2419 3097 1959 3097 
z
M 1959 3584 
Q 2709 3584 3137 3096 
Q 3566 2609 3566 1747 
Q 3566 888 3137 398 
Q 2709 -91 1959 -91 
Q 1206 -91 779 398 
Q 353 888 353 1747 
Q 353 2609 779 3096 
Q 1206 3584 1959 3584 
z
" transform="scale(0.015625)"/>
       <path id="DejaVuSans-6b" d="M 581 4863 
L 1159 4863 
L 1159 1991 
L 2875 3500 
L 3609 3500 
L 1753 1863 
L 3688 0 
L 2938 0 
L 1159 1709 
L 1159 0 
L 581 0 
L 581 4863 
z
" transform="scale(0.015625)"/>
       <path id="DejaVuSans-3a" d="M 750 794 
L 1409 794 
L 1409 0 
L 750 0 
L 750 794 
z
M 750 3309 
L 1409 3309 
L 1409 2516 
L 750 2516 
L 750 3309 
z
" transform="scale(0.015625)"/>
       <path id="DejaVuSans-20" transform="scale(0.015625)"/>
       <path id="DejaVuSans-4f" d="M 2522 4238 
Q 1834 4238 1429 3725 
Q 1025 3213 1025 2328 
Q 1025 1447 1429 934 
Q 1834 422 2522 422 
Q 3209 422 3611 934 
Q 4013 1447 4013 2328 
Q 4013 3213 3611 3725 
Q 3209 4238 2522 4238 
z
M 2522 4750 
Q 3503 4750 4090 4092 
Q 4678 3434 4678 2328 
Q 4678 1225 4090 567 
Q 3503 -91 2522 -91 
Q 1538 -91 948 565 
Q 359 1222 359 2328 
Q 359 3434 948 4092 
Q 1538 4750 2522 4750 
z
" transform="scale(0.015625)"/>
       <path id="DejaVuSans-72" d="M 2631 2963 
Q 2534 3019 2420 3045 
Q 2306 3072 2169 3072 
Q 1681 3072 1420 2755 
Q 1159 2438 1159 1844 
L 1159 0 
L 581 0 
L 581 3500 
L 1159 3500 
L 1159 2956 
Q 1341 3275 1631 3429 
Q 1922 3584 2338 3584 
Q 2397 3584 2469 3576 
Q 2541 3569 2628 3553 
L 2631 2963 
z
" transform="scale(0.015625)"/>
       <path id="DejaVuSans-69" d="M 603 3500 
L 1178 3500 
L 1178 0 
L 603 0 
L 603 3500 
z
M 603 4863 
L 1178 4863 
L 1178 4134 
L 603 4134 
L 603 4863 
z
" transform="scale(0.015625)"/>
       <path id="DejaVuSans-67" d="M 2906 1791 
Q 2906 2416 2648 2759 
Q 2391 3103 1925 3103 
Q 1463 3103 1205 2759 
Q 947 2416 947 1791 
Q 947 1169 1205 825 
Q 1463 481 1925 481 
Q 2391 481 2648 825 
Q 2906 1169 2906 1791 
z
M 3481 434 
Q 3481 -459 3084 -895 
Q 2688 -1331 1869 -1331 
Q 1566 -1331 1297 -1286 
Q 1028 -1241 775 -1147 
L 775 -588 
Q 1028 -725 1275 -790 
Q 1522 -856 1778 -856 
Q 2344 -856 2625 -561 
Q 2906 -266 2906 331 
L 2906 616 
Q 2728 306 2450 153 
Q 2172 0 1784 0 
Q 1141 0 747 490 
Q 353 981 353 1791 
Q 353 2603 747 3093 
Q 1141 3584 1784 3584 
Q 2172 3584 2450 3431 
Q 2728 3278 2906 2969 
L 2906 3500 
L 3481 3500 
L 3481 434 
z
" transform="scale(0.015625)"/>
       <path id="DejaVuSans-6e" d="M 3513 2113 
L 3513 0 
L 2938 0 
L 2938 2094 
Q 2938 2591 2744 2837 
Q 2550 3084 2163 3084 
Q 1697 3084 1428 2787 
Q 1159 2491 1159 1978 
L 1159 0 
L 581 0 
L 581 3500 
L 1159 3500 
L 1159 2956 
Q 1366 3272 1645 3428 
Q 1925 3584 2291 3584 
Q 2894 3584 3203 3211 
Q 3513 2838 3513 2113 
z
" transform="scale(0.015625)"/>
       <path id="DejaVuSans-6c" d="M 603 4863 
L 1178 4863 
L 1178 0 
L 603 0 
L 603 4863 
z
" transform="scale(0.015625)"/>
       <path id="DejaVuSans-4d" d="M 628 4666 
L 1569 4666 
L 2759 1491 
L 3956 4666 
L 4897 4666 
L 4897 0 
L 4281 0 
L 4281 4097 
L 3078 897 
L 2444 897 
L 1241 4097 
L 1241 0 
L 628 0 
L 628 4666 
z
" transform="scale(0.015625)"/>
       <path id="DejaVuSans-74" d="M 1172 4494 
L 1172 3500 
L 2356 3500 
L 2356 3053 
L 1172 3053 
L 1172 1153 
Q 1172 725 1289 603 
Q 1406 481 1766 481 
L 2356 481 
L 2356 0 
L 1766 0 
Q 1100 0 847 248 
Q 594 497 594 1153 
L 594 3053 
L 172 3053 
L 172 3500 
L 594 3500 
L 594 4494 
L 1172 4494 
z
" transform="scale(0.015625)"/>
      </defs>
      <use xlink:href="#DejaVuSans-46"/>
      <use xlink:href="#DejaVuSans-61" x="48.394531"/>
      <use xlink:href="#DejaVuSans-63" x="109.673828"/>
      <use xlink:href="#DejaVuSans-65" x="164.654297"/>
      <use xlink:href="#DejaVuSans-62" x="226.177734"/>
      <use xlink:href="#DejaVuSans-6f" x="289.654297"/>
      <use xlink:href="#DejaVuSans-6f" x="350.835938"/>
      <use xlink:href="#DejaVuSans-6b" x="412.017578"/>
      <use xlink:href="#DejaVuSans-3a" x="469.927734"/>
      <use xlink:href="#DejaVuSans-20" x="503.619141"/>
      <use xlink:href="#DejaVuSans-4f" x="535.40625"/>
      <use xlink:href="#DejaVuSans-72" x="614.117188"/>
      <use xlink:href="#DejaVuSans-69" x="655.230469"/>
      <use xlink:href="#DejaVuSans-67" x="683.013672"/>
      <use xlink:href="#DejaVuSans-69" x="746.490234"/>
      <use xlink:href="#DejaVuSans-6e" x="774.273438"/>
      <use xlink:href="#DejaVuSans-61" x="837.652344"/>
      <use xlink:href="#DejaVuSans-6c" x="898.931641"/>
      <use xlink:href="#DejaVuSans-20" x="926.714844"/>
      <use xlink:href="#DejaVuSans-4d" x="958.501953"/>
      <use xlink:href="#DejaVuSans-65" x="1044.78125"/>
      <use xlink:href="#DejaVuSans-74" x="1106.304688"/>
      <use xlink:href="#DejaVuSans-72" x="1145.513672"/>
      <use xlink:href="#DejaVuSans-69" x="1186.626953"/>
      <use xlink:href="#DejaVuSans-63" x="1214.410156"/>
     </g>
    </g>
    <g id="patch_97">
     <path d="M 53.57 42.076563 
L 73.57 42.076563 
L 73.57 35.076563 
L 53.57 35.076563 
z
" style="fill: #384c86"/>
    </g>
    <g id="text_17">
     <!-- Facebook: Updated Metric -->
     <g transform="translate(81.57 42.076563) scale(0.1 -0.1)">
      <defs>
       <path id="DejaVuSans-55" d="M 556 4666 
L 1191 4666 
L 1191 1831 
Q 1191 1081 1462 751 
Q 1734 422 2344 422 
Q 2950 422 3222 751 
Q 3494 1081 3494 1831 
L 3494 4666 
L 4128 4666 
L 4128 1753 
Q 4128 841 3676 375 
Q 3225 -91 2344 -91 
Q 1459 -91 1007 375 
Q 556 841 556 1753 
L 556 4666 
z
" transform="scale(0.015625)"/>
       <path id="DejaVuSans-70" d="M 1159 525 
L 1159 -1331 
L 581 -1331 
L 581 3500 
L 1159 3500 
L 1159 2969 
Q 1341 3281 1617 3432 
Q 1894 3584 2278 3584 
Q 2916 3584 3314 3078 
Q 3713 2572 3713 1747 
Q 3713 922 3314 415 
Q 2916 -91 2278 -91 
Q 1894 -91 1617 61 
Q 1341 213 1159 525 
z
M 3116 1747 
Q 3116 2381 2855 2742 
Q 2594 3103 2138 3103 
Q 1681 3103 1420 2742 
Q 1159 2381 1159 1747 
Q 1159 1113 1420 752 
Q 1681 391 2138 391 
Q 2594 391 2855 752 
Q 3116 1113 3116 1747 
z
" transform="scale(0.015625)"/>
       <path id="DejaVuSans-64" d="M 2906 2969 
L 2906 4863 
L 3481 4863 
L 3481 0 
L 2906 0 
L 2906 525 
Q 2725 213 2448 61 
Q 2172 -91 1784 -91 
Q 1150 -91 751 415 
Q 353 922 353 1747 
Q 353 2572 751 3078 
Q 1150 3584 1784 3584 
Q 2172 3584 2448 3432 
Q 2725 3281 2906 2969 
z
M 947 1747 
Q 947 1113 1208 752 
Q 1469 391 1925 391 
Q 2381 391 2643 752 
Q 2906 1113 2906 1747 
Q 2906 2381 2643 2742 
Q 2381 3103 1925 3103 
Q 1469 3103 1208 2742 
Q 947 2381 947 1747 
z
" transform="scale(0.015625)"/>
      </defs>
      <use xlink:href="#DejaVuSans-46"/>
      <use xlink:href="#DejaVuSans-61" x="48.394531"/>
      <use xlink:href="#DejaVuSans-63" x="109.673828"/>
      <use xlink:href="#DejaVuSans-65" x="164.654297"/>
      <use xlink:href="#DejaVuSans-62" x="226.177734"/>
      <use xlink:href="#DejaVuSans-6f" x="289.654297"/>
      <use xlink:href="#DejaVuSans-6f" x="350.835938"/>
      <use xlink:href="#DejaVuSans-6b" x="412.017578"/>
      <use xlink:href="#DejaVuSans-3a" x="469.927734"/>
      <use xlink:href="#DejaVuSans-20" x="503.619141"/>
      <use xlink:href="#DejaVuSans-55" x="535.40625"/>
      <use xlink:href="#DejaVuSans-70" x="608.599609"/>
      <use xlink:href="#DejaVuSans-64" x="672.076172"/>
      <use xlink:href="#DejaVuSans-61" x="735.552734"/>
      <use xlink:href="#DejaVuSans-74" x="796.832031"/>
      <use xlink:href="#DejaVuSans-65" x="836.041016"/>
      <use xlink:href="#DejaVuSans-64" x="897.564453"/>
      <use xlink:href="#DejaVuSans-20" x="961.041016"/>
      <use xlink:href="#DejaVuSans-4d" x="992.828125"/>
      <use xlink:href="#DejaVuSans-65" x="1079.107422"/>
      <use xlink:href="#DejaVuSans-74" x="1140.630859"/>
      <use xlink:href="#DejaVuSans-72" x="1179.839844"/>
      <use xlink:href="#DejaVuSans-69" x="1220.953125"/>
      <use xlink:href="#DejaVuSans-63" x="1248.736328"/>
     </g>
    </g>
    <g id="patch_98">
     <path d="M 53.57 56.754687 
L 73.57 56.754687 
L 73.57 49.754687 
L 53.57 49.754687 
z
" style="fill: #fdba17"/>
    </g>
    <g id="text_18">
     <!-- Instagram: Original Metric -->
     <g transform="translate(81.57 56.754687) scale(0.1 -0.1)">
      <defs>
       <path id="DejaVuSans-49" d="M 628 4666 
L 1259 4666 
L 1259 0 
L 628 0 
L 628 4666 
z
" transform="scale(0.015625)"/>
       <path id="DejaVuSans-73" d="M 2834 3397 
L 2834 2853 
Q 2591 2978 2328 3040 
Q 2066 3103 1784 3103 
Q 1356 3103 1142 2972 
Q 928 2841 928 2578 
Q 928 2378 1081 2264 
Q 1234 2150 1697 2047 
L 1894 2003 
Q 2506 1872 2764 1633 
Q 3022 1394 3022 966 
Q 3022 478 2636 193 
Q 2250 -91 1575 -91 
Q 1294 -91 989 -36 
Q 684 19 347 128 
L 347 722 
Q 666 556 975 473 
Q 1284 391 1588 391 
Q 1994 391 2212 530 
Q 2431 669 2431 922 
Q 2431 1156 2273 1281 
Q 2116 1406 1581 1522 
L 1381 1569 
Q 847 1681 609 1914 
Q 372 2147 372 2553 
Q 372 3047 722 3315 
Q 1072 3584 1716 3584 
Q 2034 3584 2315 3537 
Q 2597 3491 2834 3397 
z
" transform="scale(0.015625)"/>
       <path id="DejaVuSans-6d" d="M 3328 2828 
Q 3544 3216 3844 3400 
Q 4144 3584 4550 3584 
Q 5097 3584 5394 3201 
Q 5691 2819 5691 2113 
L 5691 0 
L 5113 0 
L 5113 2094 
Q 5113 2597 4934 2840 
Q 4756 3084 4391 3084 
Q 3944 3084 3684 2787 
Q 3425 2491 3425 1978 
L 3425 0 
L 2847 0 
L 2847 2094 
Q 2847 2600 2669 2842 
Q 2491 3084 2119 3084 
Q 1678 3084 1418 2786 
Q 1159 2488 1159 1978 
L 1159 0 
L 581 0 
L 581 3500 
L 1159 3500 
L 1159 2956 
Q 1356 3278 1631 3431 
Q 1906 3584 2284 3584 
Q 2666 3584 2933 3390 
Q 3200 3197 3328 2828 
z
" transform="scale(0.015625)"/>
      </defs>
      <use xlink:href="#DejaVuSans-49"/>
      <use xlink:href="#DejaVuSans-6e" x="29.492188"/>
      <use xlink:href="#DejaVuSans-73" x="92.871094"/>
      <use xlink:href="#DejaVuSans-74" x="144.970703"/>
      <use xlink:href="#DejaVuSans-61" x="184.179688"/>
      <use xlink:href="#DejaVuSans-67" x="245.458984"/>
      <use xlink:href="#DejaVuSans-72" x="308.935547"/>
      <use xlink:href="#DejaVuSans-61" x="350.048828"/>
      <use xlink:href="#DejaVuSans-6d" x="411.328125"/>
      <use xlink:href="#DejaVuSans-3a" x="508.740234"/>
      <use xlink:href="#DejaVuSans-20" x="542.431641"/>
      <use xlink:href="#DejaVuSans-4f" x="574.21875"/>
      <use xlink:href="#DejaVuSans-72" x="652.929688"/>
      <use xlink:href="#DejaVuSans-69" x="694.042969"/>
      <use xlink:href="#DejaVuSans-67" x="721.826172"/>
      <use xlink:href="#DejaVuSans-69" x="785.302734"/>
      <use xlink:href="#DejaVuSans-6e" x="813.085938"/>
      <use xlink:href="#DejaVuSans-61" x="876.464844"/>
      <use xlink:href="#DejaVuSans-6c" x="937.744141"/>
      <use xlink:href="#DejaVuSans-20" x="965.527344"/>
      <use xlink:href="#DejaVuSans-4d" x="997.314453"/>
      <use xlink:href="#DejaVuSans-65" x="1083.59375"/>
      <use xlink:href="#DejaVuSans-74" x="1145.117188"/>
      <use xlink:href="#DejaVuSans-72" x="1184.326172"/>
      <use xlink:href="#DejaVuSans-69" x="1225.439453"/>
      <use xlink:href="#DejaVuSans-63" x="1253.222656"/>
     </g>
    </g>
    <g id="patch_99">
     <path d="M 53.57 71.432813 
L 73.57 71.432813 
L 73.57 64.432813 
L 53.57 64.432813 
z
" style="fill: #84e278"/>
    </g>
    <g id="text_19">
     <!-- Instagram: Updated Metric -->
     <g transform="translate(81.57 71.432813) scale(0.1 -0.1)">
      <use xlink:href="#DejaVuSans-49"/>
      <use xlink:href="#DejaVuSans-6e" x="29.492188"/>
      <use xlink:href="#DejaVuSans-73" x="92.871094"/>
      <use xlink:href="#DejaVuSans-74" x="144.970703"/>
      <use xlink:href="#DejaVuSans-61" x="184.179688"/>
      <use xlink:href="#DejaVuSans-67" x="245.458984"/>
      <use xlink:href="#DejaVuSans-72" x="308.935547"/>
      <use xlink:href="#DejaVuSans-61" x="350.048828"/>
      <use xlink:href="#DejaVuSans-6d" x="411.328125"/>
      <use xlink:href="#DejaVuSans-3a" x="508.740234"/>
      <use xlink:href="#DejaVuSans-20" x="542.431641"/>
      <use xlink:href="#DejaVuSans-55" x="574.21875"/>
      <use xlink:href="#DejaVuSans-70" x="647.412109"/>
      <use xlink:href="#DejaVuSans-64" x="710.888672"/>
      <use xlink:href="#DejaVuSans-61" x="774.365234"/>
      <use xlink:href="#DejaVuSans-74" x="835.644531"/>
      <use xlink:href="#DejaVuSans-65" x="874.853516"/>
      <use xlink:href="#DejaVuSans-64" x="936.376953"/>
      <use xlink:href="#DejaVuSans-20" x="999.853516"/>
      <use xlink:href="#DejaVuSans-4d" x="1031.640625"/>
      <use xlink:href="#DejaVuSans-65" x="1117.919922"/>
      <use xlink:href="#DejaVuSans-74" x="1179.443359"/>
      <use xlink:href="#DejaVuSans-72" x="1218.652344"/>
      <use xlink:href="#DejaVuSans-69" x="1259.765625"/>
      <use xlink:href="#DejaVuSans-63" x="1287.548828"/>
     </g>
    </g>
   </g>
  </g>
  <g id="axes_2">
   <g id="patch_100">
    <path d="M 394.538571 291.976 
L 525.13 291.976 
L 525.13 10.8 
L 394.538571 10.8 
z
" style="fill: #ffffff"/>
   </g>
   <g id="matplotlib.axis_3">
    <g id="xtick_23">
     <g id="line2d_41">
      <g>
       <use xlink:href="#m9d0c19762b" x="394.538571" y="291.976" style="stroke: #000000; stroke-width: 0.8"/>
      </g>
     </g>
     <g id="text_20">
      <!-- 2019 -->
      <g transform="translate(381.813571 306.574437) scale(0.1 -0.1)">
       <use xlink:href="#DejaVuSans-32"/>
       <use xlink:href="#DejaVuSans-30" x="63.623047"/>
       <use xlink:href="#DejaVuSans-31" x="127.246094"/>
       <use xlink:href="#DejaVuSans-39" x="190.869141"/>
      </g>
     </g>
    </g>
    <g id="xtick_24">
     <g id="line2d_42">
      <g>
       <use xlink:href="#m9d0c19762b" x="427.186429" y="291.976" style="stroke: #000000; stroke-width: 0.8"/>
      </g>
     </g>
     <g id="text_21">
      <!-- 2020 -->
      <g transform="translate(414.461429 306.574437) scale(0.1 -0.1)">
       <use xlink:href="#DejaVuSans-32"/>
       <use xlink:href="#DejaVuSans-30" x="63.623047"/>
       <use xlink:href="#DejaVuSans-32" x="127.246094"/>
       <use xlink:href="#DejaVuSans-30" x="190.869141"/>
      </g>
     </g>
    </g>
    <g id="xtick_25">
     <g id="line2d_43">
      <g>
       <use xlink:href="#m9d0c19762b" x="459.834286" y="291.976" style="stroke: #000000; stroke-width: 0.8"/>
      </g>
     </g>
     <g id="text_22">
      <!-- 2021 -->
      <g transform="translate(447.109286 306.574437) scale(0.1 -0.1)">
       <use xlink:href="#DejaVuSans-32"/>
       <use xlink:href="#DejaVuSans-30" x="63.623047"/>
       <use xlink:href="#DejaVuSans-32" x="127.246094"/>
       <use xlink:href="#DejaVuSans-31" x="190.869141"/>
      </g>
     </g>
    </g>
    <g id="xtick_26">
     <g id="line2d_44">
      <g>
       <use xlink:href="#m9d0c19762b" x="492.482143" y="291.976" style="stroke: #000000; stroke-width: 0.8"/>
      </g>
     </g>
     <g id="text_23">
      <!-- 2022 -->
      <g transform="translate(479.757143 306.574437) scale(0.1 -0.1)">
       <use xlink:href="#DejaVuSans-32"/>
       <use xlink:href="#DejaVuSans-30" x="63.623047"/>
       <use xlink:href="#DejaVuSans-32" x="127.246094"/>
       <use xlink:href="#DejaVuSans-32" x="190.869141"/>
      </g>
     </g>
    </g>
    <g id="xtick_27">
     <g id="line2d_45">
      <g>
       <use xlink:href="#m9d0c19762b" x="525.13" y="291.976" style="stroke: #000000; stroke-width: 0.8"/>
      </g>
     </g>
     <g id="text_24">
      <!-- 2023 -->
      <g transform="translate(512.405 306.574437) scale(0.1 -0.1)">
       <use xlink:href="#DejaVuSans-32"/>
       <use xlink:href="#DejaVuSans-30" x="63.623047"/>
       <use xlink:href="#DejaVuSans-32" x="127.246094"/>
       <use xlink:href="#DejaVuSans-33" x="190.869141"/>
      </g>
     </g>
    </g>
    <g id="text_25">
     <!-- Year -->
     <g transform="translate(449.134286 320.252562) scale(0.1 -0.1)">
      <defs>
       <path id="DejaVuSans-Oblique-59" d="M 403 4666 
L 1081 4666 
L 1953 2747 
L 3616 4666 
L 4325 4666 
L 2209 2222 
L 1778 0 
L 1147 0 
L 1575 2222 
L 403 4666 
z
" transform="scale(0.015625)"/>
      </defs>
      <use xlink:href="#DejaVuSans-Oblique-59"/>
      <use xlink:href="#DejaVuSans-Oblique-65" x="50.083984"/>
      <use xlink:href="#DejaVuSans-Oblique-61" x="111.607422"/>
      <use xlink:href="#DejaVuSans-Oblique-72" x="172.886719"/>
     </g>
    </g>
   </g>
   <g id="matplotlib.axis_4">
    <g id="ytick_9">
     <g id="line2d_46">
      <path d="M 394.538571 267.495633 
L 525.13 267.495633 
" clip-path="url(#pa62dc4f9aa)" style="fill: none; stroke: #b0b0b0; stroke-width: 0.8; stroke-linecap: square"/>
     </g>
     <g id="line2d_47">
      <defs>
       <path id="mf60d743610" d="M 0 0 
L 3.5 0 
" style="stroke: #000000; stroke-width: 0.8"/>
      </defs>
      <g>
       <use xlink:href="#mf60d743610" x="525.13" y="267.495633" style="stroke: #000000; stroke-width: 0.8"/>
      </g>
     </g>
     <g id="text_26">
      <!-- 20 -->
      <g transform="translate(532.13 271.294851) scale(0.1 -0.1)">
       <use xlink:href="#DejaVuSans-32"/>
       <use xlink:href="#DejaVuSans-30" x="63.623047"/>
      </g>
     </g>
    </g>
    <g id="ytick_10">
     <g id="line2d_48">
      <path d="M 394.538571 210.639011 
L 525.13 210.639011 
" clip-path="url(#pa62dc4f9aa)" style="fill: none; stroke: #b0b0b0; stroke-width: 0.8; stroke-linecap: square"/>
     </g>
     <g id="line2d_49">
      <g>
       <use xlink:href="#mf60d743610" x="525.13" y="210.639011" style="stroke: #000000; stroke-width: 0.8"/>
      </g>
     </g>
     <g id="text_27">
      <!-- 40 -->
      <g transform="translate(532.13 214.43823) scale(0.1 -0.1)">
       <defs>
        <path id="DejaVuSans-34" d="M 2419 4116 
L 825 1625 
L 2419 1625 
L 2419 4116 
z
M 2253 4666 
L 3047 4666 
L 3047 1625 
L 3713 1625 
L 3713 1100 
L 3047 1100 
L 3047 0 
L 2419 0 
L 2419 1100 
L 313 1100 
L 313 1709 
L 2253 4666 
z
" transform="scale(0.015625)"/>
       </defs>
       <use xlink:href="#DejaVuSans-34"/>
       <use xlink:href="#DejaVuSans-30" x="63.623047"/>
      </g>
     </g>
    </g>
    <g id="ytick_11">
     <g id="line2d_50">
      <path d="M 394.538571 153.78239 
L 525.13 153.78239 
" clip-path="url(#pa62dc4f9aa)" style="fill: none; stroke: #b0b0b0; stroke-width: 0.8; stroke-linecap: square"/>
     </g>
     <g id="line2d_51">
      <g>
       <use xlink:href="#mf60d743610" x="525.13" y="153.78239" style="stroke: #000000; stroke-width: 0.8"/>
      </g>
     </g>
     <g id="text_28">
      <!-- 60 -->
      <g transform="translate(532.13 157.581609) scale(0.1 -0.1)">
       <defs>
        <path id="DejaVuSans-36" d="M 2113 2584 
Q 1688 2584 1439 2293 
Q 1191 2003 1191 1497 
Q 1191 994 1439 701 
Q 1688 409 2113 409 
Q 2538 409 2786 701 
Q 3034 994 3034 1497 
Q 3034 2003 2786 2293 
Q 2538 2584 2113 2584 
z
M 3366 4563 
L 3366 3988 
Q 3128 4100 2886 4159 
Q 2644 4219 2406 4219 
Q 1781 4219 1451 3797 
Q 1122 3375 1075 2522 
Q 1259 2794 1537 2939 
Q 1816 3084 2150 3084 
Q 2853 3084 3261 2657 
Q 3669 2231 3669 1497 
Q 3669 778 3244 343 
Q 2819 -91 2113 -91 
Q 1303 -91 875 529 
Q 447 1150 447 2328 
Q 447 3434 972 4092 
Q 1497 4750 2381 4750 
Q 2619 4750 2861 4703 
Q 3103 4656 3366 4563 
z
" transform="scale(0.015625)"/>
       </defs>
       <use xlink:href="#DejaVuSans-36"/>
       <use xlink:href="#DejaVuSans-30" x="63.623047"/>
      </g>
     </g>
    </g>
    <g id="ytick_12">
     <g id="line2d_52">
      <path d="M 394.538571 96.925769 
L 525.13 96.925769 
" clip-path="url(#pa62dc4f9aa)" style="fill: none; stroke: #b0b0b0; stroke-width: 0.8; stroke-linecap: square"/>
     </g>
     <g id="line2d_53">
      <g>
       <use xlink:href="#mf60d743610" x="525.13" y="96.925769" style="stroke: #000000; stroke-width: 0.8"/>
      </g>
     </g>
     <g id="text_29">
      <!-- 80 -->
      <g transform="translate(532.13 100.724988) scale(0.1 -0.1)">
       <defs>
        <path id="DejaVuSans-38" d="M 2034 2216 
Q 1584 2216 1326 1975 
Q 1069 1734 1069 1313 
Q 1069 891 1326 650 
Q 1584 409 2034 409 
Q 2484 409 2743 651 
Q 3003 894 3003 1313 
Q 3003 1734 2745 1975 
Q 2488 2216 2034 2216 
z
M 1403 2484 
Q 997 2584 770 2862 
Q 544 3141 544 3541 
Q 544 4100 942 4425 
Q 1341 4750 2034 4750 
Q 2731 4750 3128 4425 
Q 3525 4100 3525 3541 
Q 3525 3141 3298 2862 
Q 3072 2584 2669 2484 
Q 3125 2378 3379 2068 
Q 3634 1759 3634 1313 
Q 3634 634 3220 271 
Q 2806 -91 2034 -91 
Q 1263 -91 848 271 
Q 434 634 434 1313 
Q 434 1759 690 2068 
Q 947 2378 1403 2484 
z
M 1172 3481 
Q 1172 3119 1398 2916 
Q 1625 2713 2034 2713 
Q 2441 2713 2670 2916 
Q 2900 3119 2900 3481 
Q 2900 3844 2670 4047 
Q 2441 4250 2034 4250 
Q 1625 4250 1398 4047 
Q 1172 3844 1172 3481 
z
" transform="scale(0.015625)"/>
       </defs>
       <use xlink:href="#DejaVuSans-38"/>
       <use xlink:href="#DejaVuSans-30" x="63.623047"/>
      </g>
     </g>
    </g>
    <g id="ytick_13">
     <g id="line2d_54">
      <path d="M 394.538571 40.069147 
L 525.13 40.069147 
" clip-path="url(#pa62dc4f9aa)" style="fill: none; stroke: #b0b0b0; stroke-width: 0.8; stroke-linecap: square"/>
     </g>
     <g id="line2d_55">
      <g>
       <use xlink:href="#mf60d743610" x="525.13" y="40.069147" style="stroke: #000000; stroke-width: 0.8"/>
      </g>
     </g>
     <g id="text_30">
      <!-- 100 -->
      <g transform="translate(532.13 43.868366) scale(0.1 -0.1)">
       <use xlink:href="#DejaVuSans-31"/>
       <use xlink:href="#DejaVuSans-30" x="63.623047"/>
       <use xlink:href="#DejaVuSans-30" x="127.246094"/>
      </g>
     </g>
    </g>
    <g id="text_31">
     <!-- Million Pieces / Reports -->
     <g transform="translate(562.815938 209.253625) rotate(-90) scale(0.1 -0.1)">
      <defs>
       <path id="DejaVuSans-Oblique-2f" d="M 2175 4666 
L 2731 4666 
L 84 -594 
L -469 -594 
L 2175 4666 
z
" transform="scale(0.015625)"/>
       <path id="DejaVuSans-Oblique-52" d="M 1613 4147 
L 1294 2491 
L 2106 2491 
Q 2584 2491 2879 2755 
Q 3175 3019 3175 3444 
Q 3175 3784 2976 3965 
Q 2778 4147 2406 4147 
L 1613 4147 
z
M 2772 2241 
Q 2972 2194 3105 2009 
Q 3238 1825 3413 1275 
L 3809 0 
L 3144 0 
L 2778 1197 
Q 2638 1659 2453 1815 
Q 2269 1972 1888 1972 
L 1191 1972 
L 806 0 
L 172 0 
L 1081 4666 
L 2503 4666 
Q 3150 4666 3495 4373 
Q 3841 4081 3841 3531 
Q 3841 3044 3547 2687 
Q 3253 2331 2772 2241 
z
" transform="scale(0.015625)"/>
       <path id="DejaVuSans-Oblique-70" d="M 3175 2156 
Q 3175 2616 2975 2859 
Q 2775 3103 2400 3103 
Q 2144 3103 1911 2972 
Q 1678 2841 1497 2591 
Q 1319 2344 1212 1994 
Q 1106 1644 1106 1300 
Q 1106 863 1306 627 
Q 1506 391 1875 391 
Q 2147 391 2380 519 
Q 2613 647 2778 891 
Q 2956 1147 3065 1494 
Q 3175 1841 3175 2156 
z
M 1394 2969 
Q 1625 3272 1939 3428 
Q 2253 3584 2638 3584 
Q 3175 3584 3472 3232 
Q 3769 2881 3769 2247 
Q 3769 1728 3584 1258 
Q 3400 788 3053 416 
Q 2822 169 2531 39 
Q 2241 -91 1919 -91 
Q 1547 -91 1294 64 
Q 1041 219 916 525 
L 556 -1331 
L -19 -1331 
L 922 3500 
L 1497 3500 
L 1394 2969 
z
" transform="scale(0.015625)"/>
      </defs>
      <use xlink:href="#DejaVuSans-Oblique-4d"/>
      <use xlink:href="#DejaVuSans-Oblique-69" x="86.279297"/>
      <use xlink:href="#DejaVuSans-Oblique-6c" x="114.0625"/>
      <use xlink:href="#DejaVuSans-Oblique-6c" x="141.845703"/>
      <use xlink:href="#DejaVuSans-Oblique-69" x="169.628906"/>
      <use xlink:href="#DejaVuSans-Oblique-6f" x="197.412109"/>
      <use xlink:href="#DejaVuSans-Oblique-6e" x="258.59375"/>
      <use xlink:href="#DejaVuSans-Oblique-20" x="321.972656"/>
      <use xlink:href="#DejaVuSans-Oblique-50" x="353.759766"/>
      <use xlink:href="#DejaVuSans-Oblique-69" x="414.0625"/>
      <use xlink:href="#DejaVuSans-Oblique-65" x="441.845703"/>
      <use xlink:href="#DejaVuSans-Oblique-63" x="503.369141"/>
      <use xlink:href="#DejaVuSans-Oblique-65" x="558.349609"/>
      <use xlink:href="#DejaVuSans-Oblique-73" x="619.873047"/>
      <use xlink:href="#DejaVuSans-Oblique-20" x="671.972656"/>
      <use xlink:href="#DejaVuSans-Oblique-2f" x="703.759766"/>
      <use xlink:href="#DejaVuSans-Oblique-20" x="737.451172"/>
      <use xlink:href="#DejaVuSans-Oblique-52" x="769.238281"/>
      <use xlink:href="#DejaVuSans-Oblique-65" x="838.720703"/>
      <use xlink:href="#DejaVuSans-Oblique-70" x="900.244141"/>
      <use xlink:href="#DejaVuSans-Oblique-6f" x="963.720703"/>
      <use xlink:href="#DejaVuSans-Oblique-72" x="1024.902344"/>
      <use xlink:href="#DejaVuSans-Oblique-74" x="1066.015625"/>
      <use xlink:href="#DejaVuSans-Oblique-73" x="1105.224609"/>
     </g>
    </g>
   </g>
   <g id="line2d_56">
    <path d="M 394.538571 212.434544 
L 427.186429 213.79228 
L 459.834286 102.57618 
L 492.482143 23.580727 
L 525.13 144.401048 
" clip-path="url(#pa62dc4f9aa)" style="fill: none; stroke: #1f77b4; stroke-width: 1.5; stroke-linecap: square"/>
   </g>
   <g id="line2d_57">
    <path d="M 394.538571 279.195273 
L 427.186429 266.62227 
L 459.834286 247.921882 
L 492.482143 247.053787 
L 525.13 237.196606 
" clip-path="url(#pa62dc4f9aa)" style="fill: none; stroke: #ff7f0e; stroke-width: 1.5; stroke-linecap: square"/>
   </g>
   <g id="patch_101">
    <path d="M 394.538571 291.976 
L 394.538571 10.8 
" style="fill: none; stroke: #000000; stroke-width: 0.8; stroke-linejoin: miter; stroke-linecap: square"/>
   </g>
   <g id="patch_102">
    <path d="M 525.13 291.976 
L 525.13 10.8 
" style="fill: none; stroke: #000000; stroke-width: 0.8; stroke-linejoin: miter; stroke-linecap: square"/>
   </g>
   <g id="patch_103">
    <path d="M 394.538571 291.976 
L 525.13 291.976 
" style="fill: none; stroke: #000000; stroke-width: 0.8; stroke-linejoin: miter; stroke-linecap: square"/>
   </g>
   <g id="patch_104">
    <path d="M 394.538571 10.8 
L 525.13 10.8 
" style="fill: none; stroke: #000000; stroke-width: 0.8; stroke-linejoin: miter; stroke-linecap: square"/>
   </g>
   <g id="legend_2">
    <g id="patch_105">
     <path d="M 400.395625 167.566125 
L 518.13 167.566125 
Q 520.13 167.566125 520.13 165.566125 
L 520.13 137.209875 
Q 520.13 135.209875 518.13 135.209875 
L 400.395625 135.209875 
Q 398.395625 135.209875 398.395625 137.209875 
L 398.395625 165.566125 
Q 398.395625 167.566125 400.395625 167.566125 
z
" style="fill: #ffffff; opacity: 0.8; stroke: #cccccc; stroke-linejoin: miter"/>
    </g>
    <g id="line2d_58">
     <path d="M 402.395625 143.308312 
L 412.395625 143.308312 
L 422.395625 143.308312 
" style="fill: none; stroke: #1f77b4; stroke-width: 1.5; stroke-linecap: square"/>
    </g>
    <g id="text_32">
     <!-- Pieces (Meta) -->
     <g transform="translate(430.395625 146.808312) scale(0.1 -0.1)">
      <defs>
       <path id="DejaVuSans-50" d="M 1259 4147 
L 1259 2394 
L 2053 2394 
Q 2494 2394 2734 2622 
Q 2975 2850 2975 3272 
Q 2975 3691 2734 3919 
Q 2494 4147 2053 4147 
L 1259 4147 
z
M 628 4666 
L 2053 4666 
Q 2838 4666 3239 4311 
Q 3641 3956 3641 3272 
Q 3641 2581 3239 2228 
Q 2838 1875 2053 1875 
L 1259 1875 
L 1259 0 
L 628 0 
L 628 4666 
z
" transform="scale(0.015625)"/>
       <path id="DejaVuSans-28" d="M 1984 4856 
Q 1566 4138 1362 3434 
Q 1159 2731 1159 2009 
Q 1159 1288 1364 580 
Q 1569 -128 1984 -844 
L 1484 -844 
Q 1016 -109 783 600 
Q 550 1309 550 2009 
Q 550 2706 781 3412 
Q 1013 4119 1484 4856 
L 1984 4856 
z
" transform="scale(0.015625)"/>
       <path id="DejaVuSans-29" d="M 513 4856 
L 1013 4856 
Q 1481 4119 1714 3412 
Q 1947 2706 1947 2009 
Q 1947 1309 1714 600 
Q 1481 -109 1013 -844 
L 513 -844 
Q 928 -128 1133 580 
Q 1338 1288 1338 2009 
Q 1338 2731 1133 3434 
Q 928 4138 513 4856 
z
" transform="scale(0.015625)"/>
      </defs>
      <use xlink:href="#DejaVuSans-50"/>
      <use xlink:href="#DejaVuSans-69" x="58.052734"/>
      <use xlink:href="#DejaVuSans-65" x="85.835938"/>
      <use xlink:href="#DejaVuSans-63" x="147.359375"/>
      <use xlink:href="#DejaVuSans-65" x="202.339844"/>
      <use xlink:href="#DejaVuSans-73" x="263.863281"/>
      <use xlink:href="#DejaVuSans-20" x="315.962891"/>
      <use xlink:href="#DejaVuSans-28" x="347.75"/>
      <use xlink:href="#DejaVuSans-4d" x="386.763672"/>
      <use xlink:href="#DejaVuSans-65" x="473.042969"/>
      <use xlink:href="#DejaVuSans-74" x="534.566406"/>
      <use xlink:href="#DejaVuSans-61" x="573.775391"/>
      <use xlink:href="#DejaVuSans-29" x="635.054688"/>
     </g>
    </g>
    <g id="line2d_59">
     <path d="M 402.395625 157.986437 
L 412.395625 157.986437 
L 422.395625 157.986437 
" style="fill: none; stroke: #ff7f0e; stroke-width: 1.5; stroke-linecap: square"/>
    </g>
    <g id="text_33">
     <!-- Reports (NCMEC) -->
     <g transform="translate(430.395625 161.486437) scale(0.1 -0.1)">
      <defs>
       <path id="DejaVuSans-52" d="M 2841 2188 
Q 3044 2119 3236 1894 
Q 3428 1669 3622 1275 
L 4263 0 
L 3584 0 
L 2988 1197 
Q 2756 1666 2539 1819 
Q 2322 1972 1947 1972 
L 1259 1972 
L 1259 0 
L 628 0 
L 628 4666 
L 2053 4666 
Q 2853 4666 3247 4331 
Q 3641 3997 3641 3322 
Q 3641 2881 3436 2590 
Q 3231 2300 2841 2188 
z
M 1259 4147 
L 1259 2491 
L 2053 2491 
Q 2509 2491 2742 2702 
Q 2975 2913 2975 3322 
Q 2975 3731 2742 3939 
Q 2509 4147 2053 4147 
L 1259 4147 
z
" transform="scale(0.015625)"/>
       <path id="DejaVuSans-4e" d="M 628 4666 
L 1478 4666 
L 3547 763 
L 3547 4666 
L 4159 4666 
L 4159 0 
L 3309 0 
L 1241 3903 
L 1241 0 
L 628 0 
L 628 4666 
z
" transform="scale(0.015625)"/>
       <path id="DejaVuSans-43" d="M 4122 4306 
L 4122 3641 
Q 3803 3938 3442 4084 
Q 3081 4231 2675 4231 
Q 1875 4231 1450 3742 
Q 1025 3253 1025 2328 
Q 1025 1406 1450 917 
Q 1875 428 2675 428 
Q 3081 428 3442 575 
Q 3803 722 4122 1019 
L 4122 359 
Q 3791 134 3420 21 
Q 3050 -91 2638 -91 
Q 1578 -91 968 557 
Q 359 1206 359 2328 
Q 359 3453 968 4101 
Q 1578 4750 2638 4750 
Q 3056 4750 3426 4639 
Q 3797 4528 4122 4306 
z
" transform="scale(0.015625)"/>
       <path id="DejaVuSans-45" d="M 628 4666 
L 3578 4666 
L 3578 4134 
L 1259 4134 
L 1259 2753 
L 3481 2753 
L 3481 2222 
L 1259 2222 
L 1259 531 
L 3634 531 
L 3634 0 
L 628 0 
L 628 4666 
z
" transform="scale(0.015625)"/>
      </defs>
      <use xlink:href="#DejaVuSans-52"/>
      <use xlink:href="#DejaVuSans-65" x="64.982422"/>
      <use xlink:href="#DejaVuSans-70" x="126.505859"/>
      <use xlink:href="#DejaVuSans-6f" x="189.982422"/>
      <use xlink:href="#DejaVuSans-72" x="251.164062"/>
      <use xlink:href="#DejaVuSans-74" x="292.277344"/>
      <use xlink:href="#DejaVuSans-73" x="331.486328"/>
      <use xlink:href="#DejaVuSans-20" x="383.585938"/>
      <use xlink:href="#DejaVuSans-28" x="415.373047"/>
      <use xlink:href="#DejaVuSans-4e" x="454.386719"/>
      <use xlink:href="#DejaVuSans-43" x="529.191406"/>
      <use xlink:href="#DejaVuSans-4d" x="599.015625"/>
      <use xlink:href="#DejaVuSans-45" x="685.294922"/>
      <use xlink:href="#DejaVuSans-43" x="748.478516"/>
      <use xlink:href="#DejaVuSans-29" x="818.302734"/>
     </g>
    </g>
   </g>
  </g>
 </g>
 <defs>
  <clipPath id="p540c0f378d">
   <rect x="44.57" y="10.8" width="326.478571" height="281.176"/>
  </clipPath>
  <clipPath id="pa62dc4f9aa">
   <rect x="394.538571" y="10.8" width="130.591429" height="281.176"/>
  </clipPath>
 </defs>
</svg>
