<?xml version="1.0" encoding="utf-8" standalone="no"?>
<!DOCTYPE svg PUBLIC "-//W3C//DTD SVG 1.1//EN"
  "http://www.w3.org/Graphics/SVG/1.1/DTD/svg11.dtd">
<svg xmlns:xlink="http://www.w3.org/1999/xlink" width="404.923125pt" height="322.066062pt" viewBox="0 0 404.923125 322.066062" xmlns="http://www.w3.org/2000/svg" version="1.1">
 <metadata>
  <rdf:RDF xmlns:dc="http://purl.org/dc/elements/1.1/" xmlns:cc="http://creativecommons.org/ns#" xmlns:rdf="http://www.w3.org/1999/02/22-rdf-syntax-ns#">
   <cc:Work>
    <dc:type rdf:resource="http://purl.org/dc/dcmitype/StillImage"/>
    <dc:date>2024-04-28T22:01:42.605582</dc:date>
    <dc:format>image/svg+xml</dc:format>
    <dc:creator>
     <cc:Agent>
      <dc:title>Matplotlib v3.7.2, https://matplotlib.org/</dc:title>
     </cc:Agent>
    </dc:creator>
   </cc:Work>
  </rdf:RDF>
 </metadata>
 <defs>
  <style type="text/css">*{stroke-linejoin: round; stroke-linecap: butt}</style>
 </defs>
 <g id="figure_1">
  <g id="patch_1">
   <path d="M 0 322.066062 
L 404.923125 322.066062 
L 404.923125 0 
L 0 0 
z
" style="fill: #ffffff"/>
  </g>
  <g id="axes_1">
   <g id="patch_2">
    <path d="M 40.603125 273.312 
L 397.723125 273.312 
L 397.723125 7.2 
L 40.603125 7.2 
z
" style="fill: #ffffff"/>
   </g>
   <g id="matplotlib.axis_1">
    <g id="xtick_1">
     <g id="line2d_1">
      <defs>
       <path id="m08b6a42811" d="M 0 0 
L 0 3.5 
" style="stroke: #000000; stroke-width: 0.8"/>
      </defs>
      <g>
       <use xlink:href="#m08b6a42811" x="48.719489" y="273.312" style="stroke: #000000; stroke-width: 0.8"/>
      </g>
     </g>
    </g>
    <g id="xtick_2">
     <g id="line2d_2">
      <g>
       <use xlink:href="#m08b6a42811" x="64.952216" y="273.312" style="stroke: #000000; stroke-width: 0.8"/>
      </g>
     </g>
    </g>
    <g id="xtick_3">
     <g id="line2d_3">
      <g>
       <use xlink:href="#m08b6a42811" x="81.184943" y="273.312" style="stroke: #000000; stroke-width: 0.8"/>
      </g>
     </g>
     <g id="text_1">
      <!-- Q1 -->
      <g transform="translate(74.067756 287.910437) scale(0.1 -0.1)">
       <defs>
        <path id="DejaVuSans-51" d="M 2522 4238 
Q 1834 4238 1429 3725 
Q 1025 3213 1025 2328 
Q 1025 1447 1429 934 
Q 1834 422 2522 422 
Q 3209 422 3611 934 
Q 4013 1447 4013 2328 
Q 4013 3213 3611 3725 
Q 3209 4238 2522 4238 
z
M 3406 84 
L 4238 -825 
L 3475 -825 
L 2784 -78 
Q 2681 -84 2626 -87 
Q 2572 -91 2522 -91 
Q 1538 -91 948 567 
Q 359 1225 359 2328 
Q 359 3434 948 4092 
Q 1538 4750 2522 4750 
Q 3503 4750 4090 4092 
Q 4678 3434 4678 2328 
Q 4678 1516 4351 937 
Q 4025 359 3406 84 
z
" transform="scale(0.015625)"/>
        <path id="DejaVuSans-31" d="M 794 531 
L 1825 531 
L 1825 4091 
L 703 3866 
L 703 4441 
L 1819 4666 
L 2450 4666 
L 2450 531 
L 3481 531 
L 3481 0 
L 794 0 
L 794 531 
z
" transform="scale(0.015625)"/>
       </defs>
       <use xlink:href="#DejaVuSans-51"/>
       <use xlink:href="#DejaVuSans-31" x="78.710938"/>
      </g>
      <!-- 2019 -->
      <g transform="translate(68.459943 299.10825) scale(0.1 -0.1)">
       <defs>
        <path id="DejaVuSans-32" d="M 1228 531 
L 3431 531 
L 3431 0 
L 469 0 
L 469 531 
Q 828 903 1448 1529 
Q 2069 2156 2228 2338 
Q 2531 2678 2651 2914 
Q 2772 3150 2772 3378 
Q 2772 3750 2511 3984 
Q 2250 4219 1831 4219 
Q 1534 4219 1204 4116 
Q 875 4013 500 3803 
L 500 4441 
Q 881 4594 1212 4672 
Q 1544 4750 1819 4750 
Q 2544 4750 2975 4387 
Q 3406 4025 3406 3419 
Q 3406 3131 3298 2873 
Q 3191 2616 2906 2266 
Q 2828 2175 2409 1742 
Q 1991 1309 1228 531 
z
" transform="scale(0.015625)"/>
        <path id="DejaVuSans-30" d="M 2034 4250 
Q 1547 4250 1301 3770 
Q 1056 3291 1056 2328 
Q 1056 1369 1301 889 
Q 1547 409 2034 409 
Q 2525 409 2770 889 
Q 3016 1369 3016 2328 
Q 3016 3291 2770 3770 
Q 2525 4250 2034 4250 
z
M 2034 4750 
Q 2819 4750 3233 4129 
Q 3647 3509 3647 2328 
Q 3647 1150 3233 529 
Q 2819 -91 2034 -91 
Q 1250 -91 836 529 
Q 422 1150 422 2328 
Q 422 3509 836 4129 
Q 1250 4750 2034 4750 
z
" transform="scale(0.015625)"/>
        <path id="DejaVuSans-39" d="M 703 97 
L 703 672 
Q 941 559 1184 500 
Q 1428 441 1663 441 
Q 2288 441 2617 861 
Q 2947 1281 2994 2138 
Q 2813 1869 2534 1725 
Q 2256 1581 1919 1581 
Q 1219 1581 811 2004 
Q 403 2428 403 3163 
Q 403 3881 828 4315 
Q 1253 4750 1959 4750 
Q 2769 4750 3195 4129 
Q 3622 3509 3622 2328 
Q 3622 1225 3098 567 
Q 2575 -91 1691 -91 
Q 1453 -91 1209 -44 
Q 966 3 703 97 
z
M 1959 2075 
Q 2384 2075 2632 2365 
Q 2881 2656 2881 3163 
Q 2881 3666 2632 3958 
Q 2384 4250 1959 4250 
Q 1534 4250 1286 3958 
Q 1038 3666 1038 3163 
Q 1038 2656 1286 2365 
Q 1534 2075 1959 2075 
z
" transform="scale(0.015625)"/>
       </defs>
       <use xlink:href="#DejaVuSans-32"/>
       <use xlink:href="#DejaVuSans-30" x="63.623047"/>
       <use xlink:href="#DejaVuSans-31" x="127.246094"/>
       <use xlink:href="#DejaVuSans-39" x="190.869141"/>
      </g>
     </g>
    </g>
    <g id="xtick_4">
     <g id="line2d_4">
      <g>
       <use xlink:href="#m08b6a42811" x="97.41767" y="273.312" style="stroke: #000000; stroke-width: 0.8"/>
      </g>
     </g>
    </g>
    <g id="xtick_5">
     <g id="line2d_5">
      <g>
       <use xlink:href="#m08b6a42811" x="113.650398" y="273.312" style="stroke: #000000; stroke-width: 0.8"/>
      </g>
     </g>
    </g>
    <g id="xtick_6">
     <g id="line2d_6">
      <g>
       <use xlink:href="#m08b6a42811" x="129.883125" y="273.312" style="stroke: #000000; stroke-width: 0.8"/>
      </g>
     </g>
    </g>
    <g id="xtick_7">
     <g id="line2d_7">
      <g>
       <use xlink:href="#m08b6a42811" x="146.115852" y="273.312" style="stroke: #000000; stroke-width: 0.8"/>
      </g>
     </g>
     <g id="text_2">
      <!-- Q1 -->
      <g transform="translate(138.998665 287.910437) scale(0.1 -0.1)">
       <use xlink:href="#DejaVuSans-51"/>
       <use xlink:href="#DejaVuSans-31" x="78.710938"/>
      </g>
      <!-- 2020 -->
      <g transform="translate(133.390852 299.10825) scale(0.1 -0.1)">
       <use xlink:href="#DejaVuSans-32"/>
       <use xlink:href="#DejaVuSans-30" x="63.623047"/>
       <use xlink:href="#DejaVuSans-32" x="127.246094"/>
       <use xlink:href="#DejaVuSans-30" x="190.869141"/>
      </g>
     </g>
    </g>
    <g id="xtick_8">
     <g id="line2d_8">
      <g>
       <use xlink:href="#m08b6a42811" x="162.34858" y="273.312" style="stroke: #000000; stroke-width: 0.8"/>
      </g>
     </g>
    </g>
    <g id="xtick_9">
     <g id="line2d_9">
      <g>
       <use xlink:href="#m08b6a42811" x="178.581307" y="273.312" style="stroke: #000000; stroke-width: 0.8"/>
      </g>
     </g>
    </g>
    <g id="xtick_10">
     <g id="line2d_10">
      <g>
       <use xlink:href="#m08b6a42811" x="194.814034" y="273.312" style="stroke: #000000; stroke-width: 0.8"/>
      </g>
     </g>
    </g>
    <g id="xtick_11">
     <g id="line2d_11">
      <g>
       <use xlink:href="#m08b6a42811" x="211.046761" y="273.312" style="stroke: #000000; stroke-width: 0.8"/>
      </g>
     </g>
     <g id="text_3">
      <!-- Q1 -->
      <g transform="translate(203.929574 287.910437) scale(0.1 -0.1)">
       <use xlink:href="#DejaVuSans-51"/>
       <use xlink:href="#DejaVuSans-31" x="78.710938"/>
      </g>
      <!-- 2021 -->
      <g transform="translate(198.321761 299.10825) scale(0.1 -0.1)">
       <use xlink:href="#DejaVuSans-32"/>
       <use xlink:href="#DejaVuSans-30" x="63.623047"/>
       <use xlink:href="#DejaVuSans-32" x="127.246094"/>
       <use xlink:href="#DejaVuSans-31" x="190.869141"/>
      </g>
     </g>
    </g>
    <g id="xtick_12">
     <g id="line2d_12">
      <g>
       <use xlink:href="#m08b6a42811" x="227.279489" y="273.312" style="stroke: #000000; stroke-width: 0.8"/>
      </g>
     </g>
    </g>
    <g id="xtick_13">
     <g id="line2d_13">
      <g>
       <use xlink:href="#m08b6a42811" x="243.512216" y="273.312" style="stroke: #000000; stroke-width: 0.8"/>
      </g>
     </g>
    </g>
    <g id="xtick_14">
     <g id="line2d_14">
      <g>
       <use xlink:href="#m08b6a42811" x="259.744943" y="273.312" style="stroke: #000000; stroke-width: 0.8"/>
      </g>
     </g>
    </g>
    <g id="xtick_15">
     <g id="line2d_15">
      <g>
       <use xlink:href="#m08b6a42811" x="275.97767" y="273.312" style="stroke: #000000; stroke-width: 0.8"/>
      </g>
     </g>
     <g id="text_4">
      <!-- Q1 -->
      <g transform="translate(268.860483 287.910437) scale(0.1 -0.1)">
       <use xlink:href="#DejaVuSans-51"/>
       <use xlink:href="#DejaVuSans-31" x="78.710938"/>
      </g>
      <!-- 2022 -->
      <g transform="translate(263.25267 299.10825) scale(0.1 -0.1)">
       <use xlink:href="#DejaVuSans-32"/>
       <use xlink:href="#DejaVuSans-30" x="63.623047"/>
       <use xlink:href="#DejaVuSans-32" x="127.246094"/>
       <use xlink:href="#DejaVuSans-32" x="190.869141"/>
      </g>
     </g>
    </g>
    <g id="xtick_16">
     <g id="line2d_16">
      <g>
       <use xlink:href="#m08b6a42811" x="292.210398" y="273.312" style="stroke: #000000; stroke-width: 0.8"/>
      </g>
     </g>
    </g>
    <g id="xtick_17">
     <g id="line2d_17">
      <g>
       <use xlink:href="#m08b6a42811" x="308.443125" y="273.312" style="stroke: #000000; stroke-width: 0.8"/>
      </g>
     </g>
    </g>
    <g id="xtick_18">
     <g id="line2d_18">
      <g>
       <use xlink:href="#m08b6a42811" x="324.675852" y="273.312" style="stroke: #000000; stroke-width: 0.8"/>
      </g>
     </g>
    </g>
    <g id="xtick_19">
     <g id="line2d_19">
      <g>
       <use xlink:href="#m08b6a42811" x="340.90858" y="273.312" style="stroke: #000000; stroke-width: 0.8"/>
      </g>
     </g>
     <g id="text_5">
      <!-- Q1 -->
      <g transform="translate(333.791392 287.910437) scale(0.1 -0.1)">
       <use xlink:href="#DejaVuSans-51"/>
       <use xlink:href="#DejaVuSans-31" x="78.710938"/>
      </g>
      <!-- 2023 -->
      <g transform="translate(328.18358 299.10825) scale(0.1 -0.1)">
       <defs>
        <path id="DejaVuSans-33" d="M 2597 2516 
Q 3050 2419 3304 2112 
Q 3559 1806 3559 1356 
Q 3559 666 3084 287 
Q 2609 -91 1734 -91 
Q 1441 -91 1130 -33 
Q 819 25 488 141 
L 488 750 
Q 750 597 1062 519 
Q 1375 441 1716 441 
Q 2309 441 2620 675 
Q 2931 909 2931 1356 
Q 2931 1769 2642 2001 
Q 2353 2234 1838 2234 
L 1294 2234 
L 1294 2753 
L 1863 2753 
Q 2328 2753 2575 2939 
Q 2822 3125 2822 3475 
Q 2822 3834 2567 4026 
Q 2313 4219 1838 4219 
Q 1578 4219 1281 4162 
Q 984 4106 628 3988 
L 628 4550 
Q 988 4650 1302 4700 
Q 1616 4750 1894 4750 
Q 2613 4750 3031 4423 
Q 3450 4097 3450 3541 
Q 3450 3153 3228 2886 
Q 3006 2619 2597 2516 
z
" transform="scale(0.015625)"/>
       </defs>
       <use xlink:href="#DejaVuSans-32"/>
       <use xlink:href="#DejaVuSans-30" x="63.623047"/>
       <use xlink:href="#DejaVuSans-32" x="127.246094"/>
       <use xlink:href="#DejaVuSans-33" x="190.869141"/>
      </g>
     </g>
    </g>
    <g id="xtick_20">
     <g id="line2d_20">
      <g>
       <use xlink:href="#m08b6a42811" x="357.141307" y="273.312" style="stroke: #000000; stroke-width: 0.8"/>
      </g>
     </g>
    </g>
    <g id="xtick_21">
     <g id="line2d_21">
      <g>
       <use xlink:href="#m08b6a42811" x="373.374034" y="273.312" style="stroke: #000000; stroke-width: 0.8"/>
      </g>
     </g>
    </g>
    <g id="xtick_22">
     <g id="line2d_22">
      <g>
       <use xlink:href="#m08b6a42811" x="389.606761" y="273.312" style="stroke: #000000; stroke-width: 0.8"/>
      </g>
     </g>
    </g>
    <g id="text_6">
     <!-- Quarter -->
     <g transform="translate(199.846719 312.786375) scale(0.1 -0.1)">
      <defs>
       <path id="DejaVuSans-Oblique-51" d="M 2309 -84 
Q 2275 -88 2237 -89 
Q 2200 -91 2125 -91 
Q 1250 -91 756 411 
Q 263 913 263 1797 
Q 263 2319 452 2844 
Q 641 3369 978 3788 
Q 1369 4269 1858 4509 
Q 2347 4750 2938 4750 
Q 3794 4750 4287 4245 
Q 4781 3741 4781 2869 
Q 4781 1928 4265 1147 
Q 3750 366 2919 44 
L 3553 -825 
L 2847 -825 
L 2309 -84 
z
M 2919 4238 
Q 2400 4238 2003 3986 
Q 1606 3734 1313 3219 
Q 1125 2891 1026 2522 
Q 928 2153 928 1778 
Q 928 1128 1239 775 
Q 1550 422 2119 422 
Q 2631 422 3032 676 
Q 3434 931 3719 1434 
Q 3909 1772 4009 2142 
Q 4109 2513 4109 2881 
Q 4109 3528 3796 3883 
Q 3484 4238 2919 4238 
z
" transform="scale(0.015625)"/>
       <path id="DejaVuSans-Oblique-75" d="M 428 1388 
L 838 3500 
L 1416 3500 
L 1006 1409 
Q 975 1256 961 1147 
Q 947 1038 947 966 
Q 947 700 1109 554 
Q 1272 409 1569 409 
Q 2031 409 2368 721 
Q 2706 1034 2809 1563 
L 3194 3500 
L 3769 3500 
L 3091 0 
L 2516 0 
L 2631 550 
Q 2388 244 2052 76 
Q 1716 -91 1338 -91 
Q 878 -91 622 161 
Q 366 413 366 863 
Q 366 956 381 1097 
Q 397 1238 428 1388 
z
" transform="scale(0.015625)"/>
       <path id="DejaVuSans-Oblique-61" d="M 3438 1997 
L 3047 0 
L 2472 0 
L 2578 531 
Q 2325 219 2001 64 
Q 1678 -91 1281 -91 
Q 834 -91 548 182 
Q 263 456 263 884 
Q 263 1497 752 1853 
Q 1241 2209 2100 2209 
L 2900 2209 
L 2931 2363 
Q 2938 2388 2941 2417 
Q 2944 2447 2944 2509 
Q 2944 2788 2717 2942 
Q 2491 3097 2081 3097 
Q 1800 3097 1504 3025 
Q 1209 2953 897 2809 
L 997 3341 
Q 1322 3463 1633 3523 
Q 1944 3584 2234 3584 
Q 2853 3584 3176 3315 
Q 3500 3047 3500 2534 
Q 3500 2431 3484 2292 
Q 3469 2153 3438 1997 
z
M 2816 1759 
L 2241 1759 
Q 1534 1759 1195 1570 
Q 856 1381 856 984 
Q 856 709 1029 553 
Q 1203 397 1509 397 
Q 1978 397 2328 733 
Q 2678 1069 2791 1631 
L 2816 1759 
z
" transform="scale(0.015625)"/>
       <path id="DejaVuSans-Oblique-72" d="M 2853 2969 
Q 2766 3016 2653 3041 
Q 2541 3066 2413 3066 
Q 1953 3066 1609 2717 
Q 1266 2369 1153 1784 
L 800 0 
L 225 0 
L 909 3500 
L 1484 3500 
L 1375 2956 
Q 1603 3259 1920 3421 
Q 2238 3584 2597 3584 
Q 2691 3584 2781 3573 
Q 2872 3563 2963 3538 
L 2853 2969 
z
" transform="scale(0.015625)"/>
       <path id="DejaVuSans-Oblique-74" d="M 2706 3500 
L 2619 3053 
L 1472 3053 
L 1100 1153 
Q 1081 1047 1072 975 
Q 1063 903 1063 863 
Q 1063 663 1183 572 
Q 1303 481 1569 481 
L 2150 481 
L 2053 0 
L 1503 0 
Q 991 0 739 200 
Q 488 400 488 806 
Q 488 878 497 964 
Q 506 1050 525 1153 
L 897 3053 
L 409 3053 
L 500 3500 
L 978 3500 
L 1172 4494 
L 1747 4494 
L 1556 3500 
L 2706 3500 
z
" transform="scale(0.015625)"/>
       <path id="DejaVuSans-Oblique-65" d="M 3078 2063 
Q 3088 2113 3092 2166 
Q 3097 2219 3097 2272 
Q 3097 2653 2873 2875 
Q 2650 3097 2266 3097 
Q 1838 3097 1509 2826 
Q 1181 2556 1013 2059 
L 3078 2063 
z
M 3578 1613 
L 903 1613 
Q 884 1494 878 1425 
Q 872 1356 872 1306 
Q 872 872 1139 634 
Q 1406 397 1894 397 
Q 2269 397 2603 481 
Q 2938 566 3225 728 
L 3116 159 
Q 2806 34 2476 -28 
Q 2147 -91 1806 -91 
Q 1078 -91 686 257 
Q 294 606 294 1247 
Q 294 1794 489 2264 
Q 684 2734 1063 3103 
Q 1306 3334 1642 3459 
Q 1978 3584 2356 3584 
Q 2950 3584 3301 3228 
Q 3653 2872 3653 2272 
Q 3653 2128 3634 1964 
Q 3616 1800 3578 1613 
z
" transform="scale(0.015625)"/>
      </defs>
      <use xlink:href="#DejaVuSans-Oblique-51"/>
      <use xlink:href="#DejaVuSans-Oblique-75" x="78.710938"/>
      <use xlink:href="#DejaVuSans-Oblique-61" x="142.089844"/>
      <use xlink:href="#DejaVuSans-Oblique-72" x="203.369141"/>
      <use xlink:href="#DejaVuSans-Oblique-74" x="244.482422"/>
      <use xlink:href="#DejaVuSans-Oblique-65" x="283.691406"/>
      <use xlink:href="#DejaVuSans-Oblique-72" x="345.214844"/>
     </g>
    </g>
   </g>
   <g id="matplotlib.axis_2">
    <g id="ytick_1">
     <g id="line2d_23">
      <path d="M 40.603125 273.312 
L 397.723125 273.312 
" clip-path="url(#p02577ea9de)" style="fill: none; stroke: #b0b0b0; stroke-width: 0.8; stroke-linecap: square"/>
     </g>
     <g id="line2d_24">
      <defs>
       <path id="m30213128da" d="M 0 0 
L -3.5 0 
" style="stroke: #000000; stroke-width: 0.8"/>
      </defs>
      <g>
       <use xlink:href="#m30213128da" x="40.603125" y="273.312" style="stroke: #000000; stroke-width: 0.8"/>
      </g>
     </g>
     <g id="text_7">
      <!-- 0 -->
      <g transform="translate(27.240625 277.111219) scale(0.1 -0.1)">
       <use xlink:href="#DejaVuSans-30"/>
      </g>
     </g>
    </g>
    <g id="ytick_2">
     <g id="line2d_25">
      <path d="M 40.603125 236.898207 
L 397.723125 236.898207 
" clip-path="url(#p02577ea9de)" style="fill: none; stroke: #b0b0b0; stroke-width: 0.8; stroke-linecap: square"/>
     </g>
     <g id="line2d_26">
      <g>
       <use xlink:href="#m30213128da" x="40.603125" y="236.898207" style="stroke: #000000; stroke-width: 0.8"/>
      </g>
     </g>
     <g id="text_8">
      <!-- 5 -->
      <g transform="translate(27.240625 240.697426) scale(0.1 -0.1)">
       <defs>
        <path id="DejaVuSans-35" d="M 691 4666 
L 3169 4666 
L 3169 4134 
L 1269 4134 
L 1269 2991 
Q 1406 3038 1543 3061 
Q 1681 3084 1819 3084 
Q 2600 3084 3056 2656 
Q 3513 2228 3513 1497 
Q 3513 744 3044 326 
Q 2575 -91 1722 -91 
Q 1428 -91 1123 -41 
Q 819 9 494 109 
L 494 744 
Q 775 591 1075 516 
Q 1375 441 1709 441 
Q 2250 441 2565 725 
Q 2881 1009 2881 1497 
Q 2881 1984 2565 2268 
Q 2250 2553 1709 2553 
Q 1456 2553 1204 2497 
Q 953 2441 691 2322 
L 691 4666 
z
" transform="scale(0.015625)"/>
       </defs>
       <use xlink:href="#DejaVuSans-35"/>
      </g>
     </g>
    </g>
    <g id="ytick_3">
     <g id="line2d_27">
      <path d="M 40.603125 200.484414 
L 397.723125 200.484414 
" clip-path="url(#p02577ea9de)" style="fill: none; stroke: #b0b0b0; stroke-width: 0.8; stroke-linecap: square"/>
     </g>
     <g id="line2d_28">
      <g>
       <use xlink:href="#m30213128da" x="40.603125" y="200.484414" style="stroke: #000000; stroke-width: 0.8"/>
      </g>
     </g>
     <g id="text_9">
      <!-- 10 -->
      <g transform="translate(20.878125 204.283633) scale(0.1 -0.1)">
       <use xlink:href="#DejaVuSans-31"/>
       <use xlink:href="#DejaVuSans-30" x="63.623047"/>
      </g>
     </g>
    </g>
    <g id="ytick_4">
     <g id="line2d_29">
      <path d="M 40.603125 164.070621 
L 397.723125 164.070621 
" clip-path="url(#p02577ea9de)" style="fill: none; stroke: #b0b0b0; stroke-width: 0.8; stroke-linecap: square"/>
     </g>
     <g id="line2d_30">
      <g>
       <use xlink:href="#m30213128da" x="40.603125" y="164.070621" style="stroke: #000000; stroke-width: 0.8"/>
      </g>
     </g>
     <g id="text_10">
      <!-- 15 -->
      <g transform="translate(20.878125 167.869839) scale(0.1 -0.1)">
       <use xlink:href="#DejaVuSans-31"/>
       <use xlink:href="#DejaVuSans-35" x="63.623047"/>
      </g>
     </g>
    </g>
    <g id="ytick_5">
     <g id="line2d_31">
      <path d="M 40.603125 127.656828 
L 397.723125 127.656828 
" clip-path="url(#p02577ea9de)" style="fill: none; stroke: #b0b0b0; stroke-width: 0.8; stroke-linecap: square"/>
     </g>
     <g id="line2d_32">
      <g>
       <use xlink:href="#m30213128da" x="40.603125" y="127.656828" style="stroke: #000000; stroke-width: 0.8"/>
      </g>
     </g>
     <g id="text_11">
      <!-- 20 -->
      <g transform="translate(20.878125 131.456046) scale(0.1 -0.1)">
       <use xlink:href="#DejaVuSans-32"/>
       <use xlink:href="#DejaVuSans-30" x="63.623047"/>
      </g>
     </g>
    </g>
    <g id="ytick_6">
     <g id="line2d_33">
      <path d="M 40.603125 91.243034 
L 397.723125 91.243034 
" clip-path="url(#p02577ea9de)" style="fill: none; stroke: #b0b0b0; stroke-width: 0.8; stroke-linecap: square"/>
     </g>
     <g id="line2d_34">
      <g>
       <use xlink:href="#m30213128da" x="40.603125" y="91.243034" style="stroke: #000000; stroke-width: 0.8"/>
      </g>
     </g>
     <g id="text_12">
      <!-- 25 -->
      <g transform="translate(20.878125 95.042253) scale(0.1 -0.1)">
       <use xlink:href="#DejaVuSans-32"/>
       <use xlink:href="#DejaVuSans-35" x="63.623047"/>
      </g>
     </g>
    </g>
    <g id="ytick_7">
     <g id="line2d_35">
      <path d="M 40.603125 54.829241 
L 397.723125 54.829241 
" clip-path="url(#p02577ea9de)" style="fill: none; stroke: #b0b0b0; stroke-width: 0.8; stroke-linecap: square"/>
     </g>
     <g id="line2d_36">
      <g>
       <use xlink:href="#m30213128da" x="40.603125" y="54.829241" style="stroke: #000000; stroke-width: 0.8"/>
      </g>
     </g>
     <g id="text_13">
      <!-- 30 -->
      <g transform="translate(20.878125 58.62846) scale(0.1 -0.1)">
       <use xlink:href="#DejaVuSans-33"/>
       <use xlink:href="#DejaVuSans-30" x="63.623047"/>
      </g>
     </g>
    </g>
    <g id="ytick_8">
     <g id="line2d_37">
      <path d="M 40.603125 18.415448 
L 397.723125 18.415448 
" clip-path="url(#p02577ea9de)" style="fill: none; stroke: #b0b0b0; stroke-width: 0.8; stroke-linecap: square"/>
     </g>
     <g id="line2d_38">
      <g>
       <use xlink:href="#m30213128da" x="40.603125" y="18.415448" style="stroke: #000000; stroke-width: 0.8"/>
      </g>
     </g>
     <g id="text_14">
      <!-- 35 -->
      <g transform="translate(20.878125 22.214667) scale(0.1 -0.1)">
       <use xlink:href="#DejaVuSans-33"/>
       <use xlink:href="#DejaVuSans-35" x="63.623047"/>
      </g>
     </g>
    </g>
    <g id="text_15">
     <!-- Million Pieces -->
     <g transform="translate(14.798438 173.854437) rotate(-90) scale(0.1 -0.1)">
      <defs>
       <path id="DejaVuSans-Oblique-4d" d="M 1081 4666 
L 2028 4666 
L 2572 1522 
L 4378 4666 
L 5350 4666 
L 4441 0 
L 3828 0 
L 4622 4091 
L 2791 897 
L 2175 897 
L 1581 4103 
L 788 0 
L 172 0 
L 1081 4666 
z
" transform="scale(0.015625)"/>
       <path id="DejaVuSans-Oblique-69" d="M 1172 4863 
L 1747 4863 
L 1606 4134 
L 1031 4134 
L 1172 4863 
z
M 909 3500 
L 1484 3500 
L 800 0 
L 225 0 
L 909 3500 
z
" transform="scale(0.015625)"/>
       <path id="DejaVuSans-Oblique-6c" d="M 1172 4863 
L 1747 4863 
L 800 0 
L 225 0 
L 1172 4863 
z
" transform="scale(0.015625)"/>
       <path id="DejaVuSans-Oblique-6f" d="M 1625 -91 
Q 1009 -91 651 289 
Q 294 669 294 1325 
Q 294 1706 417 2101 
Q 541 2497 738 2766 
Q 1047 3184 1428 3384 
Q 1809 3584 2291 3584 
Q 2888 3584 3255 3212 
Q 3622 2841 3622 2241 
Q 3622 1825 3500 1412 
Q 3378 1000 3181 728 
Q 2875 309 2494 109 
Q 2113 -91 1625 -91 
z
M 891 1344 
Q 891 869 1089 633 
Q 1288 397 1691 397 
Q 2269 397 2648 901 
Q 3028 1406 3028 2181 
Q 3028 2634 2825 2865 
Q 2622 3097 2228 3097 
Q 1903 3097 1650 2945 
Q 1397 2794 1197 2484 
Q 1050 2253 970 1956 
Q 891 1659 891 1344 
z
" transform="scale(0.015625)"/>
       <path id="DejaVuSans-Oblique-6e" d="M 3566 2113 
L 3156 0 
L 2578 0 
L 2988 2091 
Q 3016 2238 3031 2350 
Q 3047 2463 3047 2528 
Q 3047 2791 2881 2937 
Q 2716 3084 2419 3084 
Q 1956 3084 1622 2776 
Q 1288 2469 1184 1941 
L 800 0 
L 225 0 
L 903 3500 
L 1478 3500 
L 1363 2950 
Q 1603 3253 1940 3418 
Q 2278 3584 2650 3584 
Q 3113 3584 3367 3334 
Q 3622 3084 3622 2631 
Q 3622 2519 3608 2391 
Q 3594 2263 3566 2113 
z
" transform="scale(0.015625)"/>
       <path id="DejaVuSans-Oblique-20" transform="scale(0.015625)"/>
       <path id="DejaVuSans-Oblique-50" d="M 1081 4666 
L 2541 4666 
Q 3178 4666 3512 4369 
Q 3847 4072 3847 3500 
Q 3847 2731 3353 2303 
Q 2859 1875 1966 1875 
L 1172 1875 
L 806 0 
L 172 0 
L 1081 4666 
z
M 1613 4147 
L 1275 2394 
L 2069 2394 
Q 2606 2394 2893 2669 
Q 3181 2944 3181 3456 
Q 3181 3784 2986 3965 
Q 2791 4147 2438 4147 
L 1613 4147 
z
" transform="scale(0.015625)"/>
       <path id="DejaVuSans-Oblique-63" d="M 3431 3366 
L 3316 2797 
Q 3109 2947 2876 3022 
Q 2644 3097 2394 3097 
Q 2119 3097 1870 3000 
Q 1622 2903 1453 2725 
Q 1184 2453 1037 2087 
Q 891 1722 891 1331 
Q 891 859 1127 628 
Q 1363 397 1844 397 
Q 2081 397 2348 469 
Q 2616 541 2906 684 
L 2797 116 
Q 2547 13 2283 -39 
Q 2019 -91 1741 -91 
Q 1044 -91 669 257 
Q 294 606 294 1253 
Q 294 1797 489 2255 
Q 684 2713 1069 3078 
Q 1331 3328 1684 3456 
Q 2038 3584 2456 3584 
Q 2700 3584 2940 3529 
Q 3181 3475 3431 3366 
z
" transform="scale(0.015625)"/>
       <path id="DejaVuSans-Oblique-73" d="M 3200 3397 
L 3091 2853 
Q 2863 2978 2609 3040 
Q 2356 3103 2088 3103 
Q 1634 3103 1373 2948 
Q 1113 2794 1113 2528 
Q 1113 2219 1719 2053 
Q 1766 2041 1788 2034 
L 1972 1978 
Q 2547 1819 2739 1644 
Q 2931 1469 2931 1166 
Q 2931 609 2489 259 
Q 2047 -91 1331 -91 
Q 1053 -91 747 -37 
Q 441 16 72 128 
L 184 722 
Q 500 559 806 475 
Q 1113 391 1394 391 
Q 1816 391 2080 572 
Q 2344 753 2344 1031 
Q 2344 1331 1650 1516 
L 1591 1531 
L 1394 1581 
Q 956 1697 753 1886 
Q 550 2075 550 2369 
Q 550 2928 970 3256 
Q 1391 3584 2113 3584 
Q 2397 3584 2667 3537 
Q 2938 3491 3200 3397 
z
" transform="scale(0.015625)"/>
      </defs>
      <use xlink:href="#DejaVuSans-Oblique-4d"/>
      <use xlink:href="#DejaVuSans-Oblique-69" x="86.279297"/>
      <use xlink:href="#DejaVuSans-Oblique-6c" x="114.0625"/>
      <use xlink:href="#DejaVuSans-Oblique-6c" x="141.845703"/>
      <use xlink:href="#DejaVuSans-Oblique-69" x="169.628906"/>
      <use xlink:href="#DejaVuSans-Oblique-6f" x="197.412109"/>
      <use xlink:href="#DejaVuSans-Oblique-6e" x="258.59375"/>
      <use xlink:href="#DejaVuSans-Oblique-20" x="321.972656"/>
      <use xlink:href="#DejaVuSans-Oblique-50" x="353.759766"/>
      <use xlink:href="#DejaVuSans-Oblique-69" x="414.0625"/>
      <use xlink:href="#DejaVuSans-Oblique-65" x="441.845703"/>
      <use xlink:href="#DejaVuSans-Oblique-63" x="503.369141"/>
      <use xlink:href="#DejaVuSans-Oblique-65" x="558.349609"/>
      <use xlink:href="#DejaVuSans-Oblique-73" x="619.873047"/>
     </g>
    </g>
   </g>
   <g id="line2d_39">
    <path d="M 89.301307 273.312 
L 89.301307 7.2 
" clip-path="url(#p02577ea9de)" style="fill: none; stroke-dasharray: 5.55,2.4; stroke-dashoffset: 0; stroke: #bbbbbb; stroke-width: 1.5"/>
   </g>
   <g id="line2d_40">
    <path d="M 219.163125 273.312 
L 219.163125 7.2 
" clip-path="url(#p02577ea9de)" style="fill: none; stroke-dasharray: 5.55,2.4; stroke-dashoffset: 0; stroke: #bbbbbb; stroke-width: 1.5"/>
   </g>
   <g id="patch_3">
    <path d="M 40.603125 273.312 
L 40.603125 7.2 
" style="fill: none; stroke: #000000; stroke-width: 0.8; stroke-linejoin: miter; stroke-linecap: square"/>
   </g>
   <g id="patch_4">
    <path d="M 397.723125 273.312 
L 397.723125 7.2 
" style="fill: none; stroke: #000000; stroke-width: 0.8; stroke-linejoin: miter; stroke-linecap: square"/>
   </g>
   <g id="patch_5">
    <path d="M 40.603125 273.312 
L 397.723125 273.312 
" style="fill: none; stroke: #000000; stroke-width: 0.8; stroke-linejoin: miter; stroke-linecap: square"/>
   </g>
   <g id="patch_6">
    <path d="M 40.603125 7.2 
L 397.723125 7.2 
" style="fill: none; stroke: #000000; stroke-width: 0.8; stroke-linejoin: miter; stroke-linecap: square"/>
   </g>
   <g id="patch_7">
    <path d="M 44.661307 273.312 
L 52.77767 273.312 
L 52.77767 207.767172 
L 44.661307 207.767172 
z
" clip-path="url(#p02577ea9de)" style="fill: #7e372e"/>
   </g>
   <g id="patch_8">
    <path d="M 60.894034 273.312 
L 69.010398 273.312 
L 69.010398 220.876138 
L 60.894034 220.876138 
z
" clip-path="url(#p02577ea9de)" style="fill: #7e372e"/>
   </g>
   <g id="patch_9">
    <path d="M 77.126761 273.312 
L 85.243125 273.312 
L 85.243125 231.072 
L 77.126761 231.072 
z
" clip-path="url(#p02577ea9de)" style="fill: #7e372e"/>
   </g>
   <g id="patch_10">
    <path d="M 93.359489 273.312 
L 101.475852 273.312 
L 101.475852 223.060966 
L 93.359489 223.060966 
z
" clip-path="url(#p02577ea9de)" style="fill: #7e372e"/>
   </g>
   <g id="patch_11">
    <path d="M 109.592216 273.312 
L 117.70858 273.312 
L 117.70858 190.288552 
L 109.592216 190.288552 
z
" clip-path="url(#p02577ea9de)" style="fill: #7e372e"/>
   </g>
   <g id="patch_12">
    <path d="M 125.824943 273.312 
L 133.941307 273.312 
L 133.941307 176.45131 
L 125.824943 176.45131 
z
" clip-path="url(#p02577ea9de)" style="fill: #7e372e"/>
   </g>
   <g id="patch_13">
    <path d="M 142.05767 273.312 
L 150.174034 273.312 
L 150.174034 211.408552 
L 142.05767 211.408552 
z
" clip-path="url(#p02577ea9de)" style="fill: #7e372e"/>
   </g>
   <g id="patch_14">
    <path d="M 158.290398 273.312 
L 166.406761 273.312 
L 166.406761 204.854069 
L 158.290398 204.854069 
z
" clip-path="url(#p02577ea9de)" style="fill: #7e372e"/>
   </g>
   <g id="patch_15">
    <path d="M 174.523125 273.312 
L 182.639489 273.312 
L 182.639489 183.005793 
L 174.523125 183.005793 
z
" clip-path="url(#p02577ea9de)" style="fill: #7e372e"/>
   </g>
   <g id="patch_16">
    <path d="M 190.755852 273.312 
L 198.872216 273.312 
L 198.872216 234.713379 
L 190.755852 234.713379 
z
" clip-path="url(#p02577ea9de)" style="fill: #7e372e"/>
   </g>
   <g id="patch_17">
    <path d="M 206.98858 273.312 
L 215.104943 273.312 
L 215.104943 236.898207 
L 206.98858 236.898207 
z
" clip-path="url(#p02577ea9de)" style="fill: #7e372e"/>
   </g>
   <g id="patch_18">
    <path d="M 223.221307 273.312 
L 231.33767 273.312 
L 231.33767 273.312 
L 223.221307 273.312 
z
" clip-path="url(#p02577ea9de)" style="fill: #7e372e"/>
   </g>
   <g id="patch_19">
    <path d="M 239.454034 273.312 
L 247.570398 273.312 
L 247.570398 273.312 
L 239.454034 273.312 
z
" clip-path="url(#p02577ea9de)" style="fill: #7e372e"/>
   </g>
   <g id="patch_20">
    <path d="M 255.686761 273.312 
L 263.803125 273.312 
L 263.803125 273.312 
L 255.686761 273.312 
z
" clip-path="url(#p02577ea9de)" style="fill: #7e372e"/>
   </g>
   <g id="patch_21">
    <path d="M 271.919489 273.312 
L 280.035852 273.312 
L 280.035852 273.312 
L 271.919489 273.312 
z
" clip-path="url(#p02577ea9de)" style="fill: #7e372e"/>
   </g>
   <g id="patch_22">
    <path d="M 288.152216 273.312 
L 296.26858 273.312 
L 296.26858 273.312 
L 288.152216 273.312 
z
" clip-path="url(#p02577ea9de)" style="fill: #7e372e"/>
   </g>
   <g id="patch_23">
    <path d="M 304.384943 273.312 
L 312.501307 273.312 
L 312.501307 273.312 
L 304.384943 273.312 
z
" clip-path="url(#p02577ea9de)" style="fill: #7e372e"/>
   </g>
   <g id="patch_24">
    <path d="M 320.61767 273.312 
L 328.734034 273.312 
L 328.734034 273.312 
L 320.61767 273.312 
z
" clip-path="url(#p02577ea9de)" style="fill: #7e372e"/>
   </g>
   <g id="patch_25">
    <path d="M 336.850398 273.312 
L 344.966761 273.312 
L 344.966761 273.312 
L 336.850398 273.312 
z
" clip-path="url(#p02577ea9de)" style="fill: #7e372e"/>
   </g>
   <g id="patch_26">
    <path d="M 353.083125 273.312 
L 361.199489 273.312 
L 361.199489 273.312 
L 353.083125 273.312 
z
" clip-path="url(#p02577ea9de)" style="fill: #7e372e"/>
   </g>
   <g id="patch_27">
    <path d="M 369.315852 273.312 
L 377.432216 273.312 
L 377.432216 273.312 
L 369.315852 273.312 
z
" clip-path="url(#p02577ea9de)" style="fill: #7e372e"/>
   </g>
   <g id="patch_28">
    <path d="M 385.54858 273.312 
L 393.664943 273.312 
L 393.664943 273.312 
L 385.54858 273.312 
z
" clip-path="url(#p02577ea9de)" style="fill: #7e372e"/>
   </g>
   <g id="patch_29">
    <path d="M 44.661307 273.312 
L 52.77767 273.312 
L 52.77767 273.312 
L 44.661307 273.312 
z
" clip-path="url(#p02577ea9de)" style="fill: #384c86"/>
   </g>
   <g id="patch_30">
    <path d="M 60.894034 273.312 
L 69.010398 273.312 
L 69.010398 273.312 
L 60.894034 273.312 
z
" clip-path="url(#p02577ea9de)" style="fill: #384c86"/>
   </g>
   <g id="patch_31">
    <path d="M 77.126761 273.312 
L 85.243125 273.312 
L 85.243125 273.312 
L 77.126761 273.312 
z
" clip-path="url(#p02577ea9de)" style="fill: #384c86"/>
   </g>
   <g id="patch_32">
    <path d="M 93.359489 273.312 
L 101.475852 273.312 
L 101.475852 273.312 
L 93.359489 273.312 
z
" clip-path="url(#p02577ea9de)" style="fill: #384c86"/>
   </g>
   <g id="patch_33">
    <path d="M 109.592216 273.312 
L 117.70858 273.312 
L 117.70858 273.312 
L 109.592216 273.312 
z
" clip-path="url(#p02577ea9de)" style="fill: #384c86"/>
   </g>
   <g id="patch_34">
    <path d="M 125.824943 273.312 
L 133.941307 273.312 
L 133.941307 273.312 
L 125.824943 273.312 
z
" clip-path="url(#p02577ea9de)" style="fill: #384c86"/>
   </g>
   <g id="patch_35">
    <path d="M 142.05767 273.312 
L 150.174034 273.312 
L 150.174034 273.312 
L 142.05767 273.312 
z
" clip-path="url(#p02577ea9de)" style="fill: #384c86"/>
   </g>
   <g id="patch_36">
    <path d="M 158.290398 273.312 
L 166.406761 273.312 
L 166.406761 273.312 
L 158.290398 273.312 
z
" clip-path="url(#p02577ea9de)" style="fill: #384c86"/>
   </g>
   <g id="patch_37">
    <path d="M 174.523125 273.312 
L 182.639489 273.312 
L 182.639489 273.312 
L 174.523125 273.312 
z
" clip-path="url(#p02577ea9de)" style="fill: #384c86"/>
   </g>
   <g id="patch_38">
    <path d="M 190.755852 273.312 
L 198.872216 273.312 
L 198.872216 273.312 
L 190.755852 273.312 
z
" clip-path="url(#p02577ea9de)" style="fill: #384c86"/>
   </g>
   <g id="patch_39">
    <path d="M 206.98858 273.312 
L 215.104943 273.312 
L 215.104943 273.312 
L 206.98858 273.312 
z
" clip-path="url(#p02577ea9de)" style="fill: #384c86"/>
   </g>
   <g id="patch_40">
    <path d="M 223.221307 273.312 
L 231.33767 273.312 
L 231.33767 86.873379 
L 223.221307 86.873379 
z
" clip-path="url(#p02577ea9de)" style="fill: #384c86"/>
   </g>
   <g id="patch_41">
    <path d="M 239.454034 273.312 
L 247.570398 273.312 
L 247.570398 118.917517 
L 239.454034 118.917517 
z
" clip-path="url(#p02577ea9de)" style="fill: #384c86"/>
   </g>
   <g id="patch_42">
    <path d="M 255.686761 273.312 
L 263.803125 273.312 
L 263.803125 129.113379 
L 255.686761 129.113379 
z
" clip-path="url(#p02577ea9de)" style="fill: #384c86"/>
   </g>
   <g id="patch_43">
    <path d="M 271.919489 273.312 
L 280.035852 273.312 
L 280.035852 153.146483 
L 271.919489 153.146483 
z
" clip-path="url(#p02577ea9de)" style="fill: #384c86"/>
   </g>
   <g id="patch_44">
    <path d="M 288.152216 273.312 
L 296.26858 273.312 
L 296.26858 124.743724 
L 288.152216 124.743724 
z
" clip-path="url(#p02577ea9de)" style="fill: #384c86"/>
   </g>
   <g id="patch_45">
    <path d="M 304.384943 273.312 
L 312.501307 273.312 
L 312.501307 54.100966 
L 304.384943 54.100966 
z
" clip-path="url(#p02577ea9de)" style="fill: #384c86"/>
   </g>
   <g id="patch_46">
    <path d="M 320.61767 273.312 
L 328.734034 273.312 
L 328.734034 90.514759 
L 320.61767 90.514759 
z
" clip-path="url(#p02577ea9de)" style="fill: #384c86"/>
   </g>
   <g id="patch_47">
    <path d="M 336.850398 273.312 
L 344.966761 273.312 
L 344.966761 208.495448 
L 336.850398 208.495448 
z
" clip-path="url(#p02577ea9de)" style="fill: #384c86"/>
   </g>
   <g id="patch_48">
    <path d="M 353.083125 273.312 
L 361.199489 273.312 
L 361.199489 220.876138 
L 353.083125 220.876138 
z
" clip-path="url(#p02577ea9de)" style="fill: #384c86"/>
   </g>
   <g id="patch_49">
    <path d="M 369.315852 273.312 
L 377.432216 273.312 
L 377.432216 150.233379 
L 369.315852 150.233379 
z
" clip-path="url(#p02577ea9de)" style="fill: #384c86"/>
   </g>
   <g id="patch_50">
    <path d="M 385.54858 273.312 
L 393.664943 273.312 
L 393.664943 155.33131 
L 385.54858 155.33131 
z
" clip-path="url(#p02577ea9de)" style="fill: #384c86"/>
   </g>
   <g id="patch_51">
    <path d="M 44.661307 273.312 
L 52.77767 273.312 
L 52.77767 273.312 
L 44.661307 273.312 
z
" clip-path="url(#p02577ea9de)" style="fill: #fdba17"/>
   </g>
   <g id="patch_52">
    <path d="M 60.894034 273.312 
L 69.010398 273.312 
L 69.010398 273.312 
L 60.894034 273.312 
z
" clip-path="url(#p02577ea9de)" style="fill: #fdba17"/>
   </g>
   <g id="patch_53">
    <path d="M 77.126761 273.312 
L 85.243125 273.312 
L 85.243125 273.312 
L 77.126761 273.312 
z
" clip-path="url(#p02577ea9de)" style="fill: #fdba17"/>
   </g>
   <g id="patch_54">
    <path d="M 93.359489 223.060966 
L 101.475852 223.060966 
L 101.475852 219.228778 
L 93.359489 219.228778 
z
" clip-path="url(#p02577ea9de)" style="fill: #fdba17"/>
   </g>
   <g id="patch_55">
    <path d="M 109.592216 190.288552 
L 117.70858 190.288552 
L 117.70858 184.784243 
L 109.592216 184.784243 
z
" clip-path="url(#p02577ea9de)" style="fill: #fdba17"/>
   </g>
   <g id="patch_56">
    <path d="M 125.824943 176.45131 
L 133.941307 176.45131 
L 133.941307 171.452425 
L 125.824943 171.452425 
z
" clip-path="url(#p02577ea9de)" style="fill: #fdba17"/>
   </g>
   <g id="patch_57">
    <path d="M 142.05767 211.408552 
L 150.174034 211.408552 
L 150.174034 204.125793 
L 142.05767 204.125793 
z
" clip-path="url(#p02577ea9de)" style="fill: #fdba17"/>
   </g>
   <g id="patch_58">
    <path d="M 158.290398 204.854069 
L 166.406761 204.854069 
L 166.406761 201.348149 
L 158.290398 201.348149 
z
" clip-path="url(#p02577ea9de)" style="fill: #fdba17"/>
   </g>
   <g id="patch_59">
    <path d="M 174.523125 183.005793 
L 182.639489 183.005793 
L 182.639489 175.723034 
L 174.523125 175.723034 
z
" clip-path="url(#p02577ea9de)" style="fill: #fdba17"/>
   </g>
   <g id="patch_60">
    <path d="M 190.755852 234.713379 
L 198.872216 234.713379 
L 198.872216 228.818714 
L 190.755852 228.818714 
z
" clip-path="url(#p02577ea9de)" style="fill: #fdba17"/>
   </g>
   <g id="patch_61">
    <path d="M 206.98858 236.898207 
L 215.104943 236.898207 
L 215.104943 230.981694 
L 206.98858 230.981694 
z
" clip-path="url(#p02577ea9de)" style="fill: #fdba17"/>
   </g>
   <g id="patch_62">
    <path d="M 223.221307 273.312 
L 231.33767 273.312 
L 231.33767 273.312 
L 223.221307 273.312 
z
" clip-path="url(#p02577ea9de)" style="fill: #fdba17"/>
   </g>
   <g id="patch_63">
    <path d="M 239.454034 273.312 
L 247.570398 273.312 
L 247.570398 273.312 
L 239.454034 273.312 
z
" clip-path="url(#p02577ea9de)" style="fill: #fdba17"/>
   </g>
   <g id="patch_64">
    <path d="M 255.686761 273.312 
L 263.803125 273.312 
L 263.803125 273.312 
L 255.686761 273.312 
z
" clip-path="url(#p02577ea9de)" style="fill: #fdba17"/>
   </g>
   <g id="patch_65">
    <path d="M 271.919489 273.312 
L 280.035852 273.312 
L 280.035852 273.312 
L 271.919489 273.312 
z
" clip-path="url(#p02577ea9de)" style="fill: #fdba17"/>
   </g>
   <g id="patch_66">
    <path d="M 288.152216 273.312 
L 296.26858 273.312 
L 296.26858 273.312 
L 288.152216 273.312 
z
" clip-path="url(#p02577ea9de)" style="fill: #fdba17"/>
   </g>
   <g id="patch_67">
    <path d="M 304.384943 273.312 
L 312.501307 273.312 
L 312.501307 273.312 
L 304.384943 273.312 
z
" clip-path="url(#p02577ea9de)" style="fill: #fdba17"/>
   </g>
   <g id="patch_68">
    <path d="M 320.61767 273.312 
L 328.734034 273.312 
L 328.734034 273.312 
L 320.61767 273.312 
z
" clip-path="url(#p02577ea9de)" style="fill: #fdba17"/>
   </g>
   <g id="patch_69">
    <path d="M 336.850398 273.312 
L 344.966761 273.312 
L 344.966761 273.312 
L 336.850398 273.312 
z
" clip-path="url(#p02577ea9de)" style="fill: #fdba17"/>
   </g>
   <g id="patch_70">
    <path d="M 353.083125 273.312 
L 361.199489 273.312 
L 361.199489 273.312 
L 353.083125 273.312 
z
" clip-path="url(#p02577ea9de)" style="fill: #fdba17"/>
   </g>
   <g id="patch_71">
    <path d="M 369.315852 273.312 
L 377.432216 273.312 
L 377.432216 273.312 
L 369.315852 273.312 
z
" clip-path="url(#p02577ea9de)" style="fill: #fdba17"/>
   </g>
   <g id="patch_72">
    <path d="M 385.54858 273.312 
L 393.664943 273.312 
L 393.664943 273.312 
L 385.54858 273.312 
z
" clip-path="url(#p02577ea9de)" style="fill: #fdba17"/>
   </g>
   <g id="patch_73">
    <path d="M 44.661307 273.312 
L 52.77767 273.312 
L 52.77767 273.312 
L 44.661307 273.312 
z
" clip-path="url(#p02577ea9de)" style="fill: #84e278"/>
   </g>
   <g id="patch_74">
    <path d="M 60.894034 273.312 
L 69.010398 273.312 
L 69.010398 273.312 
L 60.894034 273.312 
z
" clip-path="url(#p02577ea9de)" style="fill: #84e278"/>
   </g>
   <g id="patch_75">
    <path d="M 77.126761 273.312 
L 85.243125 273.312 
L 85.243125 273.312 
L 77.126761 273.312 
z
" clip-path="url(#p02577ea9de)" style="fill: #84e278"/>
   </g>
   <g id="patch_76">
    <path d="M 93.359489 273.312 
L 101.475852 273.312 
L 101.475852 273.312 
L 93.359489 273.312 
z
" clip-path="url(#p02577ea9de)" style="fill: #84e278"/>
   </g>
   <g id="patch_77">
    <path d="M 109.592216 273.312 
L 117.70858 273.312 
L 117.70858 273.312 
L 109.592216 273.312 
z
" clip-path="url(#p02577ea9de)" style="fill: #84e278"/>
   </g>
   <g id="patch_78">
    <path d="M 125.824943 273.312 
L 133.941307 273.312 
L 133.941307 273.312 
L 125.824943 273.312 
z
" clip-path="url(#p02577ea9de)" style="fill: #84e278"/>
   </g>
   <g id="patch_79">
    <path d="M 142.05767 273.312 
L 150.174034 273.312 
L 150.174034 273.312 
L 142.05767 273.312 
z
" clip-path="url(#p02577ea9de)" style="fill: #84e278"/>
   </g>
   <g id="patch_80">
    <path d="M 158.290398 273.312 
L 166.406761 273.312 
L 166.406761 273.312 
L 158.290398 273.312 
z
" clip-path="url(#p02577ea9de)" style="fill: #84e278"/>
   </g>
   <g id="patch_81">
    <path d="M 174.523125 273.312 
L 182.639489 273.312 
L 182.639489 273.312 
L 174.523125 273.312 
z
" clip-path="url(#p02577ea9de)" style="fill: #84e278"/>
   </g>
   <g id="patch_82">
    <path d="M 190.755852 273.312 
L 198.872216 273.312 
L 198.872216 273.312 
L 190.755852 273.312 
z
" clip-path="url(#p02577ea9de)" style="fill: #84e278"/>
   </g>
   <g id="patch_83">
    <path d="M 206.98858 273.312 
L 215.104943 273.312 
L 215.104943 273.312 
L 206.98858 273.312 
z
" clip-path="url(#p02577ea9de)" style="fill: #84e278"/>
   </g>
   <g id="patch_84">
    <path d="M 223.221307 86.873379 
L 231.33767 86.873379 
L 231.33767 76.677517 
L 223.221307 76.677517 
z
" clip-path="url(#p02577ea9de)" style="fill: #84e278"/>
   </g>
   <g id="patch_85">
    <path d="M 239.454034 118.917517 
L 247.570398 118.917517 
L 247.570398 107.265103 
L 239.454034 107.265103 
z
" clip-path="url(#p02577ea9de)" style="fill: #84e278"/>
   </g>
   <g id="patch_86">
    <path d="M 255.686761 129.113379 
L 263.803125 129.113379 
L 263.803125 110.178207 
L 255.686761 110.178207 
z
" clip-path="url(#p02577ea9de)" style="fill: #84e278"/>
   </g>
   <g id="patch_87">
    <path d="M 271.919489 153.146483 
L 280.035852 153.146483 
L 280.035852 142.222345 
L 271.919489 142.222345 
z
" clip-path="url(#p02577ea9de)" style="fill: #84e278"/>
   </g>
   <g id="patch_88">
    <path d="M 288.152216 124.743724 
L 296.26858 124.743724 
L 296.26858 116.004414 
L 288.152216 116.004414 
z
" clip-path="url(#p02577ea9de)" style="fill: #84e278"/>
   </g>
   <g id="patch_89">
    <path d="M 304.384943 54.100966 
L 312.501307 54.100966 
L 312.501307 44.633379 
L 304.384943 44.633379 
z
" clip-path="url(#p02577ea9de)" style="fill: #84e278"/>
   </g>
   <g id="patch_90">
    <path d="M 320.61767 90.514759 
L 328.734034 90.514759 
L 328.734034 19.872 
L 320.61767 19.872 
z
" clip-path="url(#p02577ea9de)" style="fill: #84e278"/>
   </g>
   <g id="patch_91">
    <path d="M 336.850398 208.495448 
L 344.966761 208.495448 
L 344.966761 145.135448 
L 336.850398 145.135448 
z
" clip-path="url(#p02577ea9de)" style="fill: #84e278"/>
   </g>
   <g id="patch_92">
    <path d="M 353.083125 220.876138 
L 361.199489 220.876138 
L 361.199489 208.495448 
L 353.083125 208.495448 
z
" clip-path="url(#p02577ea9de)" style="fill: #84e278"/>
   </g>
   <g id="patch_93">
    <path d="M 369.315852 150.233379 
L 377.432216 150.233379 
L 377.432216 138.580966 
L 369.315852 138.580966 
z
" clip-path="url(#p02577ea9de)" style="fill: #84e278"/>
   </g>
   <g id="patch_94">
    <path d="M 385.54858 155.33131 
L 393.664943 155.33131 
L 393.664943 140.037517 
L 385.54858 140.037517 
z
" clip-path="url(#p02577ea9de)" style="fill: #84e278"/>
   </g>
   <g id="legend_1">
    <g id="patch_95">
     <path d="M 47.603125 73.9125 
L 213.85625 73.9125 
Q 215.85625 73.9125 215.85625 71.9125 
L 215.85625 14.2 
Q 215.85625 12.2 213.85625 12.2 
L 47.603125 12.2 
Q 45.603125 12.2 45.603125 14.2 
L 45.603125 71.9125 
Q 45.603125 73.9125 47.603125 73.9125 
z
" style="fill: #ffffff; opacity: 0.8; stroke: #cccccc; stroke-linejoin: miter"/>
    </g>
    <g id="patch_96">
     <path d="M 49.603125 23.798437 
L 69.603125 23.798437 
L 69.603125 16.798437 
L 49.603125 16.798437 
z
" style="fill: #7e372e"/>
    </g>
    <g id="text_16">
     <!-- Facebook: Original Metric -->
     <g transform="translate(77.603125 23.798437) scale(0.1 -0.1)">
      <defs>
       <path id="DejaVuSans-46" d="M 628 4666 
L 3309 4666 
L 3309 4134 
L 1259 4134 
L 1259 2759 
L 3109 2759 
L 3109 2228 
L 1259 2228 
L 1259 0 
L 628 0 
L 628 4666 
z
" transform="scale(0.015625)"/>
       <path id="DejaVuSans-61" d="M 2194 1759 
Q 1497 1759 1228 1600 
Q 959 1441 959 1056 
Q 959 750 1161 570 
Q 1363 391 1709 391 
Q 2188 391 2477 730 
Q 2766 1069 2766 1631 
L 2766 1759 
L 2194 1759 
z
M 3341 1997 
L 3341 0 
L 2766 0 
L 2766 531 
Q 2569 213 2275 61 
Q 1981 -91 1556 -91 
Q 1019 -91 701 211 
Q 384 513 384 1019 
Q 384 1609 779 1909 
Q 1175 2209 1959 2209 
L 2766 2209 
L 2766 2266 
Q 2766 2663 2505 2880 
Q 2244 3097 1772 3097 
Q 1472 3097 1187 3025 
Q 903 2953 641 2809 
L 641 3341 
Q 956 3463 1253 3523 
Q 1550 3584 1831 3584 
Q 2591 3584 2966 3190 
Q 3341 2797 3341 1997 
z
" transform="scale(0.015625)"/>
       <path id="DejaVuSans-63" d="M 3122 3366 
L 3122 2828 
Q 2878 2963 2633 3030 
Q 2388 3097 2138 3097 
Q 1578 3097 1268 2742 
Q 959 2388 959 1747 
Q 959 1106 1268 751 
Q 1578 397 2138 397 
Q 2388 397 2633 464 
Q 2878 531 3122 666 
L 3122 134 
Q 2881 22 2623 -34 
Q 2366 -91 2075 -91 
Q 1284 -91 818 406 
Q 353 903 353 1747 
Q 353 2603 823 3093 
Q 1294 3584 2113 3584 
Q 2378 3584 2631 3529 
Q 2884 3475 3122 3366 
z
" transform="scale(0.015625)"/>
       <path id="DejaVuSans-65" d="M 3597 1894 
L 3597 1613 
L 953 1613 
Q 991 1019 1311 708 
Q 1631 397 2203 397 
Q 2534 397 2845 478 
Q 3156 559 3463 722 
L 3463 178 
Q 3153 47 2828 -22 
Q 2503 -91 2169 -91 
Q 1331 -91 842 396 
Q 353 884 353 1716 
Q 353 2575 817 3079 
Q 1281 3584 2069 3584 
Q 2775 3584 3186 3129 
Q 3597 2675 3597 1894 
z
M 3022 2063 
Q 3016 2534 2758 2815 
Q 2500 3097 2075 3097 
Q 1594 3097 1305 2825 
Q 1016 2553 972 2059 
L 3022 2063 
z
" transform="scale(0.015625)"/>
       <path id="DejaVuSans-62" d="M 3116 1747 
Q 3116 2381 2855 2742 
Q 2594 3103 2138 3103 
Q 1681 3103 1420 2742 
Q 1159 2381 1159 1747 
Q 1159 1113 1420 752 
Q 1681 391 2138 391 
Q 2594 391 2855 752 
Q 3116 1113 3116 1747 
z
M 1159 2969 
Q 1341 3281 1617 3432 
Q 1894 3584 2278 3584 
Q 2916 3584 3314 3078 
Q 3713 2572 3713 1747 
Q 3713 922 3314 415 
Q 2916 -91 2278 -91 
Q 1894 -91 1617 61 
Q 1341 213 1159 525 
L 1159 0 
L 581 0 
L 581 4863 
L 1159 4863 
L 1159 2969 
z
" transform="scale(0.015625)"/>
       <path id="DejaVuSans-6f" d="M 1959 3097 
Q 1497 3097 1228 2736 
Q 959 2375 959 1747 
Q 959 1119 1226 758 
Q 1494 397 1959 397 
Q 2419 397 2687 759 
Q 2956 1122 2956 1747 
Q 2956 2369 2687 2733 
Q 2419 3097 1959 3097 
z
M 1959 3584 
Q 2709 3584 3137 3096 
Q 3566 2609 3566 1747 
Q 3566 888 3137 398 
Q 2709 -91 1959 -91 
Q 1206 -91 779 398 
Q 353 888 353 1747 
Q 353 2609 779 3096 
Q 1206 3584 1959 3584 
z
" transform="scale(0.015625)"/>
       <path id="DejaVuSans-6b" d="M 581 4863 
L 1159 4863 
L 1159 1991 
L 2875 3500 
L 3609 3500 
L 1753 1863 
L 3688 0 
L 2938 0 
L 1159 1709 
L 1159 0 
L 581 0 
L 581 4863 
z
" transform="scale(0.015625)"/>
       <path id="DejaVuSans-3a" d="M 750 794 
L 1409 794 
L 1409 0 
L 750 0 
L 750 794 
z
M 750 3309 
L 1409 3309 
L 1409 2516 
L 750 2516 
L 750 3309 
z
" transform="scale(0.015625)"/>
       <path id="DejaVuSans-20" transform="scale(0.015625)"/>
       <path id="DejaVuSans-4f" d="M 2522 4238 
Q 1834 4238 1429 3725 
Q 1025 3213 1025 2328 
Q 1025 1447 1429 934 
Q 1834 422 2522 422 
Q 3209 422 3611 934 
Q 4013 1447 4013 2328 
Q 4013 3213 3611 3725 
Q 3209 4238 2522 4238 
z
M 2522 4750 
Q 3503 4750 4090 4092 
Q 4678 3434 4678 2328 
Q 4678 1225 4090 567 
Q 3503 -91 2522 -91 
Q 1538 -91 948 565 
Q 359 1222 359 2328 
Q 359 3434 948 4092 
Q 1538 4750 2522 4750 
z
" transform="scale(0.015625)"/>
       <path id="DejaVuSans-72" d="M 2631 2963 
Q 2534 3019 2420 3045 
Q 2306 3072 2169 3072 
Q 1681 3072 1420 2755 
Q 1159 2438 1159 1844 
L 1159 0 
L 581 0 
L 581 3500 
L 1159 3500 
L 1159 2956 
Q 1341 3275 1631 3429 
Q 1922 3584 2338 3584 
Q 2397 3584 2469 3576 
Q 2541 3569 2628 3553 
L 2631 2963 
z
" transform="scale(0.015625)"/>
       <path id="DejaVuSans-69" d="M 603 3500 
L 1178 3500 
L 1178 0 
L 603 0 
L 603 3500 
z
M 603 4863 
L 1178 4863 
L 1178 4134 
L 603 4134 
L 603 4863 
z
" transform="scale(0.015625)"/>
       <path id="DejaVuSans-67" d="M 2906 1791 
Q 2906 2416 2648 2759 
Q 2391 3103 1925 3103 
Q 1463 3103 1205 2759 
Q 947 2416 947 1791 
Q 947 1169 1205 825 
Q 1463 481 1925 481 
Q 2391 481 2648 825 
Q 2906 1169 2906 1791 
z
M 3481 434 
Q 3481 -459 3084 -895 
Q 2688 -1331 1869 -1331 
Q 1566 -1331 1297 -1286 
Q 1028 -1241 775 -1147 
L 775 -588 
Q 1028 -725 1275 -790 
Q 1522 -856 1778 -856 
Q 2344 -856 2625 -561 
Q 2906 -266 2906 331 
L 2906 616 
Q 2728 306 2450 153 
Q 2172 0 1784 0 
Q 1141 0 747 490 
Q 353 981 353 1791 
Q 353 2603 747 3093 
Q 1141 3584 1784 3584 
Q 2172 3584 2450 3431 
Q 2728 3278 2906 2969 
L 2906 3500 
L 3481 3500 
L 3481 434 
z
" transform="scale(0.015625)"/>
       <path id="DejaVuSans-6e" d="M 3513 2113 
L 3513 0 
L 2938 0 
L 2938 2094 
Q 2938 2591 2744 2837 
Q 2550 3084 2163 3084 
Q 1697 3084 1428 2787 
Q 1159 2491 1159 1978 
L 1159 0 
L 581 0 
L 581 3500 
L 1159 3500 
L 1159 2956 
Q 1366 3272 1645 3428 
Q 1925 3584 2291 3584 
Q 2894 3584 3203 3211 
Q 3513 2838 3513 2113 
z
" transform="scale(0.015625)"/>
       <path id="DejaVuSans-6c" d="M 603 4863 
L 1178 4863 
L 1178 0 
L 603 0 
L 603 4863 
z
" transform="scale(0.015625)"/>
       <path id="DejaVuSans-4d" d="M 628 4666 
L 1569 4666 
L 2759 1491 
L 3956 4666 
L 4897 4666 
L 4897 0 
L 4281 0 
L 4281 4097 
L 3078 897 
L 2444 897 
L 1241 4097 
L 1241 0 
L 628 0 
L 628 4666 
z
" transform="scale(0.015625)"/>
       <path id="DejaVuSans-74" d="M 1172 4494 
L 1172 3500 
L 2356 3500 
L 2356 3053 
L 1172 3053 
L 1172 1153 
Q 1172 725 1289 603 
Q 1406 481 1766 481 
L 2356 481 
L 2356 0 
L 1766 0 
Q 1100 0 847 248 
Q 594 497 594 1153 
L 594 3053 
L 172 3053 
L 172 3500 
L 594 3500 
L 594 4494 
L 1172 4494 
z
" transform="scale(0.015625)"/>
      </defs>
      <use xlink:href="#DejaVuSans-46"/>
      <use xlink:href="#DejaVuSans-61" x="48.394531"/>
      <use xlink:href="#DejaVuSans-63" x="109.673828"/>
      <use xlink:href="#DejaVuSans-65" x="164.654297"/>
      <use xlink:href="#DejaVuSans-62" x="226.177734"/>
      <use xlink:href="#DejaVuSans-6f" x="289.654297"/>
      <use xlink:href="#DejaVuSans-6f" x="350.835938"/>
      <use xlink:href="#DejaVuSans-6b" x="412.017578"/>
      <use xlink:href="#DejaVuSans-3a" x="469.927734"/>
      <use xlink:href="#DejaVuSans-20" x="503.619141"/>
      <use xlink:href="#DejaVuSans-4f" x="535.40625"/>
      <use xlink:href="#DejaVuSans-72" x="614.117188"/>
      <use xlink:href="#DejaVuSans-69" x="655.230469"/>
      <use xlink:href="#DejaVuSans-67" x="683.013672"/>
      <use xlink:href="#DejaVuSans-69" x="746.490234"/>
      <use xlink:href="#DejaVuSans-6e" x="774.273438"/>
      <use xlink:href="#DejaVuSans-61" x="837.652344"/>
      <use xlink:href="#DejaVuSans-6c" x="898.931641"/>
      <use xlink:href="#DejaVuSans-20" x="926.714844"/>
      <use xlink:href="#DejaVuSans-4d" x="958.501953"/>
      <use xlink:href="#DejaVuSans-65" x="1044.78125"/>
      <use xlink:href="#DejaVuSans-74" x="1106.304688"/>
      <use xlink:href="#DejaVuSans-72" x="1145.513672"/>
      <use xlink:href="#DejaVuSans-69" x="1186.626953"/>
      <use xlink:href="#DejaVuSans-63" x="1214.410156"/>
     </g>
    </g>
    <g id="patch_97">
     <path d="M 49.603125 38.476562 
L 69.603125 38.476562 
L 69.603125 31.476562 
L 49.603125 31.476562 
z
" style="fill: #384c86"/>
    </g>
    <g id="text_17">
     <!-- Facebook: Updated Metric -->
     <g transform="translate(77.603125 38.476562) scale(0.1 -0.1)">
      <defs>
       <path id="DejaVuSans-55" d="M 556 4666 
L 1191 4666 
L 1191 1831 
Q 1191 1081 1462 751 
Q 1734 422 2344 422 
Q 2950 422 3222 751 
Q 3494 1081 3494 1831 
L 3494 4666 
L 4128 4666 
L 4128 1753 
Q 4128 841 3676 375 
Q 3225 -91 2344 -91 
Q 1459 -91 1007 375 
Q 556 841 556 1753 
L 556 4666 
z
" transform="scale(0.015625)"/>
       <path id="DejaVuSans-70" d="M 1159 525 
L 1159 -1331 
L 581 -1331 
L 581 3500 
L 1159 3500 
L 1159 2969 
Q 1341 3281 1617 3432 
Q 1894 3584 2278 3584 
Q 2916 3584 3314 3078 
Q 3713 2572 3713 1747 
Q 3713 922 3314 415 
Q 2916 -91 2278 -91 
Q 1894 -91 1617 61 
Q 1341 213 1159 525 
z
M 3116 1747 
Q 3116 2381 2855 2742 
Q 2594 3103 2138 3103 
Q 1681 3103 1420 2742 
Q 1159 2381 1159 1747 
Q 1159 1113 1420 752 
Q 1681 391 2138 391 
Q 2594 391 2855 752 
Q 3116 1113 3116 1747 
z
" transform="scale(0.015625)"/>
       <path id="DejaVuSans-64" d="M 2906 2969 
L 2906 4863 
L 3481 4863 
L 3481 0 
L 2906 0 
L 2906 525 
Q 2725 213 2448 61 
Q 2172 -91 1784 -91 
Q 1150 -91 751 415 
Q 353 922 353 1747 
Q 353 2572 751 3078 
Q 1150 3584 1784 3584 
Q 2172 3584 2448 3432 
Q 2725 3281 2906 2969 
z
M 947 1747 
Q 947 1113 1208 752 
Q 1469 391 1925 391 
Q 2381 391 2643 752 
Q 2906 1113 2906 1747 
Q 2906 2381 2643 2742 
Q 2381 3103 1925 3103 
Q 1469 3103 1208 2742 
Q 947 2381 947 1747 
z
" transform="scale(0.015625)"/>
      </defs>
      <use xlink:href="#DejaVuSans-46"/>
      <use xlink:href="#DejaVuSans-61" x="48.394531"/>
      <use xlink:href="#DejaVuSans-63" x="109.673828"/>
      <use xlink:href="#DejaVuSans-65" x="164.654297"/>
      <use xlink:href="#DejaVuSans-62" x="226.177734"/>
      <use xlink:href="#DejaVuSans-6f" x="289.654297"/>
      <use xlink:href="#DejaVuSans-6f" x="350.835938"/>
      <use xlink:href="#DejaVuSans-6b" x="412.017578"/>
      <use xlink:href="#DejaVuSans-3a" x="469.927734"/>
      <use xlink:href="#DejaVuSans-20" x="503.619141"/>
      <use xlink:href="#DejaVuSans-55" x="535.40625"/>
      <use xlink:href="#DejaVuSans-70" x="608.599609"/>
      <use xlink:href="#DejaVuSans-64" x="672.076172"/>
      <use xlink:href="#DejaVuSans-61" x="735.552734"/>
      <use xlink:href="#DejaVuSans-74" x="796.832031"/>
      <use xlink:href="#DejaVuSans-65" x="836.041016"/>
      <use xlink:href="#DejaVuSans-64" x="897.564453"/>
      <use xlink:href="#DejaVuSans-20" x="961.041016"/>
      <use xlink:href="#DejaVuSans-4d" x="992.828125"/>
      <use xlink:href="#DejaVuSans-65" x="1079.107422"/>
      <use xlink:href="#DejaVuSans-74" x="1140.630859"/>
      <use xlink:href="#DejaVuSans-72" x="1179.839844"/>
      <use xlink:href="#DejaVuSans-69" x="1220.953125"/>
      <use xlink:href="#DejaVuSans-63" x="1248.736328"/>
     </g>
    </g>
    <g id="patch_98">
     <path d="M 49.603125 53.154687 
L 69.603125 53.154687 
L 69.603125 46.154687 
L 49.603125 46.154687 
z
" style="fill: #fdba17"/>
    </g>
    <g id="text_18">
     <!-- Instagram: Original Metric -->
     <g transform="translate(77.603125 53.154687) scale(0.1 -0.1)">
      <defs>
       <path id="DejaVuSans-49" d="M 628 4666 
L 1259 4666 
L 1259 0 
L 628 0 
L 628 4666 
z
" transform="scale(0.015625)"/>
       <path id="DejaVuSans-73" d="M 2834 3397 
L 2834 2853 
Q 2591 2978 2328 3040 
Q 2066 3103 1784 3103 
Q 1356 3103 1142 2972 
Q 928 2841 928 2578 
Q 928 2378 1081 2264 
Q 1234 2150 1697 2047 
L 1894 2003 
Q 2506 1872 2764 1633 
Q 3022 1394 3022 966 
Q 3022 478 2636 193 
Q 2250 -91 1575 -91 
Q 1294 -91 989 -36 
Q 684 19 347 128 
L 347 722 
Q 666 556 975 473 
Q 1284 391 1588 391 
Q 1994 391 2212 530 
Q 2431 669 2431 922 
Q 2431 1156 2273 1281 
Q 2116 1406 1581 1522 
L 1381 1569 
Q 847 1681 609 1914 
Q 372 2147 372 2553 
Q 372 3047 722 3315 
Q 1072 3584 1716 3584 
Q 2034 3584 2315 3537 
Q 2597 3491 2834 3397 
z
" transform="scale(0.015625)"/>
       <path id="DejaVuSans-6d" d="M 3328 2828 
Q 3544 3216 3844 3400 
Q 4144 3584 4550 3584 
Q 5097 3584 5394 3201 
Q 5691 2819 5691 2113 
L 5691 0 
L 5113 0 
L 5113 2094 
Q 5113 2597 4934 2840 
Q 4756 3084 4391 3084 
Q 3944 3084 3684 2787 
Q 3425 2491 3425 1978 
L 3425 0 
L 2847 0 
L 2847 2094 
Q 2847 2600 2669 2842 
Q 2491 3084 2119 3084 
Q 1678 3084 1418 2786 
Q 1159 2488 1159 1978 
L 1159 0 
L 581 0 
L 581 3500 
L 1159 3500 
L 1159 2956 
Q 1356 3278 1631 3431 
Q 1906 3584 2284 3584 
Q 2666 3584 2933 3390 
Q 3200 3197 3328 2828 
z
" transform="scale(0.015625)"/>
      </defs>
      <use xlink:href="#DejaVuSans-49"/>
      <use xlink:href="#DejaVuSans-6e" x="29.492188"/>
      <use xlink:href="#DejaVuSans-73" x="92.871094"/>
      <use xlink:href="#DejaVuSans-74" x="144.970703"/>
      <use xlink:href="#DejaVuSans-61" x="184.179688"/>
      <use xlink:href="#DejaVuSans-67" x="245.458984"/>
      <use xlink:href="#DejaVuSans-72" x="308.935547"/>
      <use xlink:href="#DejaVuSans-61" x="350.048828"/>
      <use xlink:href="#DejaVuSans-6d" x="411.328125"/>
      <use xlink:href="#DejaVuSans-3a" x="508.740234"/>
      <use xlink:href="#DejaVuSans-20" x="542.431641"/>
      <use xlink:href="#DejaVuSans-4f" x="574.21875"/>
      <use xlink:href="#DejaVuSans-72" x="652.929688"/>
      <use xlink:href="#DejaVuSans-69" x="694.042969"/>
      <use xlink:href="#DejaVuSans-67" x="721.826172"/>
      <use xlink:href="#DejaVuSans-69" x="785.302734"/>
      <use xlink:href="#DejaVuSans-6e" x="813.085938"/>
      <use xlink:href="#DejaVuSans-61" x="876.464844"/>
      <use xlink:href="#DejaVuSans-6c" x="937.744141"/>
      <use xlink:href="#DejaVuSans-20" x="965.527344"/>
      <use xlink:href="#DejaVuSans-4d" x="997.314453"/>
      <use xlink:href="#DejaVuSans-65" x="1083.59375"/>
      <use xlink:href="#DejaVuSans-74" x="1145.117188"/>
      <use xlink:href="#DejaVuSans-72" x="1184.326172"/>
      <use xlink:href="#DejaVuSans-69" x="1225.439453"/>
      <use xlink:href="#DejaVuSans-63" x="1253.222656"/>
     </g>
    </g>
    <g id="patch_99">
     <path d="M 49.603125 67.832812 
L 69.603125 67.832812 
L 69.603125 60.832812 
L 49.603125 60.832812 
z
" style="fill: #84e278"/>
    </g>
    <g id="text_19">
     <!-- Instagram: Updated Metric -->
     <g transform="translate(77.603125 67.832812) scale(0.1 -0.1)">
      <use xlink:href="#DejaVuSans-49"/>
      <use xlink:href="#DejaVuSans-6e" x="29.492188"/>
      <use xlink:href="#DejaVuSans-73" x="92.871094"/>
      <use xlink:href="#DejaVuSans-74" x="144.970703"/>
      <use xlink:href="#DejaVuSans-61" x="184.179688"/>
      <use xlink:href="#DejaVuSans-67" x="245.458984"/>
      <use xlink:href="#DejaVuSans-72" x="308.935547"/>
      <use xlink:href="#DejaVuSans-61" x="350.048828"/>
      <use xlink:href="#DejaVuSans-6d" x="411.328125"/>
      <use xlink:href="#DejaVuSans-3a" x="508.740234"/>
      <use xlink:href="#DejaVuSans-20" x="542.431641"/>
      <use xlink:href="#DejaVuSans-55" x="574.21875"/>
      <use xlink:href="#DejaVuSans-70" x="647.412109"/>
      <use xlink:href="#DejaVuSans-64" x="710.888672"/>
      <use xlink:href="#DejaVuSans-61" x="774.365234"/>
      <use xlink:href="#DejaVuSans-74" x="835.644531"/>
      <use xlink:href="#DejaVuSans-65" x="874.853516"/>
      <use xlink:href="#DejaVuSans-64" x="936.376953"/>
      <use xlink:href="#DejaVuSans-20" x="999.853516"/>
      <use xlink:href="#DejaVuSans-4d" x="1031.640625"/>
      <use xlink:href="#DejaVuSans-65" x="1117.919922"/>
      <use xlink:href="#DejaVuSans-74" x="1179.443359"/>
      <use xlink:href="#DejaVuSans-72" x="1218.652344"/>
      <use xlink:href="#DejaVuSans-69" x="1259.765625"/>
      <use xlink:href="#DejaVuSans-63" x="1287.548828"/>
     </g>
    </g>
   </g>
  </g>
 </g>
 <defs>
  <clipPath id="p02577ea9de">
   <rect x="40.603125" y="7.2" width="357.12" height="266.112"/>
  </clipPath>
 </defs>
</svg>
