<?xml version="1.0" encoding="UTF-8"?>
<svg xmlns="http://www.w3.org/2000/svg" xmlns:xlink="http://www.w3.org/1999/xlink" width="504" height="504" viewBox="0 0 504 504">
<defs>
<g>
<g id="glyph-0-0">
<path d="M 0.390625 0 L 0.390625 -8.609375 L 7.21875 -8.609375 L 7.21875 0 Z M 6.140625 -1.078125 L 6.140625 -7.53125 L 1.46875 -7.53125 L 1.46875 -1.078125 Z M 6.140625 -1.078125 "/>
</g>
<g id="glyph-0-1">
<path d="M 0.5 -3.890625 L 3.4375 -3.890625 L 3.4375 -2.796875 L 0.5 -2.796875 Z M 0.5 -3.890625 "/>
</g>
<g id="glyph-0-2">
<path d="M 1.15625 -5.9375 L 1.15625 -6.75 C 1.914062 -6.820312 2.441406 -6.945312 2.734375 -7.125 C 3.035156 -7.300781 3.265625 -7.710938 3.421875 -8.359375 L 4.25 -8.359375 L 4.25 0 L 3.125 0 L 3.125 -5.9375 Z M 1.15625 -5.9375 "/>
</g>
<g id="glyph-0-3">
<path d="M 3.96875 -2.96875 L 3.96875 -6.78125 L 1.28125 -2.96875 Z M 3.984375 0 L 3.984375 -2.046875 L 0.3125 -2.046875 L 0.3125 -3.078125 L 4.15625 -8.421875 L 5.046875 -8.421875 L 5.046875 -2.96875 L 6.28125 -2.96875 L 6.28125 -2.046875 L 5.046875 -2.046875 L 5.046875 0 Z M 3.984375 0 "/>
</g>
<g id="glyph-0-4">
</g>
<g id="glyph-0-5">
<path d="M 0.375 0 C 0.414062 -0.71875 0.566406 -1.34375 0.828125 -1.875 C 1.085938 -2.414062 1.59375 -2.90625 2.34375 -3.34375 L 3.46875 -4 C 3.96875 -4.289062 4.320312 -4.539062 4.53125 -4.75 C 4.851562 -5.070312 5.015625 -5.441406 5.015625 -5.859375 C 5.015625 -6.347656 4.863281 -6.734375 4.5625 -7.015625 C 4.269531 -7.304688 3.882812 -7.453125 3.40625 -7.453125 C 2.675781 -7.453125 2.175781 -7.179688 1.90625 -6.640625 C 1.75 -6.335938 1.664062 -5.929688 1.65625 -5.421875 L 0.578125 -5.421875 C 0.585938 -6.148438 0.722656 -6.742188 0.984375 -7.203125 C 1.441406 -8.015625 2.25 -8.421875 3.40625 -8.421875 C 4.363281 -8.421875 5.0625 -8.160156 5.5 -7.640625 C 5.945312 -7.117188 6.171875 -6.539062 6.171875 -5.90625 C 6.171875 -5.238281 5.9375 -4.664062 5.46875 -4.1875 C 5.195312 -3.90625 4.707031 -3.566406 4 -3.171875 L 3.1875 -2.734375 C 2.8125 -2.523438 2.515625 -2.320312 2.296875 -2.125 C 1.898438 -1.789062 1.648438 -1.414062 1.546875 -1 L 6.140625 -1 L 6.140625 0 Z M 0.375 0 "/>
</g>
<g id="glyph-0-6">
<path d="M 3.25 -8.390625 C 4.332031 -8.390625 5.117188 -7.941406 5.609375 -7.046875 C 5.984375 -6.359375 6.171875 -5.410156 6.171875 -4.203125 C 6.171875 -3.066406 6 -2.125 5.65625 -1.375 C 5.164062 -0.300781 4.359375 0.234375 3.234375 0.234375 C 2.234375 0.234375 1.484375 -0.203125 0.984375 -1.078125 C 0.578125 -1.816406 0.375 -2.800781 0.375 -4.03125 C 0.375 -4.976562 0.5 -5.796875 0.75 -6.484375 C 1.207031 -7.753906 2.039062 -8.390625 3.25 -8.390625 Z M 3.234375 -0.734375 C 3.785156 -0.734375 4.222656 -0.972656 4.546875 -1.453125 C 4.867188 -1.941406 5.03125 -2.847656 5.03125 -4.171875 C 5.03125 -5.117188 4.910156 -5.898438 4.671875 -6.515625 C 4.441406 -7.128906 3.988281 -7.4375 3.3125 -7.4375 C 2.6875 -7.4375 2.226562 -7.144531 1.9375 -6.5625 C 1.65625 -5.976562 1.515625 -5.117188 1.515625 -3.984375 C 1.515625 -3.128906 1.609375 -2.441406 1.796875 -1.921875 C 2.078125 -1.128906 2.554688 -0.734375 3.234375 -0.734375 Z M 3.234375 -0.734375 "/>
</g>
<g id="glyph-0-7">
<path d="M 3.125 0.234375 C 2.125 0.234375 1.398438 -0.0351562 0.953125 -0.578125 C 0.503906 -1.128906 0.28125 -1.796875 0.28125 -2.578125 L 1.390625 -2.578125 C 1.429688 -2.035156 1.53125 -1.640625 1.6875 -1.390625 C 1.96875 -0.953125 2.460938 -0.734375 3.171875 -0.734375 C 3.734375 -0.734375 4.179688 -0.878906 4.515625 -1.171875 C 4.847656 -1.472656 5.015625 -1.859375 5.015625 -2.328125 C 5.015625 -2.898438 4.835938 -3.300781 4.484375 -3.53125 C 4.128906 -3.769531 3.640625 -3.890625 3.015625 -3.890625 C 2.941406 -3.890625 2.867188 -3.882812 2.796875 -3.875 C 2.722656 -3.875 2.648438 -3.875 2.578125 -3.875 L 2.578125 -4.8125 C 2.691406 -4.789062 2.785156 -4.78125 2.859375 -4.78125 C 2.929688 -4.78125 3.007812 -4.78125 3.09375 -4.78125 C 3.488281 -4.78125 3.8125 -4.84375 4.0625 -4.96875 C 4.507812 -5.1875 4.734375 -5.578125 4.734375 -6.140625 C 4.734375 -6.554688 4.582031 -6.875 4.28125 -7.09375 C 3.988281 -7.320312 3.644531 -7.4375 3.25 -7.4375 C 2.550781 -7.4375 2.066406 -7.203125 1.796875 -6.734375 C 1.648438 -6.484375 1.566406 -6.117188 1.546875 -5.640625 L 0.5 -5.640625 C 0.5 -6.265625 0.625 -6.796875 0.875 -7.234375 C 1.300781 -8.015625 2.054688 -8.40625 3.140625 -8.40625 C 3.992188 -8.40625 4.65625 -8.210938 5.125 -7.828125 C 5.59375 -7.453125 5.828125 -6.898438 5.828125 -6.171875 C 5.828125 -5.660156 5.691406 -5.242188 5.421875 -4.921875 C 5.242188 -4.722656 5.019531 -4.566406 4.75 -4.453125 C 5.1875 -4.328125 5.53125 -4.09375 5.78125 -3.75 C 6.03125 -3.40625 6.15625 -2.984375 6.15625 -2.484375 C 6.15625 -1.679688 5.890625 -1.023438 5.359375 -0.515625 C 4.835938 -0.015625 4.09375 0.234375 3.125 0.234375 Z M 3.125 0.234375 "/>
</g>
<g id="glyph-0-8">
<path d="M 1.03125 -8.609375 L 4.90625 -8.609375 C 5.664062 -8.609375 6.28125 -8.390625 6.75 -7.953125 C 7.21875 -7.523438 7.453125 -6.921875 7.453125 -6.140625 C 7.453125 -5.472656 7.242188 -4.890625 6.828125 -4.390625 C 6.410156 -3.890625 5.769531 -3.640625 4.90625 -3.640625 L 2.1875 -3.640625 L 2.1875 0 L 1.03125 0 Z M 6.28125 -6.140625 C 6.28125 -6.765625 6.046875 -7.191406 5.578125 -7.421875 C 5.316406 -7.546875 4.960938 -7.609375 4.515625 -7.609375 L 2.1875 -7.609375 L 2.1875 -4.625 L 4.515625 -4.625 C 5.035156 -4.625 5.457031 -4.734375 5.78125 -4.953125 C 6.113281 -5.179688 6.28125 -5.578125 6.28125 -6.140625 Z M 6.28125 -6.140625 "/>
</g>
<g id="glyph-0-9">
<path d="M 3.390625 -6.421875 C 3.835938 -6.421875 4.269531 -6.316406 4.6875 -6.109375 C 5.101562 -5.898438 5.421875 -5.628906 5.640625 -5.296875 C 5.847656 -4.972656 5.988281 -4.601562 6.0625 -4.1875 C 6.125 -3.894531 6.15625 -3.429688 6.15625 -2.796875 L 1.546875 -2.796875 C 1.566406 -2.160156 1.71875 -1.648438 2 -1.265625 C 2.28125 -0.878906 2.71875 -0.6875 3.3125 -0.6875 C 3.863281 -0.6875 4.300781 -0.867188 4.625 -1.234375 C 4.8125 -1.441406 4.945312 -1.6875 5.03125 -1.96875 L 6.0625 -1.96875 C 6.039062 -1.738281 5.953125 -1.484375 5.796875 -1.203125 C 5.640625 -0.921875 5.46875 -0.6875 5.28125 -0.5 C 4.957031 -0.1875 4.554688 0.0195312 4.078125 0.125 C 3.828125 0.1875 3.539062 0.21875 3.21875 0.21875 C 2.4375 0.21875 1.773438 -0.0625 1.234375 -0.625 C 0.691406 -1.195312 0.421875 -1.992188 0.421875 -3.015625 C 0.421875 -4.023438 0.691406 -4.84375 1.234375 -5.46875 C 1.785156 -6.101562 2.503906 -6.421875 3.390625 -6.421875 Z M 5.0625 -3.640625 C 5.019531 -4.097656 4.921875 -4.460938 4.765625 -4.734375 C 4.484375 -5.242188 4.003906 -5.5 3.328125 -5.5 C 2.835938 -5.5 2.425781 -5.320312 2.09375 -4.96875 C 1.769531 -4.625 1.597656 -4.179688 1.578125 -3.640625 Z M 3.28125 -6.421875 Z M 3.28125 -6.421875 "/>
</g>
<g id="glyph-0-10">
<path d="M 1.578125 -1.671875 C 1.578125 -1.367188 1.6875 -1.128906 1.90625 -0.953125 C 2.132812 -0.773438 2.398438 -0.6875 2.703125 -0.6875 C 3.078125 -0.6875 3.4375 -0.769531 3.78125 -0.9375 C 4.375 -1.226562 4.671875 -1.695312 4.671875 -2.34375 L 4.671875 -3.1875 C 4.535156 -3.113281 4.363281 -3.046875 4.15625 -2.984375 C 3.957031 -2.929688 3.757812 -2.894531 3.5625 -2.875 L 2.9375 -2.796875 C 2.550781 -2.742188 2.257812 -2.660156 2.0625 -2.546875 C 1.738281 -2.367188 1.578125 -2.078125 1.578125 -1.671875 Z M 4.140625 -3.796875 C 4.378906 -3.828125 4.539062 -3.929688 4.625 -4.109375 C 4.664062 -4.203125 4.6875 -4.335938 4.6875 -4.515625 C 4.6875 -4.867188 4.554688 -5.125 4.296875 -5.28125 C 4.046875 -5.445312 3.6875 -5.53125 3.21875 -5.53125 C 2.664062 -5.53125 2.273438 -5.382812 2.046875 -5.09375 C 1.910156 -4.925781 1.820312 -4.679688 1.78125 -4.359375 L 0.796875 -4.359375 C 0.816406 -5.128906 1.066406 -5.664062 1.546875 -5.96875 C 2.035156 -6.269531 2.597656 -6.421875 3.234375 -6.421875 C 3.972656 -6.421875 4.570312 -6.28125 5.03125 -6 C 5.488281 -5.71875 5.71875 -5.28125 5.71875 -4.6875 L 5.71875 -1.078125 C 5.71875 -0.972656 5.738281 -0.882812 5.78125 -0.8125 C 5.832031 -0.75 5.929688 -0.71875 6.078125 -0.71875 C 6.117188 -0.71875 6.164062 -0.71875 6.21875 -0.71875 C 6.28125 -0.726562 6.347656 -0.738281 6.421875 -0.75 L 6.421875 0.03125 C 6.253906 0.0703125 6.125 0.0976562 6.03125 0.109375 C 5.945312 0.128906 5.832031 0.140625 5.6875 0.140625 C 5.320312 0.140625 5.0625 0.0078125 4.90625 -0.25 C 4.8125 -0.382812 4.75 -0.578125 4.71875 -0.828125 C 4.5 -0.546875 4.1875 -0.300781 3.78125 -0.09375 C 3.382812 0.113281 2.945312 0.21875 2.46875 0.21875 C 1.882812 0.21875 1.40625 0.0390625 1.03125 -0.3125 C 0.664062 -0.664062 0.484375 -1.109375 0.484375 -1.640625 C 0.484375 -2.222656 0.664062 -2.675781 1.03125 -3 C 1.394531 -3.320312 1.867188 -3.519531 2.453125 -3.59375 Z M 3.265625 -6.421875 Z M 3.265625 -6.421875 "/>
</g>
<g id="glyph-0-11">
<path d="M 0.796875 -6.28125 L 1.8125 -6.28125 L 1.8125 -5.1875 C 1.882812 -5.40625 2.082031 -5.664062 2.40625 -5.96875 C 2.726562 -6.269531 3.097656 -6.421875 3.515625 -6.421875 C 3.535156 -6.421875 3.566406 -6.414062 3.609375 -6.40625 C 3.660156 -6.40625 3.742188 -6.398438 3.859375 -6.390625 L 3.859375 -5.28125 C 3.796875 -5.289062 3.738281 -5.296875 3.6875 -5.296875 C 3.632812 -5.296875 3.578125 -5.296875 3.515625 -5.296875 C 2.984375 -5.296875 2.570312 -5.125 2.28125 -4.78125 C 2 -4.445312 1.859375 -4.054688 1.859375 -3.609375 L 1.859375 0 L 0.796875 0 Z M 0.796875 -6.28125 "/>
</g>
<g id="glyph-0-12">
<path d="M 1.40625 -1.96875 C 1.4375 -1.613281 1.523438 -1.34375 1.671875 -1.15625 C 1.929688 -0.820312 2.390625 -0.65625 3.046875 -0.65625 C 3.441406 -0.65625 3.785156 -0.738281 4.078125 -0.90625 C 4.378906 -1.070312 4.53125 -1.332031 4.53125 -1.6875 C 4.53125 -1.957031 4.410156 -2.164062 4.171875 -2.3125 C 4.015625 -2.394531 3.710938 -2.492188 3.265625 -2.609375 L 2.421875 -2.8125 C 1.890625 -2.945312 1.5 -3.097656 1.25 -3.265625 C 0.789062 -3.546875 0.5625 -3.941406 0.5625 -4.453125 C 0.5625 -5.046875 0.773438 -5.523438 1.203125 -5.890625 C 1.628906 -6.253906 2.207031 -6.4375 2.9375 -6.4375 C 3.875 -6.4375 4.550781 -6.160156 4.96875 -5.609375 C 5.238281 -5.253906 5.367188 -4.875 5.359375 -4.46875 L 4.359375 -4.46875 C 4.335938 -4.707031 4.253906 -4.925781 4.109375 -5.125 C 3.867188 -5.394531 3.445312 -5.53125 2.84375 -5.53125 C 2.445312 -5.53125 2.144531 -5.453125 1.9375 -5.296875 C 1.738281 -5.148438 1.640625 -4.953125 1.640625 -4.703125 C 1.640625 -4.429688 1.773438 -4.210938 2.046875 -4.046875 C 2.203125 -3.953125 2.429688 -3.867188 2.734375 -3.796875 L 3.421875 -3.625 C 4.179688 -3.4375 4.691406 -3.257812 4.953125 -3.09375 C 5.359375 -2.820312 5.5625 -2.394531 5.5625 -1.8125 C 5.5625 -1.257812 5.347656 -0.78125 4.921875 -0.375 C 4.503906 0.03125 3.863281 0.234375 3 0.234375 C 2.0625 0.234375 1.394531 0.0234375 1 -0.390625 C 0.613281 -0.816406 0.410156 -1.34375 0.390625 -1.96875 Z M 2.953125 -6.421875 Z M 2.953125 -6.421875 "/>
</g>
<g id="glyph-0-13">
<path d="M 3.265625 -0.6875 C 3.960938 -0.6875 4.441406 -0.945312 4.703125 -1.46875 C 4.960938 -2 5.09375 -2.585938 5.09375 -3.234375 C 5.09375 -3.828125 5 -4.304688 4.8125 -4.671875 C 4.507812 -5.242188 4 -5.53125 3.28125 -5.53125 C 2.632812 -5.53125 2.164062 -5.285156 1.875 -4.796875 C 1.582031 -4.304688 1.4375 -3.710938 1.4375 -3.015625 C 1.4375 -2.347656 1.582031 -1.789062 1.875 -1.34375 C 2.164062 -0.90625 2.628906 -0.6875 3.265625 -0.6875 Z M 3.3125 -6.453125 C 4.113281 -6.453125 4.789062 -6.179688 5.34375 -5.640625 C 5.90625 -5.109375 6.1875 -4.316406 6.1875 -3.265625 C 6.1875 -2.253906 5.941406 -1.414062 5.453125 -0.75 C 4.960938 -0.09375 4.203125 0.234375 3.171875 0.234375 C 2.304688 0.234375 1.617188 -0.0546875 1.109375 -0.640625 C 0.597656 -1.234375 0.34375 -2.019531 0.34375 -3 C 0.34375 -4.050781 0.609375 -4.890625 1.140625 -5.515625 C 1.679688 -6.140625 2.40625 -6.453125 3.3125 -6.453125 Z M 3.265625 -6.421875 Z M 3.265625 -6.421875 "/>
</g>
<g id="glyph-0-14">
<path d="M 0.78125 -6.28125 L 1.78125 -6.28125 L 1.78125 -5.390625 C 2.070312 -5.753906 2.382812 -6.015625 2.71875 -6.171875 C 3.050781 -6.335938 3.421875 -6.421875 3.828125 -6.421875 C 4.710938 -6.421875 5.3125 -6.109375 5.625 -5.484375 C 5.800781 -5.140625 5.890625 -4.65625 5.890625 -4.03125 L 5.890625 0 L 4.8125 0 L 4.8125 -3.953125 C 4.8125 -4.335938 4.753906 -4.644531 4.640625 -4.875 C 4.453125 -5.269531 4.113281 -5.46875 3.625 -5.46875 C 3.375 -5.46875 3.171875 -5.441406 3.015625 -5.390625 C 2.722656 -5.304688 2.46875 -5.132812 2.25 -4.875 C 2.070312 -4.664062 1.957031 -4.453125 1.90625 -4.234375 C 1.851562 -4.015625 1.828125 -3.695312 1.828125 -3.28125 L 1.828125 0 L 0.78125 0 Z M 3.25 -6.421875 Z M 3.25 -6.421875 "/>
</g>
<g id="glyph-0-15">
<path d="M 0.78125 -6.25 L 1.84375 -6.25 L 1.84375 0 L 0.78125 0 Z M 0.78125 -8.609375 L 1.84375 -8.609375 L 1.84375 -7.40625 L 0.78125 -7.40625 Z M 0.78125 -8.609375 "/>
</g>
<g id="glyph-0-16">
<path d="M 1.4375 -3.0625 C 1.4375 -2.394531 1.578125 -1.832031 1.859375 -1.375 C 2.148438 -0.925781 2.609375 -0.703125 3.234375 -0.703125 C 3.722656 -0.703125 4.125 -0.910156 4.4375 -1.328125 C 4.757812 -1.742188 4.921875 -2.347656 4.921875 -3.140625 C 4.921875 -3.929688 4.753906 -4.515625 4.421875 -4.890625 C 4.097656 -5.273438 3.703125 -5.46875 3.234375 -5.46875 C 2.703125 -5.46875 2.269531 -5.265625 1.9375 -4.859375 C 1.601562 -4.453125 1.4375 -3.851562 1.4375 -3.0625 Z M 3.03125 -6.390625 C 3.507812 -6.390625 3.910156 -6.285156 4.234375 -6.078125 C 4.421875 -5.960938 4.632812 -5.757812 4.875 -5.46875 L 4.875 -8.640625 L 5.890625 -8.640625 L 5.890625 0 L 4.9375 0 L 4.9375 -0.875 C 4.695312 -0.488281 4.40625 -0.207031 4.0625 -0.03125 C 3.726562 0.132812 3.34375 0.21875 2.90625 0.21875 C 2.207031 0.21875 1.601562 -0.0703125 1.09375 -0.65625 C 0.582031 -1.25 0.328125 -2.03125 0.328125 -3 C 0.328125 -3.914062 0.5625 -4.707031 1.03125 -5.375 C 1.5 -6.050781 2.164062 -6.390625 3.03125 -6.390625 Z M 3.03125 -6.390625 "/>
</g>
<g id="glyph-0-17">
<path d="M 1.828125 -6.28125 L 1.828125 -2.109375 C 1.828125 -1.785156 1.878906 -1.523438 1.984375 -1.328125 C 2.171875 -0.953125 2.519531 -0.765625 3.03125 -0.765625 C 3.757812 -0.765625 4.257812 -1.09375 4.53125 -1.75 C 4.675781 -2.101562 4.75 -2.582031 4.75 -3.1875 L 4.75 -6.28125 L 5.796875 -6.28125 L 5.796875 0 L 4.8125 0 L 4.8125 -0.921875 C 4.675781 -0.679688 4.507812 -0.484375 4.3125 -0.328125 C 3.90625 0.00390625 3.414062 0.171875 2.84375 0.171875 C 1.945312 0.171875 1.335938 -0.128906 1.015625 -0.734375 C 0.835938 -1.046875 0.75 -1.472656 0.75 -2.015625 L 0.75 -6.28125 Z M 3.28125 -6.421875 Z M 3.28125 -6.421875 "/>
</g>
<g id="glyph-0-18">
<path d="M 0.796875 -8.609375 L 1.859375 -8.609375 L 1.859375 0 L 0.796875 0 Z M 0.796875 -8.609375 "/>
</g>
<g id="glyph-0-19">
<path d="M 1.328125 -6.1875 L 2.5625 -6.1875 L 2.5625 -4.921875 L 1.328125 -4.921875 Z M 1.328125 -1.28125 L 2.5625 -1.28125 L 2.5625 0 L 1.328125 0 Z M 1.328125 -1.28125 "/>
</g>
<g id="glyph-0-20">
<path d="M 3.421875 -0.703125 C 3.910156 -0.703125 4.316406 -0.910156 4.640625 -1.328125 C 4.972656 -1.742188 5.140625 -2.359375 5.140625 -3.171875 C 5.140625 -3.671875 5.066406 -4.101562 4.921875 -4.46875 C 4.648438 -5.15625 4.148438 -5.5 3.421875 -5.5 C 2.691406 -5.5 2.191406 -5.132812 1.921875 -4.40625 C 1.773438 -4.019531 1.703125 -3.523438 1.703125 -2.921875 C 1.703125 -2.429688 1.773438 -2.019531 1.921875 -1.6875 C 2.191406 -1.03125 2.691406 -0.703125 3.421875 -0.703125 Z M 0.6875 -6.25 L 1.71875 -6.25 L 1.71875 -5.421875 C 1.925781 -5.703125 2.15625 -5.921875 2.40625 -6.078125 C 2.757812 -6.304688 3.175781 -6.421875 3.65625 -6.421875 C 4.375 -6.421875 4.976562 -6.148438 5.46875 -5.609375 C 5.96875 -5.066406 6.21875 -4.289062 6.21875 -3.28125 C 6.21875 -1.90625 5.859375 -0.925781 5.140625 -0.34375 C 4.691406 0.03125 4.164062 0.21875 3.5625 0.21875 C 3.09375 0.21875 2.695312 0.113281 2.375 -0.09375 C 2.1875 -0.21875 1.976562 -0.421875 1.75 -0.703125 L 1.75 2.5 L 0.6875 2.5 Z M 0.6875 -6.25 "/>
</g>
<g id="glyph-0-21">
<path d="M 1.296875 -6.28125 L 2.96875 -1.171875 L 4.71875 -6.28125 L 5.875 -6.28125 L 3.5 0 L 2.375 0 L 0.0625 -6.28125 Z M 1.296875 -6.28125 "/>
</g>
<g id="glyph-0-22">
<path d="M 6.65625 -4.8125 L 6.65625 -3.828125 L 0.546875 -3.828125 L 0.546875 -4.8125 Z M 6.65625 -2.296875 L 6.65625 -1.296875 L 0.546875 -1.296875 L 0.546875 -2.296875 Z M 6.65625 -2.296875 "/>
</g>
<g id="glyph-0-23">
<path d="M 0.171875 -3.546875 L 7.015625 -6.234375 L 7.015625 -5.1875 L 1.40625 -3.0625 L 7.015625 -0.9375 L 7.015625 0.109375 L 0.171875 -2.578125 Z M 0.171875 -3.546875 "/>
</g>
<g id="glyph-0-24">
<path d="M 1.03125 -1.28125 L 2.25 -1.28125 L 2.25 0 L 1.03125 0 Z M 1.03125 -1.28125 "/>
</g>
<g id="glyph-0-25">
<path d="M 3.515625 -8.421875 C 4.453125 -8.421875 5.101562 -8.175781 5.46875 -7.6875 C 5.84375 -7.207031 6.03125 -6.707031 6.03125 -6.1875 L 4.984375 -6.1875 C 4.921875 -6.519531 4.820312 -6.78125 4.6875 -6.96875 C 4.425781 -7.320312 4.039062 -7.5 3.53125 -7.5 C 2.9375 -7.5 2.460938 -7.222656 2.109375 -6.671875 C 1.765625 -6.128906 1.578125 -5.351562 1.546875 -4.34375 C 1.785156 -4.695312 2.085938 -4.960938 2.453125 -5.140625 C 2.785156 -5.296875 3.160156 -5.375 3.578125 -5.375 C 4.285156 -5.375 4.898438 -5.148438 5.421875 -4.703125 C 5.941406 -4.253906 6.203125 -3.582031 6.203125 -2.6875 C 6.203125 -1.925781 5.953125 -1.25 5.453125 -0.65625 C 4.960938 -0.0703125 4.257812 0.21875 3.34375 0.21875 C 2.550781 0.21875 1.867188 -0.078125 1.296875 -0.671875 C 0.734375 -1.273438 0.453125 -2.28125 0.453125 -3.6875 C 0.453125 -4.726562 0.578125 -5.613281 0.828125 -6.34375 C 1.316406 -7.726562 2.210938 -8.421875 3.515625 -8.421875 Z M 3.4375 -0.71875 C 3.988281 -0.71875 4.398438 -0.90625 4.671875 -1.28125 C 4.953125 -1.65625 5.09375 -2.097656 5.09375 -2.609375 C 5.09375 -3.035156 4.96875 -3.441406 4.71875 -3.828125 C 4.476562 -4.210938 4.03125 -4.40625 3.375 -4.40625 C 2.925781 -4.40625 2.53125 -4.253906 2.1875 -3.953125 C 1.84375 -3.660156 1.671875 -3.210938 1.671875 -2.609375 C 1.671875 -2.078125 1.828125 -1.628906 2.140625 -1.265625 C 2.453125 -0.898438 2.882812 -0.71875 3.4375 -0.71875 Z M 3.4375 -0.71875 "/>
</g>
<g id="glyph-0-26">
<path d="M 4.546875 -8.84375 C 5.628906 -8.84375 6.472656 -8.554688 7.078125 -7.984375 C 7.679688 -7.410156 8.015625 -6.757812 8.078125 -6.03125 L 6.9375 -6.03125 C 6.8125 -6.582031 6.554688 -7.019531 6.171875 -7.34375 C 5.785156 -7.664062 5.242188 -7.828125 4.546875 -7.828125 C 3.703125 -7.828125 3.019531 -7.53125 2.5 -6.9375 C 1.976562 -6.34375 1.71875 -5.429688 1.71875 -4.203125 C 1.71875 -3.191406 1.953125 -2.367188 2.421875 -1.734375 C 2.890625 -1.109375 3.59375 -0.796875 4.53125 -0.796875 C 5.382812 -0.796875 6.039062 -1.128906 6.5 -1.796875 C 6.726562 -2.140625 6.90625 -2.597656 7.03125 -3.171875 L 8.15625 -3.171875 C 8.0625 -2.265625 7.726562 -1.503906 7.15625 -0.890625 C 6.46875 -0.148438 5.546875 0.21875 4.390625 0.21875 C 3.390625 0.21875 2.550781 -0.0820312 1.875 -0.6875 C 0.976562 -1.488281 0.53125 -2.722656 0.53125 -4.390625 C 0.53125 -5.660156 0.863281 -6.703125 1.53125 -7.515625 C 2.257812 -8.398438 3.265625 -8.84375 4.546875 -8.84375 Z M 4.3125 -8.84375 Z M 4.3125 -8.84375 "/>
</g>
<g id="glyph-0-27">
<path d="M 0.78125 -8.640625 L 1.828125 -8.640625 L 1.828125 -5.421875 C 2.078125 -5.742188 2.300781 -5.96875 2.5 -6.09375 C 2.84375 -6.3125 3.269531 -6.421875 3.78125 -6.421875 C 4.6875 -6.421875 5.300781 -6.101562 5.625 -5.46875 C 5.800781 -5.125 5.890625 -4.644531 5.890625 -4.03125 L 5.890625 0 L 4.8125 0 L 4.8125 -3.953125 C 4.8125 -4.410156 4.75 -4.75 4.625 -4.96875 C 4.4375 -5.3125 4.078125 -5.484375 3.546875 -5.484375 C 3.109375 -5.484375 2.710938 -5.332031 2.359375 -5.03125 C 2.003906 -4.726562 1.828125 -4.160156 1.828125 -3.328125 L 1.828125 0 L 0.78125 0 Z M 0.78125 -8.640625 "/>
</g>
<g id="glyph-0-28">
<path d="M 4.625 -8.84375 C 6.144531 -8.84375 7.269531 -8.351562 8 -7.375 C 8.570312 -6.613281 8.859375 -5.640625 8.859375 -4.453125 C 8.859375 -3.171875 8.53125 -2.101562 7.875 -1.25 C 7.113281 -0.25 6.023438 0.25 4.609375 0.25 C 3.285156 0.25 2.242188 -0.1875 1.484375 -1.0625 C 0.804688 -1.90625 0.46875 -2.972656 0.46875 -4.265625 C 0.46875 -5.421875 0.757812 -6.414062 1.34375 -7.25 C 2.082031 -8.3125 3.175781 -8.84375 4.625 -8.84375 Z M 4.75 -0.796875 C 5.769531 -0.796875 6.507812 -1.160156 6.96875 -1.890625 C 7.4375 -2.628906 7.671875 -3.476562 7.671875 -4.4375 C 7.671875 -5.445312 7.40625 -6.257812 6.875 -6.875 C 6.34375 -7.5 5.617188 -7.8125 4.703125 -7.8125 C 3.804688 -7.8125 3.078125 -7.503906 2.515625 -6.890625 C 1.953125 -6.273438 1.671875 -5.375 1.671875 -4.1875 C 1.671875 -3.226562 1.910156 -2.421875 2.390625 -1.765625 C 2.878906 -1.117188 3.664062 -0.796875 4.75 -0.796875 Z M 4.671875 -8.84375 Z M 4.671875 -8.84375 "/>
</g>
<g id="glyph-0-29">
<path d="M 0.984375 -8.03125 L 2.046875 -8.03125 L 2.046875 -6.28125 L 3.046875 -6.28125 L 3.046875 -5.421875 L 2.046875 -5.421875 L 2.046875 -1.3125 C 2.046875 -1.09375 2.125 -0.945312 2.28125 -0.875 C 2.351562 -0.832031 2.488281 -0.8125 2.6875 -0.8125 C 2.738281 -0.8125 2.789062 -0.8125 2.84375 -0.8125 C 2.90625 -0.820312 2.972656 -0.828125 3.046875 -0.828125 L 3.046875 0 C 2.929688 0.03125 2.804688 0.0507812 2.671875 0.0625 C 2.546875 0.0820312 2.40625 0.09375 2.25 0.09375 C 1.757812 0.09375 1.425781 -0.03125 1.25 -0.28125 C 1.070312 -0.53125 0.984375 -0.859375 0.984375 -1.265625 L 0.984375 -5.421875 L 0.140625 -5.421875 L 0.140625 -6.28125 L 0.984375 -6.28125 Z M 0.984375 -8.03125 "/>
</g>
<g id="glyph-0-30">
<path d="M 0.9375 -8.609375 L 2.125 -8.609375 L 2.125 -5.046875 L 6.59375 -5.046875 L 6.59375 -8.609375 L 7.78125 -8.609375 L 7.78125 0 L 6.59375 0 L 6.59375 -4.03125 L 2.125 -4.03125 L 2.125 0 L 0.9375 0 Z M 0.9375 -8.609375 "/>
</g>
<g id="glyph-0-31">
<path d="M 3.1875 -6.453125 C 3.894531 -6.453125 4.46875 -6.28125 4.90625 -5.9375 C 5.351562 -5.59375 5.625 -5.003906 5.71875 -4.171875 L 4.6875 -4.171875 C 4.625 -4.554688 4.484375 -4.875 4.265625 -5.125 C 4.046875 -5.382812 3.6875 -5.515625 3.1875 -5.515625 C 2.519531 -5.515625 2.039062 -5.1875 1.75 -4.53125 C 1.5625 -4.101562 1.46875 -3.578125 1.46875 -2.953125 C 1.46875 -2.328125 1.597656 -1.796875 1.859375 -1.359375 C 2.128906 -0.929688 2.550781 -0.71875 3.125 -0.71875 C 3.5625 -0.71875 3.90625 -0.851562 4.15625 -1.125 C 4.414062 -1.394531 4.59375 -1.757812 4.6875 -2.21875 L 5.71875 -2.21875 C 5.601562 -1.382812 5.3125 -0.773438 4.84375 -0.390625 C 4.375 -0.00390625 3.773438 0.1875 3.046875 0.1875 C 2.222656 0.1875 1.566406 -0.113281 1.078125 -0.71875 C 0.585938 -1.320312 0.34375 -2.070312 0.34375 -2.96875 C 0.34375 -4.070312 0.609375 -4.925781 1.140625 -5.53125 C 1.679688 -6.144531 2.363281 -6.453125 3.1875 -6.453125 Z M 3.03125 -6.421875 Z M 3.03125 -6.421875 "/>
</g>
<g id="glyph-0-32">
<path d="M 4.15625 -4.96875 C 4.644531 -4.96875 5.023438 -5.035156 5.296875 -5.171875 C 5.722656 -5.390625 5.9375 -5.773438 5.9375 -6.328125 C 5.9375 -6.890625 5.707031 -7.269531 5.25 -7.46875 C 5 -7.582031 4.617188 -7.640625 4.109375 -7.640625 L 2.03125 -7.640625 L 2.03125 -4.96875 Z M 4.546875 -1 C 5.253906 -1 5.765625 -1.207031 6.078125 -1.625 C 6.265625 -1.882812 6.359375 -2.195312 6.359375 -2.5625 C 6.359375 -3.1875 6.078125 -3.613281 5.515625 -3.84375 C 5.222656 -3.96875 4.832031 -4.03125 4.34375 -4.03125 L 2.03125 -4.03125 L 2.03125 -1 Z M 0.890625 -8.609375 L 4.578125 -8.609375 C 5.585938 -8.609375 6.304688 -8.304688 6.734375 -7.703125 C 6.984375 -7.347656 7.109375 -6.9375 7.109375 -6.46875 C 7.109375 -5.925781 6.953125 -5.484375 6.640625 -5.140625 C 6.484375 -4.953125 6.253906 -4.785156 5.953125 -4.640625 C 6.390625 -4.472656 6.71875 -4.28125 6.9375 -4.0625 C 7.332031 -3.6875 7.53125 -3.171875 7.53125 -2.515625 C 7.53125 -1.960938 7.351562 -1.460938 7 -1.015625 C 6.476562 -0.335938 5.65625 0 4.53125 0 L 0.890625 0 Z M 0.890625 -8.609375 "/>
</g>
<g id="glyph-0-33">
<path d="M 0.75 -8.609375 L 1.765625 -8.609375 L 1.765625 -3.609375 L 4.46875 -6.28125 L 5.8125 -6.28125 L 3.421875 -3.921875 L 5.953125 0 L 4.609375 0 L 2.65625 -3.171875 L 1.765625 -2.359375 L 1.765625 0 L 0.75 0 Z M 0.75 -8.609375 "/>
</g>
<g id="glyph-0-34">
<path d="M 1.484375 -8.609375 L 3.109375 -1.609375 L 5.046875 -8.609375 L 6.3125 -8.609375 L 8.265625 -1.609375 L 9.890625 -8.609375 L 11.15625 -8.609375 L 8.90625 0 L 7.671875 0 L 5.6875 -7.140625 L 3.6875 0 L 2.46875 0 L 0.21875 -8.609375 Z M 1.484375 -8.609375 "/>
</g>
<g id="glyph-0-35">
<path d="M 5.328125 -3.53125 L 4.03125 -7.328125 L 2.640625 -3.53125 Z M 3.421875 -8.609375 L 4.734375 -8.609375 L 7.859375 0 L 6.578125 0 L 5.703125 -2.578125 L 2.296875 -2.578125 L 1.375 0 L 0.171875 0 Z M 3.421875 -8.609375 "/>
</g>
<g id="glyph-1-0">
<path d="M 0.640625 0 L 0.640625 -14.34375 L 12.03125 -14.34375 L 12.03125 0 Z M 10.234375 -1.796875 L 10.234375 -12.546875 L 2.4375 -12.546875 L 2.4375 -1.796875 Z M 10.234375 -1.796875 "/>
</g>
<g id="glyph-1-1">
<path d="M 7.71875 -14.734375 C 10.25 -14.734375 12.125 -13.921875 13.34375 -12.296875 C 14.289062 -11.023438 14.765625 -9.398438 14.765625 -7.421875 C 14.765625 -5.273438 14.222656 -3.492188 13.140625 -2.078125 C 11.859375 -0.410156 10.035156 0.421875 7.671875 0.421875 C 5.460938 0.421875 3.726562 -0.304688 2.46875 -1.765625 C 1.34375 -3.171875 0.78125 -4.945312 0.78125 -7.09375 C 0.78125 -9.039062 1.265625 -10.703125 2.234375 -12.078125 C 3.460938 -13.847656 5.289062 -14.734375 7.71875 -14.734375 Z M 7.90625 -1.3125 C 9.625 -1.3125 10.863281 -1.925781 11.625 -3.15625 C 12.394531 -4.382812 12.78125 -5.796875 12.78125 -7.390625 C 12.78125 -9.078125 12.335938 -10.4375 11.453125 -11.46875 C 10.566406 -12.5 9.359375 -13.015625 7.828125 -13.015625 C 6.347656 -13.015625 5.140625 -12.503906 4.203125 -11.484375 C 3.265625 -10.460938 2.796875 -8.957031 2.796875 -6.96875 C 2.796875 -5.382812 3.195312 -4.046875 4 -2.953125 C 4.800781 -1.859375 6.101562 -1.3125 7.90625 -1.3125 Z M 7.78125 -14.734375 Z M 7.78125 -14.734375 "/>
</g>
<g id="glyph-1-2">
<path d="M 1.734375 -12.046875 C 1.753906 -12.773438 1.878906 -13.3125 2.109375 -13.65625 C 2.515625 -14.25 3.304688 -14.546875 4.484375 -14.546875 C 4.597656 -14.546875 4.710938 -14.539062 4.828125 -14.53125 C 4.941406 -14.53125 5.070312 -14.523438 5.21875 -14.515625 L 5.21875 -12.90625 C 5.039062 -12.925781 4.910156 -12.9375 4.828125 -12.9375 C 4.742188 -12.9375 4.664062 -12.9375 4.59375 -12.9375 C 4.0625 -12.9375 3.742188 -12.796875 3.640625 -12.515625 C 3.535156 -12.242188 3.484375 -11.539062 3.484375 -10.40625 L 5.21875 -10.40625 L 5.21875 -9.03125 L 3.46875 -9.03125 L 3.46875 0 L 1.734375 0 L 1.734375 -9.03125 L 0.28125 -9.03125 L 0.28125 -10.40625 L 1.734375 -10.40625 Z M 1.734375 -12.046875 "/>
</g>
<g id="glyph-1-3">
<path d="M 5.640625 -10.6875 C 6.390625 -10.6875 7.109375 -10.515625 7.796875 -10.171875 C 8.492188 -9.828125 9.023438 -9.375 9.390625 -8.8125 C 9.742188 -8.289062 9.976562 -7.675781 10.09375 -6.96875 C 10.195312 -6.488281 10.25 -5.722656 10.25 -4.671875 L 2.59375 -4.671875 C 2.625 -3.609375 2.875 -2.753906 3.34375 -2.109375 C 3.8125 -1.472656 4.535156 -1.15625 5.515625 -1.15625 C 6.429688 -1.15625 7.164062 -1.457031 7.71875 -2.0625 C 8.03125 -2.414062 8.25 -2.820312 8.375 -3.28125 L 10.109375 -3.28125 C 10.066406 -2.894531 9.914062 -2.46875 9.65625 -2 C 9.394531 -1.53125 9.109375 -1.144531 8.796875 -0.84375 C 8.253906 -0.320312 7.59375 0.03125 6.8125 0.21875 C 6.382812 0.320312 5.90625 0.375 5.375 0.375 C 4.070312 0.375 2.96875 -0.0976562 2.0625 -1.046875 C 1.15625 -1.992188 0.703125 -3.320312 0.703125 -5.03125 C 0.703125 -6.707031 1.15625 -8.066406 2.0625 -9.109375 C 2.976562 -10.160156 4.171875 -10.6875 5.640625 -10.6875 Z M 8.453125 -6.0625 C 8.378906 -6.820312 8.210938 -7.429688 7.953125 -7.890625 C 7.472656 -8.734375 6.664062 -9.15625 5.53125 -9.15625 C 4.726562 -9.15625 4.050781 -8.863281 3.5 -8.28125 C 2.957031 -7.695312 2.671875 -6.957031 2.640625 -6.0625 Z M 5.484375 -10.71875 Z M 5.484375 -10.71875 "/>
</g>
<g id="glyph-1-4">
<path d="M 1.296875 -10.453125 L 2.953125 -10.453125 L 2.953125 -8.96875 C 3.453125 -9.582031 3.976562 -10.019531 4.53125 -10.28125 C 5.082031 -10.550781 5.695312 -10.6875 6.375 -10.6875 C 7.863281 -10.6875 8.867188 -10.171875 9.390625 -9.140625 C 9.671875 -8.578125 9.8125 -7.765625 9.8125 -6.703125 L 9.8125 0 L 8.03125 0 L 8.03125 -6.59375 C 8.03125 -7.226562 7.9375 -7.742188 7.75 -8.140625 C 7.4375 -8.785156 6.867188 -9.109375 6.046875 -9.109375 C 5.628906 -9.109375 5.285156 -9.066406 5.015625 -8.984375 C 4.535156 -8.835938 4.113281 -8.550781 3.75 -8.125 C 3.457031 -7.78125 3.265625 -7.421875 3.171875 -7.046875 C 3.085938 -6.679688 3.046875 -6.160156 3.046875 -5.484375 L 3.046875 0 L 1.296875 0 Z M 5.421875 -10.71875 Z M 5.421875 -10.71875 "/>
</g>
<g id="glyph-1-5">
<path d="M 2.40625 -5.109375 C 2.40625 -3.984375 2.640625 -3.039062 3.109375 -2.28125 C 3.585938 -1.53125 4.351562 -1.15625 5.40625 -1.15625 C 6.21875 -1.15625 6.882812 -1.503906 7.40625 -2.203125 C 7.925781 -2.910156 8.1875 -3.914062 8.1875 -5.21875 C 8.1875 -6.539062 7.914062 -7.519531 7.375 -8.15625 C 6.84375 -8.789062 6.175781 -9.109375 5.375 -9.109375 C 4.488281 -9.109375 3.769531 -8.769531 3.21875 -8.09375 C 2.675781 -7.414062 2.40625 -6.421875 2.40625 -5.109375 Z M 5.046875 -10.640625 C 5.847656 -10.640625 6.519531 -10.472656 7.0625 -10.140625 C 7.375 -9.941406 7.726562 -9.597656 8.125 -9.109375 L 8.125 -14.390625 L 9.8125 -14.390625 L 9.8125 0 L 8.234375 0 L 8.234375 -1.453125 C 7.828125 -0.804688 7.34375 -0.335938 6.78125 -0.046875 C 6.21875 0.234375 5.578125 0.375 4.859375 0.375 C 3.691406 0.375 2.679688 -0.113281 1.828125 -1.09375 C 0.972656 -2.070312 0.546875 -3.378906 0.546875 -5.015625 C 0.546875 -6.535156 0.929688 -7.851562 1.703125 -8.96875 C 2.484375 -10.082031 3.597656 -10.640625 5.046875 -10.640625 Z M 5.046875 -10.640625 "/>
</g>
<g id="glyph-1-6">
<path d="M 1.34375 -10.453125 L 3.015625 -10.453125 L 3.015625 -8.65625 C 3.148438 -9.007812 3.484375 -9.4375 4.015625 -9.9375 C 4.546875 -10.4375 5.160156 -10.6875 5.859375 -10.6875 C 5.890625 -10.6875 5.941406 -10.679688 6.015625 -10.671875 C 6.097656 -10.671875 6.234375 -10.660156 6.421875 -10.640625 L 6.421875 -8.796875 C 6.316406 -8.804688 6.21875 -8.816406 6.125 -8.828125 C 6.039062 -8.835938 5.945312 -8.84375 5.84375 -8.84375 C 4.957031 -8.84375 4.273438 -8.554688 3.796875 -7.984375 C 3.328125 -7.410156 3.09375 -6.753906 3.09375 -6.015625 L 3.09375 0 L 1.34375 0 Z M 1.34375 -10.453125 "/>
</g>
<g id="glyph-1-7">
<path d="M 2.328125 -3.28125 C 2.378906 -2.695312 2.53125 -2.25 2.78125 -1.9375 C 3.21875 -1.363281 3.984375 -1.078125 5.078125 -1.078125 C 5.734375 -1.078125 6.304688 -1.21875 6.796875 -1.5 C 7.296875 -1.789062 7.546875 -2.234375 7.546875 -2.828125 C 7.546875 -3.273438 7.34375 -3.613281 6.9375 -3.84375 C 6.6875 -3.988281 6.1875 -4.15625 5.4375 -4.34375 L 4.046875 -4.703125 C 3.148438 -4.921875 2.492188 -5.164062 2.078125 -5.4375 C 1.316406 -5.914062 0.9375 -6.570312 0.9375 -7.40625 C 0.9375 -8.394531 1.289062 -9.195312 2 -9.8125 C 2.71875 -10.425781 3.679688 -10.734375 4.890625 -10.734375 C 6.460938 -10.734375 7.597656 -10.269531 8.296875 -9.34375 C 8.734375 -8.757812 8.941406 -8.128906 8.921875 -7.453125 L 7.265625 -7.453125 C 7.234375 -7.847656 7.09375 -8.207031 6.84375 -8.53125 C 6.4375 -9 5.738281 -9.234375 4.75 -9.234375 C 4.082031 -9.234375 3.578125 -9.101562 3.234375 -8.84375 C 2.890625 -8.59375 2.71875 -8.257812 2.71875 -7.84375 C 2.71875 -7.382812 2.945312 -7.019531 3.40625 -6.75 C 3.664062 -6.582031 4.046875 -6.4375 4.546875 -6.3125 L 5.71875 -6.03125 C 6.976562 -5.726562 7.820312 -5.429688 8.25 -5.140625 C 8.9375 -4.691406 9.28125 -3.988281 9.28125 -3.03125 C 9.28125 -2.09375 8.925781 -1.285156 8.21875 -0.609375 C 7.507812 0.0664062 6.429688 0.40625 4.984375 0.40625 C 3.429688 0.40625 2.332031 0.0507812 1.6875 -0.65625 C 1.039062 -1.363281 0.691406 -2.238281 0.640625 -3.28125 Z M 4.9375 -10.71875 Z M 4.9375 -10.71875 "/>
</g>
<g id="glyph-1-8">
</g>
<g id="glyph-1-9">
<path d="M 1.15625 -14.390625 L 2.859375 -14.390625 L 2.859375 -9.1875 C 3.242188 -9.6875 3.703125 -10.066406 4.234375 -10.328125 C 4.773438 -10.597656 5.359375 -10.734375 5.984375 -10.734375 C 7.285156 -10.734375 8.335938 -10.285156 9.140625 -9.390625 C 9.953125 -8.492188 10.359375 -7.175781 10.359375 -5.4375 C 10.359375 -3.78125 9.957031 -2.40625 9.15625 -1.3125 C 8.351562 -0.21875 7.242188 0.328125 5.828125 0.328125 C 5.035156 0.328125 4.363281 0.132812 3.8125 -0.25 C 3.488281 -0.476562 3.144531 -0.84375 2.78125 -1.34375 L 2.78125 0 L 1.15625 0 Z M 5.71875 -1.21875 C 6.675781 -1.21875 7.390625 -1.59375 7.859375 -2.34375 C 8.328125 -3.101562 8.5625 -4.101562 8.5625 -5.34375 C 8.5625 -6.445312 8.328125 -7.359375 7.859375 -8.078125 C 7.390625 -8.796875 6.691406 -9.15625 5.765625 -9.15625 C 4.972656 -9.15625 4.273438 -8.859375 3.671875 -8.265625 C 3.066406 -7.679688 2.765625 -6.707031 2.765625 -5.34375 C 2.765625 -4.363281 2.890625 -3.566406 3.140625 -2.953125 C 3.597656 -1.796875 4.457031 -1.21875 5.71875 -1.21875 Z M 5.71875 -1.21875 "/>
</g>
<g id="glyph-1-10">
<path d="M 7.828125 -10.453125 L 9.765625 -10.453125 C 9.515625 -9.785156 8.960938 -8.257812 8.109375 -5.875 C 7.472656 -4.070312 6.941406 -2.601562 6.515625 -1.46875 C 5.492188 1.195312 4.773438 2.820312 4.359375 3.40625 C 3.941406 3.988281 3.226562 4.28125 2.21875 4.28125 C 1.96875 4.28125 1.773438 4.269531 1.640625 4.25 C 1.515625 4.238281 1.351562 4.207031 1.15625 4.15625 L 1.15625 2.546875 C 1.457031 2.628906 1.675781 2.679688 1.8125 2.703125 C 1.945312 2.722656 2.066406 2.734375 2.171875 2.734375 C 2.503906 2.734375 2.742188 2.675781 2.890625 2.5625 C 3.046875 2.457031 3.175781 2.328125 3.28125 2.171875 C 3.3125 2.117188 3.425781 1.851562 3.625 1.375 C 3.832031 0.894531 3.984375 0.535156 4.078125 0.296875 L 0.203125 -10.453125 L 2.203125 -10.453125 L 5 -1.9375 Z M 4.984375 -10.71875 Z M 4.984375 -10.71875 "/>
</g>
<g id="glyph-1-11">
<path d="M 8.890625 -5.875 L 6.703125 -12.21875 L 4.390625 -5.875 Z M 5.6875 -14.34375 L 7.890625 -14.34375 L 13.09375 0 L 10.96875 0 L 9.515625 -4.296875 L 3.84375 -4.296875 L 2.28125 0 L 0.296875 0 Z M 5.6875 -14.34375 "/>
</g>
<g id="glyph-1-12">
<path d="M 4.984375 -10.640625 C 5.804688 -10.640625 6.519531 -10.441406 7.125 -10.046875 C 7.457031 -9.816406 7.796875 -9.484375 8.140625 -9.046875 L 8.140625 -10.359375 L 9.765625 -10.359375 L 9.765625 -0.84375 C 9.765625 0.476562 9.570312 1.523438 9.1875 2.296875 C 8.457031 3.710938 7.078125 4.421875 5.046875 4.421875 C 3.921875 4.421875 2.972656 4.164062 2.203125 3.65625 C 1.441406 3.15625 1.015625 2.367188 0.921875 1.296875 L 2.703125 1.296875 C 2.785156 1.765625 2.957031 2.128906 3.21875 2.390625 C 3.613281 2.773438 4.238281 2.96875 5.09375 2.96875 C 6.4375 2.96875 7.316406 2.492188 7.734375 1.546875 C 7.984375 0.984375 8.097656 -0.015625 8.078125 -1.453125 C 7.722656 -0.921875 7.296875 -0.523438 6.796875 -0.265625 C 6.304688 -0.00390625 5.65625 0.125 4.84375 0.125 C 3.707031 0.125 2.710938 -0.273438 1.859375 -1.078125 C 1.015625 -1.878906 0.59375 -3.207031 0.59375 -5.0625 C 0.59375 -6.820312 1.019531 -8.191406 1.875 -9.171875 C 2.738281 -10.148438 3.773438 -10.640625 4.984375 -10.640625 Z M 8.140625 -5.28125 C 8.140625 -6.570312 7.875 -7.53125 7.34375 -8.15625 C 6.8125 -8.78125 6.128906 -9.09375 5.296875 -9.09375 C 4.066406 -9.09375 3.222656 -8.515625 2.765625 -7.359375 C 2.523438 -6.734375 2.40625 -5.921875 2.40625 -4.921875 C 2.40625 -3.742188 2.644531 -2.847656 3.125 -2.234375 C 3.601562 -1.617188 4.242188 -1.3125 5.046875 -1.3125 C 6.304688 -1.3125 7.195312 -1.878906 7.71875 -3.015625 C 8 -3.660156 8.140625 -4.414062 8.140625 -5.28125 Z M 5.1875 -10.71875 Z M 5.1875 -10.71875 "/>
</g>
<g id="glyph-1-13">
<path d="M 7.71875 -14.71875 C 9.070312 -14.71875 10.238281 -14.457031 11.21875 -13.9375 C 12.644531 -13.1875 13.519531 -11.875 13.84375 -10 L 11.921875 -10 C 11.679688 -11.050781 11.191406 -11.816406 10.453125 -12.296875 C 9.722656 -12.773438 8.796875 -13.015625 7.671875 -13.015625 C 6.347656 -13.015625 5.226562 -12.515625 4.3125 -11.515625 C 3.40625 -10.515625 2.953125 -9.03125 2.953125 -7.0625 C 2.953125 -5.351562 3.328125 -3.960938 4.078125 -2.890625 C 4.828125 -1.828125 6.050781 -1.296875 7.75 -1.296875 C 9.039062 -1.296875 10.109375 -1.671875 10.953125 -2.421875 C 11.804688 -3.171875 12.242188 -4.382812 12.265625 -6.0625 L 7.78125 -6.0625 L 7.78125 -7.671875 L 14.078125 -7.671875 L 14.078125 0 L 12.828125 0 L 12.359375 -1.84375 C 11.703125 -1.125 11.117188 -0.625 10.609375 -0.34375 C 9.753906 0.132812 8.671875 0.375 7.359375 0.375 C 5.660156 0.375 4.195312 -0.171875 2.96875 -1.265625 C 1.632812 -2.648438 0.96875 -4.546875 0.96875 -6.953125 C 0.96875 -9.359375 1.617188 -11.269531 2.921875 -12.6875 C 4.160156 -14.039062 5.757812 -14.71875 7.71875 -14.71875 Z M 7.40625 -14.734375 Z M 7.40625 -14.734375 "/>
</g>
<g id="glyph-1-14">
<path d="M 5.4375 -1.140625 C 6.601562 -1.140625 7.398438 -1.578125 7.828125 -2.453125 C 8.265625 -3.335938 8.484375 -4.320312 8.484375 -5.40625 C 8.484375 -6.375 8.328125 -7.164062 8.015625 -7.78125 C 7.523438 -8.75 6.671875 -9.234375 5.453125 -9.234375 C 4.378906 -9.234375 3.597656 -8.820312 3.109375 -8 C 2.628906 -7.175781 2.390625 -6.1875 2.390625 -5.03125 C 2.390625 -3.914062 2.628906 -2.988281 3.109375 -2.25 C 3.597656 -1.507812 4.375 -1.140625 5.4375 -1.140625 Z M 5.515625 -10.765625 C 6.859375 -10.765625 7.992188 -10.3125 8.921875 -9.40625 C 9.859375 -8.507812 10.328125 -7.191406 10.328125 -5.453125 C 10.328125 -3.765625 9.914062 -2.367188 9.09375 -1.265625 C 8.269531 -0.171875 7 0.375 5.28125 0.375 C 3.832031 0.375 2.6875 -0.109375 1.84375 -1.078125 C 1 -2.054688 0.578125 -3.363281 0.578125 -5 C 0.578125 -6.757812 1.019531 -8.160156 1.90625 -9.203125 C 2.800781 -10.242188 4.003906 -10.765625 5.515625 -10.765625 Z M 5.453125 -10.71875 Z M 5.453125 -10.71875 "/>
</g>
<g id="glyph-1-15">
<path d="M 3.046875 -10.453125 L 3.046875 -3.515625 C 3.046875 -2.984375 3.128906 -2.546875 3.296875 -2.203125 C 3.609375 -1.578125 4.191406 -1.265625 5.046875 -1.265625 C 6.273438 -1.265625 7.109375 -1.8125 7.546875 -2.90625 C 7.785156 -3.5 7.90625 -4.304688 7.90625 -5.328125 L 7.90625 -10.453125 L 9.671875 -10.453125 L 9.671875 0 L 8.015625 0 L 8.03125 -1.546875 C 7.800781 -1.148438 7.515625 -0.8125 7.171875 -0.53125 C 6.503906 0.0078125 5.691406 0.28125 4.734375 0.28125 C 3.242188 0.28125 2.226562 -0.21875 1.6875 -1.21875 C 1.394531 -1.75 1.25 -2.457031 1.25 -3.34375 L 1.25 -10.453125 Z M 5.453125 -10.71875 Z M 5.453125 -10.71875 "/>
</g>
<g id="glyph-1-16">
<path d="M 5.703125 -1.1875 C 6.523438 -1.1875 7.207031 -1.53125 7.75 -2.21875 C 8.289062 -2.90625 8.5625 -3.929688 8.5625 -5.296875 C 8.5625 -6.128906 8.441406 -6.84375 8.203125 -7.4375 C 7.742188 -8.59375 6.910156 -9.171875 5.703125 -9.171875 C 4.484375 -9.171875 3.648438 -8.5625 3.203125 -7.34375 C 2.960938 -6.695312 2.84375 -5.867188 2.84375 -4.859375 C 2.84375 -4.054688 2.960938 -3.367188 3.203125 -2.796875 C 3.660156 -1.722656 4.492188 -1.1875 5.703125 -1.1875 Z M 1.15625 -10.40625 L 2.859375 -10.40625 L 2.859375 -9.03125 C 3.210938 -9.5 3.597656 -9.863281 4.015625 -10.125 C 4.609375 -10.519531 5.304688 -10.71875 6.109375 -10.71875 C 7.285156 -10.71875 8.285156 -10.257812 9.109375 -9.34375 C 9.941406 -8.4375 10.359375 -7.140625 10.359375 -5.453125 C 10.359375 -3.179688 9.765625 -1.554688 8.578125 -0.578125 C 7.816406 0.046875 6.9375 0.359375 5.9375 0.359375 C 5.144531 0.359375 4.484375 0.179688 3.953125 -0.171875 C 3.640625 -0.359375 3.289062 -0.691406 2.90625 -1.171875 L 2.90625 4.171875 L 1.15625 4.171875 Z M 1.15625 -10.40625 "/>
</g>
<g id="glyph-1-17">
<path d="M 4.546875 -14.34375 L 6.03125 -14.34375 L 1.484375 0 L 0 0 Z M 4.546875 -14.34375 "/>
</g>
<g id="glyph-1-18">
<path d="M 8.1875 -7.78125 C 9.101562 -7.78125 9.828125 -7.960938 10.359375 -8.328125 C 10.890625 -8.691406 11.15625 -9.347656 11.15625 -10.296875 C 11.15625 -11.316406 10.785156 -12.015625 10.046875 -12.390625 C 9.640625 -12.578125 9.109375 -12.671875 8.453125 -12.671875 L 3.703125 -12.671875 L 3.703125 -7.78125 Z M 1.765625 -14.34375 L 8.40625 -14.34375 C 9.5 -14.34375 10.398438 -14.1875 11.109375 -13.875 C 12.453125 -13.257812 13.125 -12.128906 13.125 -10.484375 C 13.125 -9.617188 12.945312 -8.910156 12.59375 -8.359375 C 12.238281 -7.816406 11.742188 -7.378906 11.109375 -7.046875 C 11.660156 -6.816406 12.078125 -6.515625 12.359375 -6.140625 C 12.648438 -5.773438 12.8125 -5.175781 12.84375 -4.34375 L 12.90625 -2.421875 C 12.925781 -1.878906 12.972656 -1.472656 13.046875 -1.203125 C 13.160156 -0.742188 13.367188 -0.453125 13.671875 -0.328125 L 13.671875 0 L 11.296875 0 C 11.222656 -0.125 11.164062 -0.28125 11.125 -0.46875 C 11.09375 -0.664062 11.0625 -1.046875 11.03125 -1.609375 L 10.921875 -4 C 10.867188 -4.9375 10.519531 -5.566406 9.875 -5.890625 C 9.5 -6.066406 8.914062 -6.15625 8.125 -6.15625 L 3.703125 -6.15625 L 3.703125 0 L 1.765625 0 Z M 1.765625 -14.34375 "/>
</g>
<g id="glyph-1-19">
<path d="M 2.640625 -2.78125 C 2.640625 -2.269531 2.820312 -1.867188 3.1875 -1.578125 C 3.5625 -1.285156 4.003906 -1.140625 4.515625 -1.140625 C 5.128906 -1.140625 5.726562 -1.285156 6.3125 -1.578125 C 7.289062 -2.046875 7.78125 -2.820312 7.78125 -3.90625 L 7.78125 -5.328125 C 7.5625 -5.191406 7.28125 -5.078125 6.9375 -4.984375 C 6.601562 -4.890625 6.273438 -4.820312 5.953125 -4.78125 L 4.890625 -4.65625 C 4.242188 -4.5625 3.765625 -4.425781 3.453125 -4.25 C 2.910156 -3.945312 2.640625 -3.457031 2.640625 -2.78125 Z M 6.890625 -6.34375 C 7.296875 -6.394531 7.566406 -6.5625 7.703125 -6.84375 C 7.785156 -7 7.828125 -7.222656 7.828125 -7.515625 C 7.828125 -8.117188 7.613281 -8.554688 7.1875 -8.828125 C 6.757812 -9.097656 6.148438 -9.234375 5.359375 -9.234375 C 4.429688 -9.234375 3.78125 -8.984375 3.40625 -8.484375 C 3.1875 -8.210938 3.046875 -7.804688 2.984375 -7.265625 L 1.34375 -7.265625 C 1.375 -8.554688 1.789062 -9.453125 2.59375 -9.953125 C 3.394531 -10.460938 4.328125 -10.71875 5.390625 -10.71875 C 6.617188 -10.71875 7.617188 -10.484375 8.390625 -10.015625 C 9.148438 -9.546875 9.53125 -8.816406 9.53125 -7.828125 L 9.53125 -1.796875 C 9.53125 -1.617188 9.566406 -1.472656 9.640625 -1.359375 C 9.710938 -1.242188 9.875 -1.1875 10.125 -1.1875 C 10.195312 -1.1875 10.28125 -1.191406 10.375 -1.203125 C 10.476562 -1.210938 10.582031 -1.226562 10.6875 -1.25 L 10.6875 0.046875 C 10.414062 0.128906 10.207031 0.175781 10.0625 0.1875 C 9.925781 0.207031 9.734375 0.21875 9.484375 0.21875 C 8.878906 0.21875 8.441406 0.00390625 8.171875 -0.421875 C 8.023438 -0.648438 7.921875 -0.972656 7.859375 -1.390625 C 7.503906 -0.921875 6.988281 -0.507812 6.3125 -0.15625 C 5.644531 0.1875 4.910156 0.359375 4.109375 0.359375 C 3.128906 0.359375 2.332031 0.0625 1.71875 -0.53125 C 1.101562 -1.125 0.796875 -1.863281 0.796875 -2.75 C 0.796875 -3.71875 1.097656 -4.46875 1.703125 -5 C 2.316406 -5.53125 3.113281 -5.859375 4.09375 -5.984375 Z M 5.4375 -10.71875 Z M 5.4375 -10.71875 "/>
</g>
<g id="glyph-1-20">
<path d="M 5.328125 -10.765625 C 6.503906 -10.765625 7.460938 -10.476562 8.203125 -9.90625 C 8.941406 -9.332031 9.382812 -8.34375 9.53125 -6.9375 L 7.828125 -6.9375 C 7.722656 -7.582031 7.484375 -8.117188 7.109375 -8.546875 C 6.734375 -8.972656 6.140625 -9.1875 5.328125 -9.1875 C 4.203125 -9.1875 3.398438 -8.640625 2.921875 -7.546875 C 2.609375 -6.835938 2.453125 -5.960938 2.453125 -4.921875 C 2.453125 -3.867188 2.671875 -2.984375 3.109375 -2.265625 C 3.554688 -1.554688 4.253906 -1.203125 5.203125 -1.203125 C 5.929688 -1.203125 6.507812 -1.425781 6.9375 -1.875 C 7.363281 -2.320312 7.660156 -2.929688 7.828125 -3.703125 L 9.53125 -3.703125 C 9.332031 -2.316406 8.84375 -1.300781 8.0625 -0.65625 C 7.28125 -0.0195312 6.28125 0.296875 5.0625 0.296875 C 3.695312 0.296875 2.609375 -0.203125 1.796875 -1.203125 C 0.984375 -2.203125 0.578125 -3.445312 0.578125 -4.9375 C 0.578125 -6.78125 1.019531 -8.210938 1.90625 -9.234375 C 2.800781 -10.253906 3.941406 -10.765625 5.328125 -10.765625 Z M 5.046875 -10.71875 Z M 5.046875 -10.71875 "/>
</g>
<g id="glyph-1-21">
<path d="M 2.796875 -4.625 C 2.835938 -3.8125 3.03125 -3.148438 3.375 -2.640625 C 4.019531 -1.691406 5.15625 -1.21875 6.78125 -1.21875 C 7.507812 -1.21875 8.171875 -1.320312 8.765625 -1.53125 C 9.929688 -1.9375 10.515625 -2.660156 10.515625 -3.703125 C 10.515625 -4.484375 10.269531 -5.039062 9.78125 -5.375 C 9.28125 -5.695312 8.503906 -5.976562 7.453125 -6.21875 L 5.515625 -6.65625 C 4.242188 -6.945312 3.34375 -7.265625 2.8125 -7.609375 C 1.90625 -8.203125 1.453125 -9.097656 1.453125 -10.296875 C 1.453125 -11.585938 1.894531 -12.644531 2.78125 -13.46875 C 3.675781 -14.289062 4.941406 -14.703125 6.578125 -14.703125 C 8.078125 -14.703125 9.351562 -14.335938 10.40625 -13.609375 C 11.457031 -12.890625 11.984375 -11.734375 11.984375 -10.140625 L 10.15625 -10.140625 C 10.0625 -10.910156 9.851562 -11.5 9.53125 -11.90625 C 8.9375 -12.65625 7.929688 -13.03125 6.515625 -13.03125 C 5.367188 -13.03125 4.546875 -12.785156 4.046875 -12.296875 C 3.546875 -11.816406 3.296875 -11.257812 3.296875 -10.625 C 3.296875 -9.925781 3.585938 -9.410156 4.171875 -9.078125 C 4.554688 -8.867188 5.425781 -8.609375 6.78125 -8.296875 L 8.796875 -7.84375 C 9.765625 -7.625 10.507812 -7.320312 11.03125 -6.9375 C 11.945312 -6.257812 12.40625 -5.285156 12.40625 -4.015625 C 12.40625 -2.421875 11.828125 -1.28125 10.671875 -0.59375 C 9.515625 0.0820312 8.171875 0.421875 6.640625 0.421875 C 4.859375 0.421875 3.460938 -0.0351562 2.453125 -0.953125 C 1.441406 -1.859375 0.945312 -3.082031 0.96875 -4.625 Z M 6.71875 -14.734375 Z M 6.71875 -14.734375 "/>
</g>
<g id="glyph-1-22">
<path d="M 0.296875 -10.453125 L 2.5625 -10.453125 L 4.96875 -6.78125 L 7.40625 -10.453125 L 9.546875 -10.40625 L 6.015625 -5.359375 L 9.703125 0 L 7.453125 0 L 4.859375 -3.921875 L 2.328125 0 L 0.109375 0 L 3.796875 -5.359375 Z M 0.296875 -10.453125 "/>
</g>
<g id="glyph-1-23">
<path d="M 5.921875 -14.578125 C 4.898438 -12.597656 4.234375 -11.140625 3.921875 -10.203125 C 3.460938 -8.773438 3.234375 -7.125 3.234375 -5.25 C 3.234375 -3.363281 3.5 -1.640625 4.03125 -0.078125 C 4.351562 0.890625 4.992188 2.273438 5.953125 4.078125 L 4.765625 4.078125 C 3.816406 2.597656 3.226562 1.648438 3 1.234375 C 2.769531 0.828125 2.519531 0.269531 2.25 -0.4375 C 1.882812 -1.394531 1.632812 -2.421875 1.5 -3.515625 C 1.425781 -4.078125 1.390625 -4.617188 1.390625 -5.140625 C 1.390625 -7.066406 1.691406 -8.78125 2.296875 -10.28125 C 2.679688 -11.238281 3.484375 -12.671875 4.703125 -14.578125 Z M 5.921875 -14.578125 "/>
</g>
<g id="glyph-1-24">
<path d="M 3.640625 -14.34375 L 3.640625 -5.484375 C 3.640625 -4.441406 3.832031 -3.570312 4.21875 -2.875 C 4.800781 -1.832031 5.78125 -1.3125 7.15625 -1.3125 C 8.800781 -1.3125 9.921875 -1.878906 10.515625 -3.015625 C 10.828125 -3.617188 10.984375 -4.441406 10.984375 -5.484375 L 10.984375 -14.34375 L 12.953125 -14.34375 L 12.953125 -6.296875 C 12.953125 -4.523438 12.71875 -3.164062 12.25 -2.21875 C 11.375 -0.488281 9.726562 0.375 7.3125 0.375 C 4.882812 0.375 3.238281 -0.488281 2.375 -2.21875 C 1.894531 -3.164062 1.65625 -4.523438 1.65625 -6.296875 L 1.65625 -14.34375 Z M 7.3125 -14.34375 Z M 7.3125 -14.34375 "/>
</g>
<g id="glyph-1-25">
<path d="M 1.703125 -2.125 L 3.75 -2.125 L 3.75 0 L 1.703125 0 Z M 1.703125 -2.125 "/>
</g>
<g id="glyph-1-26">
<path d="M 1.65625 2.046875 C 2.101562 1.960938 2.421875 1.644531 2.609375 1.09375 C 2.703125 0.800781 2.75 0.519531 2.75 0.25 C 2.75 0.195312 2.75 0.148438 2.75 0.109375 C 2.75 0.078125 2.738281 0.0390625 2.71875 0 L 1.65625 0 L 1.65625 -2.125 L 3.75 -2.125 L 3.75 -0.15625 C 3.75 0.613281 3.59375 1.289062 3.28125 1.875 C 2.96875 2.46875 2.425781 2.832031 1.65625 2.96875 Z M 1.65625 2.046875 "/>
</g>
<g id="glyph-1-27">
<path d="M 0.625 0 C 0.6875 -1.207031 0.929688 -2.253906 1.359375 -3.140625 C 1.796875 -4.035156 2.644531 -4.847656 3.90625 -5.578125 L 5.78125 -6.65625 C 6.625 -7.144531 7.210938 -7.5625 7.546875 -7.90625 C 8.078125 -8.445312 8.34375 -9.066406 8.34375 -9.765625 C 8.34375 -10.578125 8.097656 -11.222656 7.609375 -11.703125 C 7.128906 -12.179688 6.484375 -12.421875 5.671875 -12.421875 C 4.460938 -12.421875 3.628906 -11.96875 3.171875 -11.0625 C 2.921875 -10.570312 2.78125 -9.894531 2.75 -9.03125 L 0.96875 -9.03125 C 0.988281 -10.238281 1.210938 -11.226562 1.640625 -12 C 2.398438 -13.351562 3.742188 -14.03125 5.671875 -14.03125 C 7.273438 -14.03125 8.445312 -13.597656 9.1875 -12.734375 C 9.925781 -11.867188 10.296875 -10.90625 10.296875 -9.84375 C 10.296875 -8.726562 9.898438 -7.769531 9.109375 -6.96875 C 8.648438 -6.507812 7.832031 -5.953125 6.65625 -5.296875 L 5.328125 -4.546875 C 4.679688 -4.203125 4.175781 -3.867188 3.8125 -3.546875 C 3.164062 -2.984375 2.757812 -2.351562 2.59375 -1.65625 L 10.21875 -1.65625 L 10.21875 0 Z M 0.625 0 "/>
</g>
<g id="glyph-1-28">
<path d="M 5.40625 -13.984375 C 7.21875 -13.984375 8.53125 -13.238281 9.34375 -11.75 C 9.96875 -10.59375 10.28125 -9.015625 10.28125 -7.015625 C 10.28125 -5.109375 9.992188 -3.535156 9.421875 -2.296875 C 8.597656 -0.515625 7.257812 0.375 5.40625 0.375 C 3.71875 0.375 2.46875 -0.351562 1.65625 -1.8125 C 0.96875 -3.03125 0.625 -4.660156 0.625 -6.703125 C 0.625 -8.296875 0.828125 -9.660156 1.234375 -10.796875 C 2.003906 -12.921875 3.394531 -13.984375 5.40625 -13.984375 Z M 5.390625 -1.21875 C 6.304688 -1.21875 7.03125 -1.617188 7.5625 -2.421875 C 8.101562 -3.234375 8.375 -4.738281 8.375 -6.9375 C 8.375 -8.53125 8.175781 -9.835938 7.78125 -10.859375 C 7.394531 -11.890625 6.640625 -12.40625 5.515625 -12.40625 C 4.484375 -12.40625 3.726562 -11.914062 3.25 -10.9375 C 2.769531 -9.96875 2.53125 -8.535156 2.53125 -6.640625 C 2.53125 -5.210938 2.679688 -4.066406 2.984375 -3.203125 C 3.453125 -1.878906 4.253906 -1.21875 5.390625 -1.21875 Z M 5.390625 -1.21875 "/>
</g>
<g id="glyph-1-29">
<path d="M 6.609375 -4.953125 L 6.609375 -11.296875 L 2.125 -4.953125 Z M 6.640625 0 L 6.640625 -3.421875 L 0.515625 -3.421875 L 0.515625 -5.140625 L 6.921875 -14.03125 L 8.40625 -14.03125 L 8.40625 -4.953125 L 10.453125 -4.953125 L 10.453125 -3.421875 L 8.40625 -3.421875 L 8.40625 0 Z M 6.640625 0 "/>
</g>
<g id="glyph-1-30">
<path d="M 0.6875 4.078125 C 1.726562 2.066406 2.398438 0.597656 2.703125 -0.328125 C 3.148438 -1.734375 3.375 -3.375 3.375 -5.25 C 3.375 -7.132812 3.113281 -8.859375 2.59375 -10.421875 C 2.257812 -11.378906 1.617188 -12.765625 0.671875 -14.578125 L 1.84375 -14.578125 C 2.84375 -12.972656 3.445312 -11.984375 3.65625 -11.609375 C 3.875 -11.242188 4.109375 -10.726562 4.359375 -10.0625 C 4.671875 -9.25 4.890625 -8.445312 5.015625 -7.65625 C 5.148438 -6.863281 5.21875 -6.097656 5.21875 -5.359375 C 5.21875 -3.429688 4.914062 -1.710938 4.3125 -0.203125 C 3.925781 0.765625 3.128906 2.191406 1.921875 4.078125 Z M 0.6875 4.078125 "/>
</g>
<g id="glyph-2-0">
<path d="M 0.90625 -8.640625 L 7.859375 -8.640625 L 7.859375 0 L 0.90625 0 Z M 6.78125 -1.078125 L 6.78125 -7.5625 L 1.984375 -7.5625 L 1.984375 -1.078125 Z M 6.78125 -1.078125 "/>
</g>
<g id="glyph-2-1">
<path d="M 6.21875 -0.21875 C 5.738281 0.0820312 5.148438 0.234375 4.453125 0.234375 C 3.304688 0.234375 2.367188 -0.164062 1.640625 -0.96875 C 0.878906 -1.757812 0.5 -2.847656 0.5 -4.234375 C 0.5 -5.628906 0.882812 -6.75 1.65625 -7.59375 C 2.425781 -8.4375 3.441406 -8.859375 4.703125 -8.859375 C 5.804688 -8.859375 6.6875 -8.578125 7.34375 -8.015625 C 8.007812 -7.460938 8.394531 -6.769531 8.5 -5.9375 L 6.71875 -5.9375 C 6.582031 -6.53125 6.25 -6.941406 5.71875 -7.171875 C 5.425781 -7.304688 5.097656 -7.375 4.734375 -7.375 C 4.035156 -7.375 3.460938 -7.109375 3.015625 -6.578125 C 2.566406 -6.054688 2.34375 -5.269531 2.34375 -4.21875 C 2.34375 -3.15625 2.582031 -2.398438 3.0625 -1.953125 C 3.550781 -1.515625 4.101562 -1.296875 4.71875 -1.296875 C 5.320312 -1.296875 5.816406 -1.46875 6.203125 -1.8125 C 6.597656 -2.164062 6.835938 -2.625 6.921875 -3.1875 L 4.921875 -3.1875 L 4.921875 -4.640625 L 8.53125 -4.640625 L 8.53125 0 L 7.328125 0 L 7.15625 -1.078125 C 6.800781 -0.671875 6.488281 -0.382812 6.21875 -0.21875 Z M 6.21875 -0.21875 "/>
</g>
<g id="glyph-2-2">
<path d="M 3.984375 -4.84375 C 3.316406 -4.84375 2.867188 -4.625 2.640625 -4.1875 C 2.503906 -3.945312 2.4375 -3.566406 2.4375 -3.046875 L 2.4375 0 L 0.765625 0 L 0.765625 -6.390625 L 2.359375 -6.390625 L 2.359375 -5.28125 C 2.617188 -5.695312 2.84375 -5.984375 3.03125 -6.140625 C 3.34375 -6.410156 3.75 -6.546875 4.25 -6.546875 C 4.28125 -6.546875 4.304688 -6.539062 4.328125 -6.53125 C 4.347656 -6.53125 4.394531 -6.53125 4.46875 -6.53125 L 4.46875 -4.8125 C 4.363281 -4.820312 4.269531 -4.828125 4.1875 -4.828125 C 4.101562 -4.835938 4.035156 -4.84375 3.984375 -4.84375 Z M 3.984375 -4.84375 "/>
</g>
<g id="glyph-2-3">
<path d="M 6.109375 -5.578125 C 6.648438 -4.898438 6.921875 -4.101562 6.921875 -3.1875 C 6.921875 -2.25 6.648438 -1.445312 6.109375 -0.78125 C 5.566406 -0.113281 4.75 0.21875 3.65625 0.21875 C 2.550781 0.21875 1.726562 -0.113281 1.1875 -0.78125 C 0.65625 -1.445312 0.390625 -2.25 0.390625 -3.1875 C 0.390625 -4.101562 0.65625 -4.898438 1.1875 -5.578125 C 1.726562 -6.253906 2.550781 -6.59375 3.65625 -6.59375 C 4.75 -6.59375 5.566406 -6.253906 6.109375 -5.578125 Z M 3.640625 -5.1875 C 3.148438 -5.1875 2.773438 -5.007812 2.515625 -4.65625 C 2.253906 -4.3125 2.125 -3.820312 2.125 -3.1875 C 2.125 -2.539062 2.253906 -2.039062 2.515625 -1.6875 C 2.773438 -1.34375 3.148438 -1.171875 3.640625 -1.171875 C 4.128906 -1.171875 4.503906 -1.34375 4.765625 -1.6875 C 5.023438 -2.039062 5.15625 -2.539062 5.15625 -3.1875 C 5.15625 -3.820312 5.023438 -4.3125 4.765625 -4.65625 C 4.503906 -5.007812 4.128906 -5.1875 3.640625 -5.1875 Z M 3.640625 -5.1875 "/>
</g>
<g id="glyph-2-4">
<path d="M 4.875 -0.90625 C 4.863281 -0.882812 4.828125 -0.820312 4.765625 -0.71875 C 4.703125 -0.625 4.625 -0.539062 4.53125 -0.46875 C 4.269531 -0.238281 4.015625 -0.0820312 3.765625 0 C 3.523438 0.09375 3.242188 0.140625 2.921875 0.140625 C 1.972656 0.140625 1.335938 -0.195312 1.015625 -0.875 C 0.828125 -1.25 0.734375 -1.800781 0.734375 -2.53125 L 0.734375 -6.390625 L 2.4375 -6.390625 L 2.4375 -2.53125 C 2.4375 -2.175781 2.484375 -1.90625 2.578125 -1.71875 C 2.722656 -1.394531 3.019531 -1.234375 3.46875 -1.234375 C 4.039062 -1.234375 4.429688 -1.460938 4.640625 -1.921875 C 4.753906 -2.171875 4.8125 -2.5 4.8125 -2.90625 L 4.8125 -6.390625 L 6.5 -6.390625 L 6.5 0 L 4.875 0 Z M 4.875 -0.90625 "/>
</g>
<g id="glyph-2-5">
<path d="M 6.125 -5.703125 C 6.644531 -5.148438 6.90625 -4.34375 6.90625 -3.28125 C 6.90625 -2.15625 6.648438 -1.296875 6.140625 -0.703125 C 5.640625 -0.109375 4.988281 0.1875 4.1875 0.1875 C 3.675781 0.1875 3.253906 0.0546875 2.921875 -0.203125 C 2.742188 -0.335938 2.566406 -0.539062 2.390625 -0.8125 L 2.390625 2.515625 L 0.734375 2.515625 L 0.734375 -6.390625 L 2.328125 -6.390625 L 2.328125 -5.4375 C 2.515625 -5.71875 2.707031 -5.9375 2.90625 -6.09375 C 3.28125 -6.382812 3.722656 -6.53125 4.234375 -6.53125 C 4.972656 -6.53125 5.601562 -6.253906 6.125 -5.703125 Z M 5.1875 -3.1875 C 5.1875 -3.6875 5.070312 -4.125 4.84375 -4.5 C 4.613281 -4.875 4.25 -5.0625 3.75 -5.0625 C 3.144531 -5.0625 2.726562 -4.773438 2.5 -4.203125 C 2.382812 -3.898438 2.328125 -3.515625 2.328125 -3.046875 C 2.328125 -2.304688 2.523438 -1.785156 2.921875 -1.484375 C 3.148438 -1.304688 3.425781 -1.21875 3.75 -1.21875 C 4.21875 -1.21875 4.570312 -1.394531 4.8125 -1.75 C 5.0625 -2.113281 5.1875 -2.59375 5.1875 -3.1875 Z M 5.1875 -3.1875 "/>
</g>
<g id="glyph-2-6">
<path d="M 4.046875 -1.25 C 4.472656 -1.25 4.820312 -1.296875 5.09375 -1.390625 C 5.59375 -1.566406 5.84375 -1.898438 5.84375 -2.390625 C 5.84375 -2.671875 5.71875 -2.890625 5.46875 -3.046875 C 5.21875 -3.203125 4.828125 -3.335938 4.296875 -3.453125 L 3.375 -3.65625 C 2.476562 -3.863281 1.859375 -4.085938 1.515625 -4.328125 C 0.929688 -4.722656 0.640625 -5.34375 0.640625 -6.1875 C 0.640625 -6.96875 0.921875 -7.613281 1.484375 -8.125 C 2.046875 -8.632812 2.875 -8.890625 3.96875 -8.890625 C 4.875 -8.890625 5.644531 -8.644531 6.28125 -8.15625 C 6.925781 -7.675781 7.265625 -6.976562 7.296875 -6.0625 L 5.5625 -6.0625 C 5.53125 -6.582031 5.304688 -6.953125 4.890625 -7.171875 C 4.609375 -7.316406 4.257812 -7.390625 3.84375 -7.390625 C 3.375 -7.390625 3 -7.296875 2.71875 -7.109375 C 2.445312 -6.921875 2.3125 -6.660156 2.3125 -6.328125 C 2.3125 -6.015625 2.445312 -5.78125 2.71875 -5.625 C 2.894531 -5.53125 3.269531 -5.414062 3.84375 -5.28125 L 5.328125 -4.921875 C 5.984375 -4.765625 6.476562 -4.554688 6.8125 -4.296875 C 7.320312 -3.890625 7.578125 -3.300781 7.578125 -2.53125 C 7.578125 -1.738281 7.273438 -1.082031 6.671875 -0.5625 C 6.066406 -0.0390625 5.21875 0.21875 4.125 0.21875 C 3 0.21875 2.113281 -0.0351562 1.46875 -0.546875 C 0.820312 -1.054688 0.5 -1.765625 0.5 -2.671875 L 2.21875 -2.671875 C 2.269531 -2.273438 2.378906 -1.976562 2.546875 -1.78125 C 2.835938 -1.425781 3.335938 -1.25 4.046875 -1.25 Z M 4.046875 -1.25 "/>
</g>
<g id="glyph-2-7">
<path d="M 6.25 -1.875 C 6.207031 -1.5 6.007812 -1.113281 5.65625 -0.71875 C 5.101562 -0.09375 4.335938 0.21875 3.359375 0.21875 C 2.546875 0.21875 1.828125 -0.0390625 1.203125 -0.5625 C 0.585938 -1.09375 0.28125 -1.945312 0.28125 -3.125 C 0.28125 -4.226562 0.554688 -5.078125 1.109375 -5.671875 C 1.671875 -6.265625 2.398438 -6.5625 3.296875 -6.5625 C 3.828125 -6.5625 4.304688 -6.457031 4.734375 -6.25 C 5.160156 -6.050781 5.515625 -5.738281 5.796875 -5.3125 C 6.046875 -4.9375 6.207031 -4.5 6.28125 -4 C 6.320312 -3.707031 6.335938 -3.285156 6.328125 -2.734375 L 1.953125 -2.734375 C 1.984375 -2.085938 2.1875 -1.640625 2.5625 -1.390625 C 2.789062 -1.222656 3.066406 -1.140625 3.390625 -1.140625 C 3.734375 -1.140625 4.015625 -1.238281 4.234375 -1.4375 C 4.347656 -1.539062 4.453125 -1.6875 4.546875 -1.875 Z M 4.59375 -3.828125 C 4.5625 -4.273438 4.425781 -4.613281 4.1875 -4.84375 C 3.945312 -5.070312 3.648438 -5.1875 3.296875 -5.1875 C 2.910156 -5.1875 2.609375 -5.0625 2.390625 -4.8125 C 2.179688 -4.570312 2.050781 -4.242188 2 -3.828125 Z M 4.59375 -3.828125 "/>
</g>
<g id="glyph-2-8">
<path d="M 6.46875 0 L 4.390625 0 L 3.28125 -1.921875 L 2.1875 0 L 0.15625 0 L 2.328125 -3.234375 L 0.25 -6.375 L 2.296875 -6.375 L 3.359375 -4.53125 L 4.40625 -6.375 L 6.390625 -6.375 L 4.296875 -3.265625 Z M 6.46875 0 "/>
</g>
<g id="glyph-3-0">
<path d="M -8.640625 -0.90625 L -8.640625 -7.859375 L 0 -7.859375 L 0 -0.90625 Z M -1.078125 -6.78125 L -7.5625 -6.78125 L -7.5625 -1.984375 L -1.078125 -1.984375 Z M -1.078125 -6.78125 "/>
</g>
<g id="glyph-3-1">
<path d="M -3.390625 -4.578125 L -3.390625 -2.71875 L 0 -2.71875 L 0 -0.953125 L -8.640625 -0.953125 L -8.640625 -5.1875 C -8.628906 -5.789062 -8.550781 -6.253906 -8.40625 -6.578125 C -8.269531 -6.910156 -8.070312 -7.191406 -7.8125 -7.421875 C -7.59375 -7.609375 -7.347656 -7.753906 -7.078125 -7.859375 C -6.816406 -7.972656 -6.515625 -8.03125 -6.171875 -8.03125 C -5.765625 -8.03125 -5.363281 -7.925781 -4.96875 -7.71875 C -4.570312 -7.507812 -4.289062 -7.164062 -4.125 -6.6875 C -3.96875 -7.09375 -3.738281 -7.375 -3.4375 -7.53125 C -3.144531 -7.695312 -2.695312 -7.78125 -2.09375 -7.78125 L -1.515625 -7.78125 C -1.117188 -7.78125 -0.847656 -7.796875 -0.703125 -7.828125 C -0.484375 -7.878906 -0.320312 -7.988281 -0.21875 -8.15625 L 0 -8.15625 L 0 -6.171875 C -0.1875 -6.117188 -0.34375 -6.082031 -0.46875 -6.0625 C -0.707031 -6.007812 -0.953125 -5.984375 -1.203125 -5.984375 L -2.015625 -5.96875 C -2.566406 -5.957031 -2.929688 -5.851562 -3.109375 -5.65625 C -3.296875 -5.46875 -3.390625 -5.109375 -3.390625 -4.578125 Z M -4.953125 -5.671875 C -5.117188 -6.035156 -5.445312 -6.21875 -5.9375 -6.21875 C -6.457031 -6.21875 -6.804688 -6.046875 -6.984375 -5.703125 C -7.085938 -5.503906 -7.140625 -5.207031 -7.140625 -4.8125 L -7.140625 -2.71875 L -4.8125 -2.71875 L -4.8125 -4.765625 C -4.8125 -5.171875 -4.859375 -5.472656 -4.953125 -5.671875 Z M -4.953125 -5.671875 "/>
</g>
<g id="glyph-3-2">
<path d="M -5.703125 -1.015625 C -6.265625 -1.460938 -6.546875 -2.222656 -6.546875 -3.296875 C -6.546875 -3.992188 -6.40625 -4.613281 -6.125 -5.15625 C -5.84375 -5.695312 -5.316406 -5.96875 -4.546875 -5.96875 L -1.625 -5.96875 C -1.414062 -5.96875 -1.171875 -5.972656 -0.890625 -5.984375 C -0.671875 -5.992188 -0.519531 -6.023438 -0.4375 -6.078125 C -0.363281 -6.140625 -0.300781 -6.222656 -0.25 -6.328125 L 0 -6.328125 L 0 -4.515625 C -0.125 -4.460938 -0.242188 -4.425781 -0.359375 -4.40625 C -0.472656 -4.382812 -0.601562 -4.367188 -0.75 -4.359375 C -0.5 -4.128906 -0.285156 -3.863281 -0.109375 -3.5625 C 0.0976562 -3.207031 0.203125 -2.800781 0.203125 -2.34375 C 0.203125 -1.769531 0.0351562 -1.289062 -0.296875 -0.90625 C -0.628906 -0.53125 -1.097656 -0.34375 -1.703125 -0.34375 C -2.484375 -0.34375 -3.050781 -0.644531 -3.40625 -1.25 C -3.59375 -1.582031 -3.726562 -2.070312 -3.8125 -2.71875 L -3.890625 -3.28125 C -3.921875 -3.59375 -3.96875 -3.816406 -4.03125 -3.953125 C -4.132812 -4.191406 -4.289062 -4.3125 -4.5 -4.3125 C -4.769531 -4.3125 -4.953125 -4.21875 -5.046875 -4.03125 C -5.148438 -3.851562 -5.203125 -3.585938 -5.203125 -3.234375 C -5.203125 -2.835938 -5.101562 -2.554688 -4.90625 -2.390625 C -4.757812 -2.273438 -4.5625 -2.195312 -4.3125 -2.15625 L -4.3125 -0.546875 C -4.875 -0.585938 -5.335938 -0.742188 -5.703125 -1.015625 Z M -1.203125 -2.265625 C -1.078125 -2.421875 -1.015625 -2.613281 -1.015625 -2.84375 C -1.015625 -3.195312 -1.117188 -3.523438 -1.328125 -3.828125 C -1.535156 -4.128906 -1.921875 -4.285156 -2.484375 -4.296875 L -3.109375 -4.296875 C -3.035156 -4.191406 -2.976562 -4.085938 -2.9375 -3.984375 C -2.90625 -3.878906 -2.867188 -3.734375 -2.828125 -3.546875 L -2.765625 -3.171875 C -2.703125 -2.816406 -2.625 -2.5625 -2.53125 -2.40625 C -2.375 -2.144531 -2.140625 -2.015625 -1.828125 -2.015625 C -1.535156 -2.015625 -1.328125 -2.097656 -1.203125 -2.265625 Z M -1.203125 -2.265625 "/>
</g>
<g id="glyph-3-3">
<path d="M -4.09375 -6.3125 L -4.09375 -4.59375 C -4.332031 -4.5625 -4.546875 -4.484375 -4.734375 -4.359375 C -4.992188 -4.171875 -5.125 -3.878906 -5.125 -3.484375 C -5.125 -2.921875 -4.847656 -2.535156 -4.296875 -2.328125 C -3.992188 -2.210938 -3.597656 -2.15625 -3.109375 -2.15625 C -2.640625 -2.15625 -2.257812 -2.210938 -1.96875 -2.328125 C -1.4375 -2.523438 -1.171875 -2.898438 -1.171875 -3.453125 C -1.171875 -3.835938 -1.273438 -4.113281 -1.484375 -4.28125 C -1.703125 -4.445312 -1.976562 -4.546875 -2.3125 -4.578125 L -2.3125 -6.28125 C -1.800781 -6.25 -1.320312 -6.066406 -0.875 -5.734375 C -0.144531 -5.210938 0.21875 -4.4375 0.21875 -3.40625 C 0.21875 -2.382812 -0.0820312 -1.628906 -0.6875 -1.140625 C -1.300781 -0.660156 -2.09375 -0.421875 -3.0625 -0.421875 C -4.164062 -0.421875 -5.019531 -0.6875 -5.625 -1.21875 C -6.238281 -1.75 -6.546875 -2.488281 -6.546875 -3.4375 C -6.546875 -4.238281 -6.363281 -4.894531 -6 -5.40625 C -5.644531 -5.914062 -5.007812 -6.21875 -4.09375 -6.3125 Z M -4.09375 -6.3125 "/>
</g>
<g id="glyph-3-4">
<path d="M -1.875 -6.25 C -1.5 -6.207031 -1.113281 -6.007812 -0.71875 -5.65625 C -0.09375 -5.101562 0.21875 -4.335938 0.21875 -3.359375 C 0.21875 -2.546875 -0.0390625 -1.828125 -0.5625 -1.203125 C -1.09375 -0.585938 -1.945312 -0.28125 -3.125 -0.28125 C -4.226562 -0.28125 -5.078125 -0.554688 -5.671875 -1.109375 C -6.265625 -1.671875 -6.5625 -2.398438 -6.5625 -3.296875 C -6.5625 -3.828125 -6.457031 -4.304688 -6.25 -4.734375 C -6.050781 -5.160156 -5.738281 -5.515625 -5.3125 -5.796875 C -4.9375 -6.046875 -4.5 -6.207031 -4 -6.28125 C -3.707031 -6.320312 -3.285156 -6.335938 -2.734375 -6.328125 L -2.734375 -1.953125 C -2.085938 -1.984375 -1.640625 -2.1875 -1.390625 -2.5625 C -1.222656 -2.789062 -1.140625 -3.066406 -1.140625 -3.390625 C -1.140625 -3.734375 -1.238281 -4.015625 -1.4375 -4.234375 C -1.539062 -4.347656 -1.6875 -4.453125 -1.875 -4.546875 Z M -3.828125 -4.59375 C -4.273438 -4.5625 -4.613281 -4.425781 -4.84375 -4.1875 C -5.070312 -3.945312 -5.1875 -3.648438 -5.1875 -3.296875 C -5.1875 -2.910156 -5.0625 -2.609375 -4.8125 -2.390625 C -4.570312 -2.179688 -4.242188 -2.050781 -3.828125 -2 Z M -3.828125 -4.59375 "/>
</g>
<g id="glyph-4-0">
<path d="M 0.28125 -0.28125 L -5.8125 -6.375 L -0.984375 -11.203125 L 5.109375 -5.109375 Z M 3.578125 -5.109375 L -0.984375 -9.671875 L -4.296875 -6.359375 L 0.265625 -1.796875 Z M 3.578125 -5.109375 "/>
</g>
<g id="glyph-4-1">
<path d="M -5.359375 -6.828125 L -1.140625 -11.046875 L -0.390625 -10.296875 L -3.796875 -6.890625 L -1.9375 -5.03125 L 1.0625 -8.03125 L 1.78125 -7.3125 L -1.21875 -4.3125 L 1.546875 -1.546875 L 0.734375 -0.734375 Z M -5.359375 -6.828125 "/>
</g>
<g id="glyph-4-2">
<path d="M -2.15625 -6.9375 C -1.832031 -7.257812 -1.445312 -7.488281 -1 -7.625 C -0.5625 -7.769531 -0.148438 -7.804688 0.234375 -7.734375 C 0.609375 -7.648438 0.96875 -7.488281 1.3125 -7.25 C 1.570312 -7.09375 1.925781 -6.789062 2.375 -6.34375 L -0.890625 -3.078125 C -0.421875 -2.628906 0.046875 -2.367188 0.515625 -2.296875 C 0.992188 -2.234375 1.441406 -2.410156 1.859375 -2.828125 C 2.242188 -3.210938 2.421875 -3.648438 2.390625 -4.140625 C 2.378906 -4.421875 2.304688 -4.691406 2.171875 -4.953125 L 2.890625 -5.671875 C 3.035156 -5.503906 3.15625 -5.265625 3.25 -4.953125 C 3.34375 -4.640625 3.382812 -4.351562 3.375 -4.09375 C 3.375 -3.632812 3.242188 -3.203125 2.984375 -2.796875 C 2.847656 -2.578125 2.664062 -2.351562 2.4375 -2.125 C 1.882812 -1.570312 1.210938 -1.300781 0.421875 -1.3125 C -0.359375 -1.332031 -1.109375 -1.703125 -1.828125 -2.421875 C -2.546875 -3.140625 -2.9375 -3.914062 -3 -4.75 C -3.0625 -5.582031 -2.78125 -6.3125 -2.15625 -6.9375 Z M 1 -6.15625 C 0.644531 -6.445312 0.320312 -6.632812 0.03125 -6.71875 C -0.53125 -6.882812 -1.050781 -6.726562 -1.53125 -6.25 C -1.882812 -5.894531 -2.050781 -5.476562 -2.03125 -5 C -2.019531 -4.53125 -1.832031 -4.09375 -1.46875 -3.6875 Z M -2.234375 -6.859375 Z M -2.234375 -6.859375 "/>
</g>
<g id="glyph-4-3">
<path d="M -3.890625 -4.984375 L -3.15625 -5.71875 L -2.53125 -5.09375 C -2.5625 -5.476562 -2.554688 -5.796875 -2.515625 -6.046875 C -2.453125 -6.460938 -2.257812 -6.832031 -1.9375 -7.15625 C -1.582031 -7.507812 -1.210938 -7.703125 -0.828125 -7.734375 C -0.597656 -7.753906 -0.332031 -7.71875 -0.03125 -7.625 C -0.125 -8.03125 -0.113281 -8.398438 0 -8.734375 C 0.101562 -9.078125 0.296875 -9.390625 0.578125 -9.671875 C 1.171875 -10.265625 1.796875 -10.453125 2.453125 -10.234375 C 2.796875 -10.117188 3.164062 -9.863281 3.5625 -9.46875 L 6.515625 -6.515625 L 5.75 -5.75 L 2.671875 -8.828125 C 2.367188 -9.128906 2.085938 -9.257812 1.828125 -9.21875 C 1.566406 -9.175781 1.332031 -9.050781 1.125 -8.84375 C 0.832031 -8.550781 0.675781 -8.195312 0.65625 -7.78125 C 0.644531 -7.375 0.867188 -6.941406 1.328125 -6.484375 L 3.90625 -3.90625 L 3.15625 -3.15625 L 0.265625 -6.046875 C -0.0351562 -6.347656 -0.300781 -6.53125 -0.53125 -6.59375 C -0.832031 -6.6875 -1.140625 -6.578125 -1.453125 -6.265625 C -1.734375 -5.984375 -1.878906 -5.617188 -1.890625 -5.171875 C -1.910156 -4.734375 -1.632812 -4.226562 -1.0625 -3.65625 L 1.296875 -1.296875 L 0.546875 -0.546875 Z M -3.890625 -4.984375 "/>
</g>
<g id="glyph-4-4">
<path d="M -0.078125 -2.296875 C 0.140625 -2.078125 0.390625 -1.984375 0.671875 -2.015625 C 0.960938 -2.054688 1.210938 -2.179688 1.421875 -2.390625 C 1.691406 -2.660156 1.890625 -2.972656 2.015625 -3.328125 C 2.222656 -3.953125 2.097656 -4.492188 1.640625 -4.953125 L 1.046875 -5.546875 C 1.003906 -5.398438 0.929688 -5.238281 0.828125 -5.0625 C 0.722656 -4.882812 0.609375 -4.710938 0.484375 -4.546875 L 0.09375 -4.0625 C -0.132812 -3.75 -0.28125 -3.476562 -0.34375 -3.25 C -0.445312 -2.894531 -0.359375 -2.578125 -0.078125 -2.296875 Z M 0.234375 -5.609375 C 0.390625 -5.804688 0.429688 -5.992188 0.359375 -6.171875 C 0.328125 -6.265625 0.25 -6.375 0.125 -6.5 C -0.125 -6.75 -0.394531 -6.835938 -0.6875 -6.765625 C -0.988281 -6.703125 -1.300781 -6.507812 -1.625 -6.1875 C -2.019531 -5.789062 -2.195312 -5.414062 -2.15625 -5.0625 C -2.132812 -4.832031 -2.019531 -4.59375 -1.8125 -4.34375 L -2.515625 -3.640625 C -3.054688 -4.203125 -3.257812 -4.757812 -3.125 -5.3125 C -3 -5.875 -2.710938 -6.378906 -2.265625 -6.828125 C -1.734375 -7.359375 -1.207031 -7.6875 -0.6875 -7.8125 C -0.15625 -7.925781 0.316406 -7.773438 0.734375 -7.359375 L 3.28125 -4.8125 C 3.351562 -4.738281 3.425781 -4.691406 3.5 -4.671875 C 3.582031 -4.660156 3.675781 -4.707031 3.78125 -4.8125 C 3.8125 -4.84375 3.847656 -4.878906 3.890625 -4.921875 C 3.929688 -4.960938 3.972656 -5.015625 4.015625 -5.078125 L 4.5625 -4.53125 C 4.46875 -4.375 4.394531 -4.257812 4.34375 -4.1875 C 4.289062 -4.113281 4.210938 -4.023438 4.109375 -3.921875 C 3.859375 -3.671875 3.585938 -3.578125 3.296875 -3.640625 C 3.128906 -3.679688 2.953125 -3.773438 2.765625 -3.921875 C 2.804688 -3.566406 2.753906 -3.171875 2.609375 -2.734375 C 2.472656 -2.304688 2.238281 -1.925781 1.90625 -1.59375 C 1.488281 -1.175781 1.023438 -0.960938 0.515625 -0.953125 C 0.00390625 -0.941406 -0.4375 -1.125 -0.8125 -1.5 C -1.226562 -1.914062 -1.421875 -2.363281 -1.390625 -2.84375 C -1.367188 -3.332031 -1.175781 -3.8125 -0.8125 -4.28125 Z M -2.234375 -6.859375 Z M -2.234375 -6.859375 "/>
</g>
<g id="glyph-4-5">
<path d="M -5.53125 -6.65625 L -4.78125 -7.40625 L 1.3125 -1.3125 L 0.5625 -0.5625 Z M -5.53125 -6.65625 "/>
</g>
<g id="glyph-4-6">
<path d="M -5.46875 -6.71875 L -4.28125 -7.90625 L 2.625 -4.5 L -0.796875 -11.390625 L 0.375 -12.5625 L 6.46875 -6.46875 L 5.671875 -5.671875 L 2.078125 -9.265625 C 1.953125 -9.390625 1.75 -9.597656 1.46875 -9.890625 C 1.1875 -10.179688 0.878906 -10.492188 0.546875 -10.828125 L 3.953125 -3.953125 L 3.140625 -3.140625 L -3.75 -6.53125 L -3.5625 -6.34375 C -3.414062 -6.195312 -3.179688 -5.972656 -2.859375 -5.671875 C -2.546875 -5.378906 -2.316406 -5.160156 -2.171875 -5.015625 L 1.421875 -1.421875 L 0.625 -0.625 Z M -5.46875 -6.71875 "/>
</g>
</g>
</defs>
<rect x="-50.4" y="-50.4" width="604.8" height="604.8" fill="rgb(100%, 100%, 100%)" fill-opacity="1"/>
<path fill-rule="nonzero" fill="rgb(82.745098%, 24.705882%, 41.568627%)" fill-opacity="1" d="M 446.398438 421.921875 L 456.476562 421.921875 L 456.476562 339.5 L 446.398438 339.5 Z M 446.398438 421.921875 "/>
<path fill-rule="nonzero" fill="rgb(89.411765%, 58.431373%, 64.705882%)" fill-opacity="1" d="M 446.398438 339.496094 L 456.476562 339.496094 L 456.476562 322.539062 L 446.398438 322.539062 Z M 446.398438 339.496094 "/>
<path fill-rule="nonzero" fill="rgb(88.627451%, 88.627451%, 88.627451%)" fill-opacity="1" d="M 446.398438 322.539062 L 456.476562 322.539062 L 456.476562 305.582031 L 446.398438 305.582031 Z M 446.398438 322.539062 "/>
<path fill-rule="nonzero" fill="rgb(88.627451%, 88.627451%, 88.627451%)" fill-opacity="1" d="M 446.398438 305.582031 L 456.476562 305.582031 L 456.476562 288.625 L 446.398438 288.625 Z M 446.398438 305.582031 "/>
<path fill-rule="nonzero" fill="rgb(61.568627%, 65.882353%, 88.627451%)" fill-opacity="1" d="M 446.398438 288.625 L 456.476562 288.625 L 456.476562 271.667969 L 446.398438 271.667969 Z M 446.398438 288.625 "/>
<path fill-rule="nonzero" fill="rgb(29.019608%, 43.529412%, 89.019608%)" fill-opacity="1" d="M 446.398438 271.664062 L 456.476562 271.664062 L 456.476562 110.878906 L 446.398438 110.878906 Z M 446.398438 271.664062 "/>
<path fill="none" stroke-width="0.75" stroke-linecap="round" stroke-linejoin="round" stroke="rgb(0%, 0%, 0%)" stroke-opacity="1" stroke-miterlimit="10" d="M 446.398438 421.921875 L 456.476562 421.921875 L 456.476562 110.882812 L 446.398438 110.882812 Z M 446.398438 421.921875 "/>
<g fill="rgb(0%, 0%, 0%)" fill-opacity="1">
<use xlink:href="#glyph-0-1" x="485" y="425.662109"/>
<use xlink:href="#glyph-0-2" x="489" y="425.662109"/>
<use xlink:href="#glyph-0-3" x="496" y="425.662109"/>
</g>
<g fill="rgb(0%, 0%, 0%)" fill-opacity="1">
<use xlink:href="#glyph-0-4" x="489" y="343.236328"/>
<use xlink:href="#glyph-0-1" x="492" y="343.236328"/>
<use xlink:href="#glyph-0-3" x="496" y="343.236328"/>
</g>
<g fill="rgb(0%, 0%, 0%)" fill-opacity="1">
<use xlink:href="#glyph-0-4" x="489" y="326.279297"/>
<use xlink:href="#glyph-0-1" x="492" y="326.279297"/>
<use xlink:href="#glyph-0-5" x="496" y="326.279297"/>
</g>
<g fill="rgb(0%, 0%, 0%)" fill-opacity="1">
<use xlink:href="#glyph-0-4" x="490" y="309.322266"/>
<use xlink:href="#glyph-0-4" x="493" y="309.322266"/>
<use xlink:href="#glyph-0-6" x="496" y="309.322266"/>
</g>
<g fill="rgb(0%, 0%, 0%)" fill-opacity="1">
<use xlink:href="#glyph-0-4" x="490" y="292.365234"/>
<use xlink:href="#glyph-0-4" x="493" y="292.365234"/>
<use xlink:href="#glyph-0-5" x="496" y="292.365234"/>
</g>
<g fill="rgb(0%, 0%, 0%)" fill-opacity="1">
<use xlink:href="#glyph-0-4" x="490" y="275.404297"/>
<use xlink:href="#glyph-0-4" x="493" y="275.404297"/>
<use xlink:href="#glyph-0-3" x="496" y="275.404297"/>
</g>
<g fill="rgb(0%, 0%, 0%)" fill-opacity="1">
<use xlink:href="#glyph-0-4" x="486" y="114.619141"/>
<use xlink:href="#glyph-0-5" x="489" y="114.619141"/>
<use xlink:href="#glyph-0-7" x="496" y="114.619141"/>
</g>
<path fill="none" stroke-width="0.75" stroke-linecap="round" stroke-linejoin="round" stroke="rgb(0%, 0%, 0%)" stroke-opacity="1" stroke-miterlimit="10" d="M 456.480469 421.921875 L 463.679688 421.921875 "/>
<path fill="none" stroke-width="0.75" stroke-linecap="round" stroke-linejoin="round" stroke="rgb(0%, 0%, 0%)" stroke-opacity="1" stroke-miterlimit="10" d="M 456.480469 339.496094 L 463.679688 339.496094 "/>
<path fill="none" stroke-width="0.75" stroke-linecap="round" stroke-linejoin="round" stroke="rgb(0%, 0%, 0%)" stroke-opacity="1" stroke-miterlimit="10" d="M 456.480469 322.539062 L 463.679688 322.539062 "/>
<path fill="none" stroke-width="0.75" stroke-linecap="round" stroke-linejoin="round" stroke="rgb(0%, 0%, 0%)" stroke-opacity="1" stroke-miterlimit="10" d="M 456.480469 305.582031 L 463.679688 305.582031 "/>
<path fill="none" stroke-width="0.75" stroke-linecap="round" stroke-linejoin="round" stroke="rgb(0%, 0%, 0%)" stroke-opacity="1" stroke-miterlimit="10" d="M 456.480469 288.625 L 463.679688 288.625 "/>
<path fill="none" stroke-width="0.75" stroke-linecap="round" stroke-linejoin="round" stroke="rgb(0%, 0%, 0%)" stroke-opacity="1" stroke-miterlimit="10" d="M 456.480469 271.664062 L 463.679688 271.664062 "/>
<path fill="none" stroke-width="0.75" stroke-linecap="round" stroke-linejoin="round" stroke="rgb(0%, 0%, 0%)" stroke-opacity="1" stroke-miterlimit="10" d="M 456.480469 110.878906 L 463.679688 110.878906 "/>
<g fill="rgb(0%, 0%, 0%)" fill-opacity="1">
<use xlink:href="#glyph-0-8" x="441.601562" y="89.001953"/>
<use xlink:href="#glyph-0-9" x="449.601562" y="89.001953"/>
<use xlink:href="#glyph-0-10" x="456.601562" y="89.001953"/>
<use xlink:href="#glyph-0-11" x="463.601562" y="89.001953"/>
<use xlink:href="#glyph-0-12" x="467.601562" y="89.001953"/>
<use xlink:href="#glyph-0-13" x="473.601562" y="89.001953"/>
<use xlink:href="#glyph-0-14" x="480.601562" y="89.001953"/>
</g>
<g fill="rgb(0%, 0%, 0%)" fill-opacity="1">
<use xlink:href="#glyph-0-11" x="441.601562" y="100.521484"/>
<use xlink:href="#glyph-0-9" x="445.601562" y="100.521484"/>
<use xlink:href="#glyph-0-12" x="452.601562" y="100.521484"/>
<use xlink:href="#glyph-0-15" x="458.601562" y="100.521484"/>
<use xlink:href="#glyph-0-16" x="461.601562" y="100.521484"/>
<use xlink:href="#glyph-0-17" x="468.601562" y="100.521484"/>
<use xlink:href="#glyph-0-10" x="475.601562" y="100.521484"/>
<use xlink:href="#glyph-0-18" x="482.601562" y="100.521484"/>
<use xlink:href="#glyph-0-12" x="485.601562" y="100.521484"/>
<use xlink:href="#glyph-0-19" x="491.601562" y="100.521484"/>
</g>
<g fill="rgb(0%, 0%, 0%)" fill-opacity="1">
<use xlink:href="#glyph-0-20" x="441.601562" y="439.759766"/>
<use xlink:href="#glyph-0-1" x="448.601562" y="439.759766"/>
<use xlink:href="#glyph-0-21" x="452.601562" y="439.759766"/>
<use xlink:href="#glyph-0-10" x="458.601562" y="439.759766"/>
<use xlink:href="#glyph-0-18" x="465.601562" y="439.759766"/>
<use xlink:href="#glyph-0-17" x="468.601562" y="439.759766"/>
<use xlink:href="#glyph-0-9" x="475.601562" y="439.759766"/>
<use xlink:href="#glyph-0-4" x="482.601562" y="439.759766"/>
<use xlink:href="#glyph-0-22" x="485.601562" y="439.759766"/>
</g>
<g fill="rgb(0%, 0%, 0%)" fill-opacity="1">
<use xlink:href="#glyph-0-23" x="441.601562" y="451.279297"/>
<use xlink:href="#glyph-0-4" x="448.601562" y="451.279297"/>
<use xlink:href="#glyph-0-5" x="451.601562" y="451.279297"/>
<use xlink:href="#glyph-0-24" x="458.601562" y="451.279297"/>
<use xlink:href="#glyph-0-5" x="461.601562" y="451.279297"/>
<use xlink:href="#glyph-0-5" x="468.601562" y="451.279297"/>
<use xlink:href="#glyph-0-9" x="475.601562" y="451.279297"/>
<use xlink:href="#glyph-0-1" x="482.601562" y="451.279297"/>
<use xlink:href="#glyph-0-2" x="486.601562" y="451.279297"/>
<use xlink:href="#glyph-0-25" x="493.601562" y="451.279297"/>
</g>
<g fill="rgb(0%, 0%, 0%)" fill-opacity="1">
<use xlink:href="#glyph-1-1" x="40.5" y="21.298828"/>
<use xlink:href="#glyph-1-2" x="56.5" y="21.298828"/>
<use xlink:href="#glyph-1-2" x="61.5" y="21.298828"/>
<use xlink:href="#glyph-1-3" x="66.5" y="21.298828"/>
<use xlink:href="#glyph-1-4" x="77.5" y="21.298828"/>
<use xlink:href="#glyph-1-5" x="88.5" y="21.298828"/>
<use xlink:href="#glyph-1-3" x="99.5" y="21.298828"/>
<use xlink:href="#glyph-1-6" x="110.5" y="21.298828"/>
<use xlink:href="#glyph-1-7" x="117.5" y="21.298828"/>
<use xlink:href="#glyph-1-8" x="127.5" y="21.298828"/>
<use xlink:href="#glyph-1-9" x="133.5" y="21.298828"/>
<use xlink:href="#glyph-1-10" x="144.5" y="21.298828"/>
<use xlink:href="#glyph-1-8" x="154.5" y="21.298828"/>
<use xlink:href="#glyph-1-11" x="158.5" y="21.298828"/>
<use xlink:href="#glyph-1-12" x="172.5" y="21.298828"/>
<use xlink:href="#glyph-1-3" x="183.5" y="21.298828"/>
<use xlink:href="#glyph-1-8" x="194.5" y="21.298828"/>
<use xlink:href="#glyph-1-13" x="200.5" y="21.298828"/>
<use xlink:href="#glyph-1-6" x="216.5" y="21.298828"/>
<use xlink:href="#glyph-1-14" x="223.5" y="21.298828"/>
<use xlink:href="#glyph-1-15" x="234.5" y="21.298828"/>
<use xlink:href="#glyph-1-16" x="245.5" y="21.298828"/>
<use xlink:href="#glyph-1-17" x="256.5" y="21.298828"/>
<use xlink:href="#glyph-1-18" x="262.5" y="21.298828"/>
<use xlink:href="#glyph-1-19" x="276.5" y="21.298828"/>
<use xlink:href="#glyph-1-20" x="287.5" y="21.298828"/>
<use xlink:href="#glyph-1-3" x="297.5" y="21.298828"/>
<use xlink:href="#glyph-1-17" x="308.5" y="21.298828"/>
<use xlink:href="#glyph-1-21" x="314.5" y="21.298828"/>
<use xlink:href="#glyph-1-3" x="327.5" y="21.298828"/>
<use xlink:href="#glyph-1-22" x="338.5" y="21.298828"/>
<use xlink:href="#glyph-1-8" x="348.5" y="21.298828"/>
<use xlink:href="#glyph-1-23" x="354.5" y="21.298828"/>
<use xlink:href="#glyph-1-24" x="361.5" y="21.298828"/>
<use xlink:href="#glyph-1-25" x="375.5" y="21.298828"/>
<use xlink:href="#glyph-1-21" x="381.5" y="21.298828"/>
<use xlink:href="#glyph-1-25" x="394.5" y="21.298828"/>
<use xlink:href="#glyph-1-26" x="400.5" y="21.298828"/>
<use xlink:href="#glyph-1-8" x="406.5" y="21.298828"/>
<use xlink:href="#glyph-1-27" x="412.5" y="21.298828"/>
<use xlink:href="#glyph-1-28" x="423.5" y="21.298828"/>
<use xlink:href="#glyph-1-27" x="434.5" y="21.298828"/>
<use xlink:href="#glyph-1-29" x="445.5" y="21.298828"/>
<use xlink:href="#glyph-1-30" x="456.5" y="21.298828"/>
</g>
<path fill-rule="nonzero" fill="rgb(29.019608%, 43.529412%, 89.019608%)" fill-opacity="1" stroke-width="0.75" stroke-linecap="round" stroke-linejoin="round" stroke="rgb(0%, 0%, 0%)" stroke-opacity="1" stroke-miterlimit="10" d="M 57.601562 275.921875 L 74.730469 275.921875 L 74.730469 72 L 57.601562 72 Z M 57.601562 275.921875 "/>
<path fill-rule="nonzero" fill="rgb(82.745098%, 24.705882%, 41.568627%)" fill-opacity="1" stroke-width="0.75" stroke-linecap="round" stroke-linejoin="round" stroke="rgb(0%, 0%, 0%)" stroke-opacity="1" stroke-miterlimit="10" d="M 79.046875 275.921875 L 103.566406 275.921875 L 103.566406 72 L 79.046875 72 Z M 79.046875 275.921875 "/>
<path fill-rule="nonzero" fill="rgb(29.019608%, 43.529412%, 89.019608%)" fill-opacity="1" stroke-width="0.75" stroke-linecap="round" stroke-linejoin="round" stroke="rgb(0%, 0%, 0%)" stroke-opacity="1" stroke-miterlimit="10" d="M 57.601562 393.84375 L 75.3125 393.84375 L 75.3125 282.402344 L 57.601562 282.402344 Z M 57.601562 393.84375 "/>
<path fill-rule="nonzero" fill="rgb(61.568627%, 65.882353%, 88.627451%)" fill-opacity="1" stroke-width="0.75" stroke-linecap="round" stroke-linejoin="round" stroke="rgb(0%, 0%, 0%)" stroke-opacity="1" stroke-miterlimit="10" d="M 79.628906 393.84375 L 103.5625 393.84375 L 103.5625 282.402344 L 79.628906 282.402344 Z M 79.628906 393.84375 "/>
<path fill-rule="nonzero" fill="rgb(29.019608%, 43.529412%, 89.019608%)" fill-opacity="1" stroke-width="0.75" stroke-linecap="round" stroke-linejoin="round" stroke="rgb(0%, 0%, 0%)" stroke-opacity="1" stroke-miterlimit="10" d="M 57.601562 443.117188 L 70.457031 443.117188 L 70.457031 400.320312 L 57.601562 400.320312 Z M 57.601562 443.117188 "/>
<path fill-rule="nonzero" fill="rgb(89.411765%, 58.431373%, 64.705882%)" fill-opacity="1" stroke-width="0.75" stroke-linecap="round" stroke-linejoin="round" stroke="rgb(0%, 0%, 0%)" stroke-opacity="1" stroke-miterlimit="10" d="M 74.777344 443.117188 L 103.566406 443.117188 L 103.566406 400.320312 L 74.777344 400.320312 Z M 74.777344 443.117188 "/>
<path fill-rule="nonzero" fill="rgb(88.627451%, 88.627451%, 88.627451%)" fill-opacity="1" stroke-width="0.75" stroke-linecap="round" stroke-linejoin="round" stroke="rgb(0%, 0%, 0%)" stroke-opacity="1" stroke-miterlimit="10" d="M 57.601562 460.800781 L 69.347656 460.800781 L 69.347656 449.597656 L 57.601562 449.597656 Z M 57.601562 460.800781 "/>
<path fill-rule="nonzero" fill="rgb(88.627451%, 88.627451%, 88.627451%)" fill-opacity="1" stroke-width="0.75" stroke-linecap="round" stroke-linejoin="round" stroke="rgb(0%, 0%, 0%)" stroke-opacity="1" stroke-miterlimit="10" d="M 73.667969 460.800781 L 103.566406 460.800781 L 103.566406 449.597656 L 73.667969 449.597656 Z M 73.667969 460.800781 "/>
<path fill-rule="nonzero" fill="rgb(29.019608%, 43.529412%, 89.019608%)" fill-opacity="1" stroke-width="0.75" stroke-linecap="round" stroke-linejoin="round" stroke="rgb(0%, 0%, 0%)" stroke-opacity="1" stroke-miterlimit="10" d="M 113.285156 301.230469 L 130.226562 301.230469 L 130.226562 72 L 113.285156 72 Z M 113.285156 301.230469 "/>
<path fill-rule="nonzero" fill="rgb(82.745098%, 24.705882%, 41.568627%)" fill-opacity="1" stroke-width="0.75" stroke-linecap="round" stroke-linejoin="round" stroke="rgb(0%, 0%, 0%)" stroke-opacity="1" stroke-miterlimit="10" d="M 134.546875 301.230469 L 178.484375 301.230469 L 178.484375 72 L 134.546875 72 Z M 134.546875 301.230469 "/>
<path fill-rule="nonzero" fill="rgb(29.019608%, 43.529412%, 89.019608%)" fill-opacity="1" stroke-width="0.75" stroke-linecap="round" stroke-linejoin="round" stroke="rgb(0%, 0%, 0%)" stroke-opacity="1" stroke-miterlimit="10" d="M 113.285156 386.484375 L 132.222656 386.484375 L 132.222656 307.710938 L 113.285156 307.710938 Z M 113.285156 386.484375 "/>
<path fill-rule="nonzero" fill="rgb(88.627451%, 88.627451%, 88.627451%)" fill-opacity="1" stroke-width="0.75" stroke-linecap="round" stroke-linejoin="round" stroke="rgb(0%, 0%, 0%)" stroke-opacity="1" stroke-miterlimit="10" d="M 136.542969 386.484375 L 178.484375 386.484375 L 178.484375 307.710938 L 136.542969 307.710938 Z M 136.542969 386.484375 "/>
<path fill-rule="nonzero" fill="rgb(88.627451%, 88.627451%, 88.627451%)" fill-opacity="1" stroke-width="0.75" stroke-linecap="round" stroke-linejoin="round" stroke="rgb(0%, 0%, 0%)" stroke-opacity="1" stroke-miterlimit="10" d="M 113.285156 443.386719 L 124.53125 443.386719 L 124.53125 392.964844 L 113.285156 392.964844 Z M 113.285156 443.386719 "/>
<path fill-rule="nonzero" fill="rgb(88.627451%, 88.627451%, 88.627451%)" fill-opacity="1" stroke-width="0.75" stroke-linecap="round" stroke-linejoin="round" stroke="rgb(0%, 0%, 0%)" stroke-opacity="1" stroke-miterlimit="10" d="M 128.851562 443.386719 L 178.480469 443.386719 L 178.480469 392.964844 L 128.851562 392.964844 Z M 128.851562 443.386719 "/>
<path fill-rule="nonzero" fill="rgb(88.627451%, 88.627451%, 88.627451%)" fill-opacity="1" stroke-width="0.75" stroke-linecap="round" stroke-linejoin="round" stroke="rgb(0%, 0%, 0%)" stroke-opacity="1" stroke-miterlimit="10" d="M 113.285156 460.800781 L 126.8125 460.800781 L 126.8125 449.867188 L 113.285156 449.867188 Z M 113.285156 460.800781 "/>
<path fill-rule="nonzero" fill="rgb(88.627451%, 88.627451%, 88.627451%)" fill-opacity="1" stroke-width="0.75" stroke-linecap="round" stroke-linejoin="round" stroke="rgb(0%, 0%, 0%)" stroke-opacity="1" stroke-miterlimit="10" d="M 131.132812 460.800781 L 178.480469 460.800781 L 178.480469 449.867188 L 131.132812 449.867188 Z M 131.132812 460.800781 "/>
<path fill-rule="nonzero" fill="rgb(82.745098%, 24.705882%, 41.568627%)" fill-opacity="1" stroke-width="0.75" stroke-linecap="round" stroke-linejoin="round" stroke="rgb(0%, 0%, 0%)" stroke-opacity="1" stroke-miterlimit="10" d="M 188.199219 338.710938 L 205.164062 338.710938 L 205.164062 72 L 188.199219 72 Z M 188.199219 338.710938 "/>
<path fill-rule="nonzero" fill="rgb(29.019608%, 43.529412%, 89.019608%)" fill-opacity="1" stroke-width="0.75" stroke-linecap="round" stroke-linejoin="round" stroke="rgb(0%, 0%, 0%)" stroke-opacity="1" stroke-miterlimit="10" d="M 209.484375 338.710938 L 427.679688 338.710938 L 427.679688 72 L 209.484375 72 Z M 209.484375 338.710938 "/>
<path fill-rule="nonzero" fill="rgb(89.411765%, 58.431373%, 64.705882%)" fill-opacity="1" stroke-width="0.75" stroke-linecap="round" stroke-linejoin="round" stroke="rgb(0%, 0%, 0%)" stroke-opacity="1" stroke-miterlimit="10" d="M 188.199219 390.835938 L 222.28125 390.835938 L 222.28125 345.191406 L 188.199219 345.191406 Z M 188.199219 390.835938 "/>
<path fill-rule="nonzero" fill="rgb(82.745098%, 24.705882%, 41.568627%)" fill-opacity="1" stroke-width="0.75" stroke-linecap="round" stroke-linejoin="round" stroke="rgb(0%, 0%, 0%)" stroke-opacity="1" stroke-miterlimit="10" d="M 226.601562 390.835938 L 427.679688 390.835938 L 427.679688 345.191406 L 226.601562 345.191406 Z M 226.601562 390.835938 "/>
<path fill-rule="nonzero" fill="rgb(82.745098%, 24.705882%, 41.568627%)" fill-opacity="1" stroke-width="0.75" stroke-linecap="round" stroke-linejoin="round" stroke="rgb(0%, 0%, 0%)" stroke-opacity="1" stroke-miterlimit="10" d="M 188.199219 441.585938 L 201.671875 441.585938 L 201.671875 397.316406 L 188.199219 397.316406 Z M 188.199219 441.585938 "/>
<path fill-rule="nonzero" fill="rgb(61.568627%, 65.882353%, 88.627451%)" fill-opacity="1" stroke-width="0.75" stroke-linecap="round" stroke-linejoin="round" stroke="rgb(0%, 0%, 0%)" stroke-opacity="1" stroke-miterlimit="10" d="M 205.992188 441.585938 L 427.679688 441.585938 L 427.679688 397.316406 L 205.992188 397.316406 Z M 205.992188 441.585938 "/>
<path fill-rule="nonzero" fill="rgb(89.411765%, 58.431373%, 64.705882%)" fill-opacity="1" stroke-width="0.75" stroke-linecap="round" stroke-linejoin="round" stroke="rgb(0%, 0%, 0%)" stroke-opacity="1" stroke-miterlimit="10" d="M 188.199219 460.800781 L 205.503906 460.800781 L 205.503906 448.066406 L 188.199219 448.066406 Z M 188.199219 460.800781 "/>
<path fill-rule="nonzero" fill="rgb(61.568627%, 65.882353%, 88.627451%)" fill-opacity="1" stroke-width="0.75" stroke-linecap="round" stroke-linejoin="round" stroke="rgb(0%, 0%, 0%)" stroke-opacity="1" stroke-miterlimit="10" d="M 209.828125 460.800781 L 427.679688 460.800781 L 427.679688 448.066406 L 209.828125 448.066406 Z M 209.828125 460.800781 "/>
<g fill="rgb(0%, 0%, 0%)" fill-opacity="1">
<use xlink:href="#glyph-2-1" x="225.140625" y="44.060547"/>
<use xlink:href="#glyph-2-2" x="234.140625" y="44.060547"/>
<use xlink:href="#glyph-2-3" x="239.140625" y="44.060547"/>
<use xlink:href="#glyph-2-4" x="246.140625" y="44.060547"/>
<use xlink:href="#glyph-2-5" x="253.140625" y="44.060547"/>
</g>
<g fill="rgb(0%, 0%, 0%)" fill-opacity="1">
<use xlink:href="#glyph-2-6" x="231.640625" y="496.220703"/>
<use xlink:href="#glyph-2-7" x="239.640625" y="496.220703"/>
<use xlink:href="#glyph-2-8" x="246.640625" y="496.220703"/>
</g>
<g fill="rgb(0%, 0%, 0%)" fill-opacity="1">
<use xlink:href="#glyph-3-1" x="29.662109" y="281.398438"/>
<use xlink:href="#glyph-3-2" x="29.662109" y="272.398438"/>
<use xlink:href="#glyph-3-3" x="29.662109" y="265.398438"/>
<use xlink:href="#glyph-3-4" x="29.662109" y="258.398438"/>
</g>
<g fill="rgb(0%, 0%, 0%)" fill-opacity="1">
<use xlink:href="#glyph-0-26" x="66.082031" y="61.341797"/>
<use xlink:href="#glyph-0-27" x="75.082031" y="61.341797"/>
<use xlink:href="#glyph-0-15" x="82.082031" y="61.341797"/>
<use xlink:href="#glyph-0-18" x="85.082031" y="61.341797"/>
<use xlink:href="#glyph-0-16" x="88.082031" y="61.341797"/>
</g>
<g fill="rgb(0%, 0%, 0%)" fill-opacity="1">
<use xlink:href="#glyph-0-28" x="20.398438" y="458.939453"/>
<use xlink:href="#glyph-0-29" x="29.398438" y="458.939453"/>
<use xlink:href="#glyph-0-27" x="32.398438" y="458.939453"/>
<use xlink:href="#glyph-0-9" x="39.398438" y="458.939453"/>
<use xlink:href="#glyph-0-11" x="46.398438" y="458.939453"/>
</g>
<g fill="rgb(0%, 0%, 0%)" fill-opacity="1">
<use xlink:href="#glyph-4-1" x="37.127582" y="499.639301"/>
<use xlink:href="#glyph-4-2" x="42.07733" y="494.689554"/>
<use xlink:href="#glyph-4-3" x="47.027077" y="489.739806"/>
<use xlink:href="#glyph-4-4" x="54.098145" y="482.668738"/>
<use xlink:href="#glyph-4-5" x="59.047893" y="477.718991"/>
<use xlink:href="#glyph-4-2" x="61.169213" y="475.597671"/>
</g>
<g fill="rgb(0%, 0%, 0%)" fill-opacity="1">
<use xlink:href="#glyph-4-6" x="72.166645" y="489.736957"/>
<use xlink:href="#glyph-4-4" x="79.237713" y="482.66589"/>
<use xlink:href="#glyph-4-5" x="84.18746" y="477.716142"/>
<use xlink:href="#glyph-4-2" x="86.308781" y="475.594822"/>
</g>
<g fill="rgb(0%, 0%, 0%)" fill-opacity="1">
<use xlink:href="#glyph-0-30" x="2.398438" y="425.462891"/>
<use xlink:href="#glyph-0-15" x="11.398438" y="425.462891"/>
<use xlink:href="#glyph-0-12" x="14.398438" y="425.462891"/>
<use xlink:href="#glyph-0-20" x="20.398438" y="425.462891"/>
<use xlink:href="#glyph-0-10" x="27.398438" y="425.462891"/>
<use xlink:href="#glyph-0-14" x="34.398438" y="425.462891"/>
<use xlink:href="#glyph-0-15" x="41.398438" y="425.462891"/>
<use xlink:href="#glyph-0-31" x="44.398438" y="425.462891"/>
</g>
<g fill="rgb(0%, 0%, 0%)" fill-opacity="1">
<use xlink:href="#glyph-0-32" x="20.398438" y="341.865234"/>
<use xlink:href="#glyph-0-18" x="28.398438" y="341.865234"/>
<use xlink:href="#glyph-0-10" x="31.398438" y="341.865234"/>
<use xlink:href="#glyph-0-31" x="38.398438" y="341.865234"/>
<use xlink:href="#glyph-0-33" x="44.398438" y="341.865234"/>
</g>
<g fill="rgb(0%, 0%, 0%)" fill-opacity="1">
<use xlink:href="#glyph-0-34" x="19.398438" y="177.701172"/>
<use xlink:href="#glyph-0-27" x="30.398438" y="177.701172"/>
<use xlink:href="#glyph-0-15" x="37.398438" y="177.701172"/>
<use xlink:href="#glyph-0-29" x="40.398438" y="177.701172"/>
<use xlink:href="#glyph-0-9" x="43.398438" y="177.701172"/>
</g>
<g fill="rgb(0%, 0%, 0%)" fill-opacity="1">
<use xlink:href="#glyph-0-35" x="115.382812" y="61.341797"/>
<use xlink:href="#glyph-0-16" x="123.382812" y="61.341797"/>
<use xlink:href="#glyph-0-13" x="130.382812" y="61.341797"/>
<use xlink:href="#glyph-0-18" x="137.382812" y="61.341797"/>
<use xlink:href="#glyph-0-9" x="140.382812" y="61.341797"/>
<use xlink:href="#glyph-0-12" x="147.382812" y="61.341797"/>
<use xlink:href="#glyph-0-31" x="153.382812" y="61.341797"/>
<use xlink:href="#glyph-0-9" x="159.382812" y="61.341797"/>
<use xlink:href="#glyph-0-14" x="166.382812" y="61.341797"/>
<use xlink:href="#glyph-0-29" x="173.382812" y="61.341797"/>
</g>
<g fill="rgb(0%, 0%, 0%)" fill-opacity="1">
<use xlink:href="#glyph-4-1" x="93.701801" y="499.639301"/>
<use xlink:href="#glyph-4-2" x="98.651549" y="494.689554"/>
<use xlink:href="#glyph-4-3" x="103.601296" y="489.739806"/>
<use xlink:href="#glyph-4-4" x="110.672364" y="482.668738"/>
<use xlink:href="#glyph-4-5" x="115.622111" y="477.718991"/>
<use xlink:href="#glyph-4-2" x="117.743432" y="475.597671"/>
</g>
<g fill="rgb(0%, 0%, 0%)" fill-opacity="1">
<use xlink:href="#glyph-4-6" x="138.358051" y="489.736957"/>
<use xlink:href="#glyph-4-4" x="145.429119" y="482.66589"/>
<use xlink:href="#glyph-4-5" x="150.378866" y="477.716142"/>
<use xlink:href="#glyph-4-2" x="152.500187" y="475.594822"/>
</g>
<g fill="rgb(0%, 0%, 0%)" fill-opacity="1">
<use xlink:href="#glyph-0-35" x="293.941406" y="61.341797"/>
<use xlink:href="#glyph-0-16" x="301.941406" y="61.341797"/>
<use xlink:href="#glyph-0-17" x="308.941406" y="61.341797"/>
<use xlink:href="#glyph-0-18" x="315.941406" y="61.341797"/>
<use xlink:href="#glyph-0-29" x="318.941406" y="61.341797"/>
</g>
<g fill="rgb(0%, 0%, 0%)" fill-opacity="1">
<use xlink:href="#glyph-4-1" x="170.506489" y="499.639301"/>
<use xlink:href="#glyph-4-2" x="175.456236" y="494.689554"/>
<use xlink:href="#glyph-4-3" x="180.405984" y="489.739806"/>
<use xlink:href="#glyph-4-4" x="187.477051" y="482.668738"/>
<use xlink:href="#glyph-4-5" x="192.426799" y="477.718991"/>
<use xlink:href="#glyph-4-2" x="194.548119" y="475.597671"/>
</g>
<g fill="rgb(0%, 0%, 0%)" fill-opacity="1">
<use xlink:href="#glyph-4-6" x="302.30727" y="489.736957"/>
<use xlink:href="#glyph-4-4" x="309.378338" y="482.66589"/>
<use xlink:href="#glyph-4-5" x="314.328085" y="477.716142"/>
<use xlink:href="#glyph-4-2" x="316.449406" y="475.594822"/>
</g>
</svg>
